<svg width="432" height="178" viewBox="0 0 432 178" fill="none" xmlns="http://www.w3.org/2000/svg">
<path d="M7.436 8.346H9.035V11.973C8.567 12.3457 8.021 12.6317 7.397 12.831C6.773 13.0303 6.13167 13.13 5.473 13.13C4.54567 13.13 3.70933 12.9307 2.964 12.532C2.21867 12.1247 1.63367 11.5657 1.209 10.855C0.784333 10.1443 0.572 9.34267 0.572 8.45C0.572 7.55733 0.784333 6.75567 1.209 6.045C1.63367 5.33433 2.21867 4.77967 2.964 4.381C3.718 3.97367 4.563 3.77 5.499 3.77C6.26167 3.77 6.955 3.89567 7.579 4.147C8.203 4.39833 8.72733 4.76667 9.152 5.252L8.086 6.292C7.39267 5.59867 6.55633 5.252 5.577 5.252C4.93567 5.252 4.36367 5.38633 3.861 5.655C3.367 5.92367 2.977 6.30067 2.691 6.786C2.41367 7.27133 2.275 7.826 2.275 8.45C2.275 9.05667 2.41367 9.60267 2.691 10.088C2.977 10.5733 3.367 10.9547 3.861 11.232C4.36367 11.5093 4.93133 11.648 5.564 11.648C6.27467 11.648 6.89867 11.492 7.436 11.18V8.346ZM19.389 11.583V13H12.564V3.9H19.207V5.317H14.254V7.683H18.648V9.074H14.254V11.583H19.389ZM24.419 5.33H21.403V3.9H29.125V5.33H26.109V13H24.419V5.33ZM44.9061 3.9L40.9411 13H39.2771L35.2991 3.9H37.1321L40.1611 10.92L43.2161 3.9H44.9061ZM52.7763 10.894H48.2263L47.3293 13H45.5873L49.6823 3.9H51.3463L55.4543 13H53.6863L52.7763 10.894ZM52.2173 9.568L50.5013 5.59L48.7983 9.568H52.2173ZM57.9116 3.9H59.6016V11.57H64.3596V13H57.9116V3.9ZM70.7799 13.13C69.5233 13.13 68.5439 12.779 67.8419 12.077C67.1399 11.3663 66.7889 10.3523 66.7889 9.035V3.9H68.4789V8.97C68.4789 10.7553 69.2503 11.648 70.7929 11.648C72.3269 11.648 73.0939 10.7553 73.0939 8.97V3.9H74.7579V9.035C74.7579 10.3523 74.4069 11.3663 73.7049 12.077C73.0116 12.779 72.0366 13.13 70.7799 13.13ZM85.2497 11.583V13H78.4247V3.9H85.0677V5.317H80.1147V7.683H84.5087V9.074H80.1147V11.583H85.2497Z" fill="white" fill-opacity="0.69"/>
<rect y="28" width="432" height="100" rx="16" fill="#232125"/>
<path d="M52.568 53.524V59.866C52.568 62.498 51.224 63.814 48.536 63.814C47.8173 63.814 47.136 63.7207 46.492 63.534C45.848 63.3567 45.316 63.0953 44.896 62.75L45.68 61.434C46.0067 61.7047 46.4173 61.9193 46.912 62.078C47.416 62.246 47.9247 62.33 48.438 62.33C49.2593 62.33 49.8613 62.1433 50.244 61.77C50.6267 61.3967 50.818 60.8273 50.818 60.062V59.67C50.5193 59.9967 50.1553 60.244 49.726 60.412C49.2967 60.58 48.8253 60.664 48.312 60.664C47.6027 60.664 46.9587 60.5147 46.38 60.216C45.8107 59.908 45.358 59.4787 45.022 58.928C44.6953 58.3773 44.532 57.7473 44.532 57.038C44.532 56.3287 44.6953 55.7033 45.022 55.162C45.358 54.6113 45.8107 54.1867 46.38 53.888C46.9587 53.5893 47.6027 53.44 48.312 53.44C48.8533 53.44 49.3433 53.5287 49.782 53.706C50.23 53.8833 50.6033 54.154 50.902 54.518V53.524H52.568ZM48.578 59.18C49.2407 59.18 49.782 58.984 50.202 58.592C50.6313 58.1907 50.846 57.6727 50.846 57.038C50.846 56.4127 50.6313 55.904 50.202 55.512C49.782 55.12 49.2407 54.924 48.578 54.924C47.906 54.924 47.3553 55.12 46.926 55.512C46.506 55.904 46.296 56.4127 46.296 57.038C46.296 57.6727 46.506 58.1907 46.926 58.592C47.3553 58.984 47.906 59.18 48.578 59.18ZM57.7247 53.44C58.826 53.44 59.666 53.706 60.2447 54.238C60.8327 54.7607 61.1267 55.554 61.1267 56.618V61H59.4747V60.09C59.26 60.4167 58.952 60.6687 58.5507 60.846C58.1587 61.014 57.6827 61.098 57.1227 61.098C56.5627 61.098 56.0727 61.0047 55.6527 60.818C55.2327 60.622 54.906 60.356 54.6727 60.02C54.4487 59.6747 54.3367 59.2873 54.3367 58.858C54.3367 58.186 54.584 57.6493 55.0787 57.248C55.5827 56.8373 56.3714 56.632 57.4447 56.632H59.3767V56.52C59.3767 55.9973 59.218 55.596 58.9007 55.316C58.5927 55.036 58.1307 54.896 57.5147 54.896C57.0947 54.896 56.6794 54.9613 56.2687 55.092C55.8674 55.2227 55.5267 55.4047 55.2467 55.638L54.5607 54.364C54.9527 54.0653 55.424 53.8367 55.9747 53.678C56.5254 53.5193 57.1087 53.44 57.7247 53.44ZM57.4867 59.824C57.9254 59.824 58.3127 59.726 58.6487 59.53C58.994 59.3247 59.2367 59.0353 59.3767 58.662V57.794H57.5707C56.5627 57.794 56.0587 58.1253 56.0587 58.788C56.0587 59.1053 56.1847 59.3573 56.4367 59.544C56.6887 59.7307 57.0387 59.824 57.4867 59.824ZM72.8086 53.44C73.7513 53.44 74.4979 53.7153 75.0486 54.266C75.5993 54.8073 75.8746 55.624 75.8746 56.716V61H74.1246V56.94C74.1246 56.2867 73.9799 55.7967 73.6906 55.47C73.4013 55.134 72.9859 54.966 72.4446 54.966C71.8566 54.966 71.3853 55.162 71.0306 55.554C70.6759 55.9367 70.4986 56.4873 70.4986 57.206V61H68.7486V56.94C68.7486 56.2867 68.6039 55.7967 68.3146 55.47C68.0253 55.134 67.6099 54.966 67.0686 54.966C66.4713 54.966 65.9953 55.1573 65.6406 55.54C65.2953 55.9227 65.1226 56.478 65.1226 57.206V61H63.3726V53.524H65.0386V54.476C65.3186 54.14 65.6686 53.8833 66.0886 53.706C66.5086 53.5287 66.9753 53.44 67.4886 53.44C68.0486 53.44 68.5433 53.5473 68.9726 53.762C69.4113 53.9673 69.7566 54.2753 70.0086 54.686C70.3166 54.294 70.7133 53.9907 71.1986 53.776C71.6839 53.552 72.2206 53.44 72.8086 53.44ZM85.2073 57.304C85.2073 57.4253 85.1979 57.598 85.1793 57.822H79.3133C79.4159 58.3727 79.6819 58.8113 80.1113 59.138C80.5499 59.4553 81.0913 59.614 81.7353 59.614C82.5566 59.614 83.2333 59.3433 83.7653 58.802L84.7033 59.88C84.3673 60.2813 83.9426 60.5847 83.4293 60.79C82.9159 60.9953 82.3373 61.098 81.6933 61.098C80.8719 61.098 80.1486 60.9347 79.5233 60.608C78.8979 60.2813 78.4126 59.8287 78.0673 59.25C77.7313 58.662 77.5633 57.9993 77.5633 57.262C77.5633 56.534 77.7266 55.8807 78.0533 55.302C78.3893 54.714 78.8513 54.2567 79.4393 53.93C80.0273 53.6033 80.6899 53.44 81.4273 53.44C82.1553 53.44 82.8039 53.6033 83.3733 53.93C83.9519 54.2473 84.3999 54.7 84.7173 55.288C85.0439 55.8667 85.2073 56.5387 85.2073 57.304ZM81.4273 54.84C80.8673 54.84 80.3913 55.008 79.9993 55.344C79.6166 55.6707 79.3833 56.1093 79.2993 56.66H83.5413C83.4666 56.1187 83.2379 55.68 82.8553 55.344C82.4726 55.008 81.9966 54.84 81.4273 54.84ZM85.6445 61H92.6445V62.064H85.6445V61ZM96.8671 61.098C96.0924 61.098 95.3971 60.9347 94.7811 60.608C94.1651 60.2813 93.6844 59.8287 93.3391 59.25C92.9937 58.662 92.8211 57.9993 92.8211 57.262C92.8211 56.5247 92.9937 55.8667 93.3391 55.288C93.6844 54.7093 94.1604 54.2567 94.7671 53.93C95.3831 53.6033 96.0831 53.44 96.8671 53.44C97.6044 53.44 98.2484 53.5893 98.7991 53.888C99.3591 54.1867 99.7791 54.616 100.059 55.176L98.7151 55.96C98.5004 55.6147 98.2297 55.358 97.9031 55.19C97.5857 55.0127 97.2357 54.924 96.8531 54.924C96.1997 54.924 95.6584 55.1387 95.2291 55.568C94.7997 55.988 94.5851 56.5527 94.5851 57.262C94.5851 57.9713 94.7951 58.5407 95.2151 58.97C95.6444 59.39 96.1904 59.6 96.8531 59.6C97.2357 59.6 97.5857 59.516 97.9031 59.348C98.2297 59.1707 98.5004 58.9093 98.7151 58.564L100.059 59.348C99.7697 59.908 99.3451 60.342 98.7851 60.65C98.2344 60.9487 97.5951 61.098 96.8671 61.098ZM104.822 61.098C104.066 61.098 103.385 60.9347 102.778 60.608C102.172 60.2813 101.696 59.8287 101.35 59.25C101.014 58.662 100.846 57.9993 100.846 57.262C100.846 56.5247 101.014 55.8667 101.35 55.288C101.696 54.7093 102.172 54.2567 102.778 53.93C103.385 53.6033 104.066 53.44 104.822 53.44C105.588 53.44 106.274 53.6033 106.88 53.93C107.487 54.2567 107.958 54.7093 108.294 55.288C108.64 55.8667 108.812 56.5247 108.812 57.262C108.812 57.9993 108.64 58.662 108.294 59.25C107.958 59.8287 107.487 60.2813 106.88 60.608C106.274 60.9347 105.588 61.098 104.822 61.098ZM104.822 59.6C105.466 59.6 105.998 59.3853 106.418 58.956C106.838 58.5267 107.048 57.962 107.048 57.262C107.048 56.562 106.838 55.9973 106.418 55.568C105.998 55.1387 105.466 54.924 104.822 54.924C104.178 54.924 103.646 55.1387 103.226 55.568C102.816 55.9973 102.61 56.562 102.61 57.262C102.61 57.962 102.816 58.5267 103.226 58.956C103.646 59.3853 104.178 59.6 104.822 59.6ZM117.808 50.612V61H116.128V60.034C115.839 60.3887 115.479 60.6547 115.05 60.832C114.63 61.0093 114.163 61.098 113.65 61.098C112.931 61.098 112.283 60.9393 111.704 60.622C111.135 60.3047 110.687 59.8567 110.36 59.278C110.033 58.69 109.87 58.018 109.87 57.262C109.87 56.506 110.033 55.8387 110.36 55.26C110.687 54.6813 111.135 54.2333 111.704 53.916C112.283 53.5987 112.931 53.44 113.65 53.44C114.145 53.44 114.597 53.524 115.008 53.692C115.419 53.86 115.769 54.112 116.058 54.448V50.612H117.808ZM113.86 59.6C114.28 59.6 114.658 59.5067 114.994 59.32C115.33 59.124 115.596 58.8487 115.792 58.494C115.988 58.1393 116.086 57.7287 116.086 57.262C116.086 56.7953 115.988 56.3847 115.792 56.03C115.596 55.6753 115.33 55.4047 114.994 55.218C114.658 55.022 114.28 54.924 113.86 54.924C113.44 54.924 113.062 55.022 112.726 55.218C112.39 55.4047 112.124 55.6753 111.928 56.03C111.732 56.3847 111.634 56.7953 111.634 57.262C111.634 57.7287 111.732 58.1393 111.928 58.494C112.124 58.8487 112.39 59.124 112.726 59.32C113.062 59.5067 113.44 59.6 113.86 59.6ZM127.125 57.304C127.125 57.4253 127.116 57.598 127.097 57.822H121.231C121.334 58.3727 121.6 58.8113 122.029 59.138C122.468 59.4553 123.009 59.614 123.653 59.614C124.475 59.614 125.151 59.3433 125.683 58.802L126.621 59.88C126.285 60.2813 125.861 60.5847 125.347 60.79C124.834 60.9953 124.255 61.098 123.611 61.098C122.79 61.098 122.067 60.9347 121.441 60.608C120.816 60.2813 120.331 59.8287 119.985 59.25C119.649 58.662 119.481 57.9993 119.481 57.262C119.481 56.534 119.645 55.8807 119.971 55.302C120.307 54.714 120.769 54.2567 121.357 53.93C121.945 53.6033 122.608 53.44 123.345 53.44C124.073 53.44 124.722 53.6033 125.291 53.93C125.87 54.2473 126.318 54.7 126.635 55.288C126.962 55.8667 127.125 56.5387 127.125 57.304ZM123.345 54.84C122.785 54.84 122.309 55.008 121.917 55.344C121.535 55.6707 121.301 56.1093 121.217 56.66H125.459C125.385 56.1187 125.156 55.68 124.773 55.344C124.391 55.008 123.915 54.84 123.345 54.84ZM129.366 61.098C129.049 61.098 128.778 60.9907 128.554 60.776C128.33 60.552 128.218 60.272 128.218 59.936C128.218 59.5907 128.326 59.3107 128.54 59.096C128.764 58.8813 129.04 58.774 129.366 58.774C129.693 58.774 129.964 58.8813 130.178 59.096C130.402 59.3107 130.514 59.5907 130.514 59.936C130.514 60.272 130.402 60.552 130.178 60.776C129.954 60.9907 129.684 61.098 129.366 61.098ZM131.591 63.814C130.854 63.814 130.294 63.6693 129.911 63.38L130.415 62.078C130.676 62.274 131.017 62.372 131.437 62.372C131.764 62.372 132.011 62.2693 132.179 62.064C132.356 61.868 132.445 61.574 132.445 61.182V53.524H134.195V61.14C134.195 61.9707 133.966 62.624 133.509 63.1C133.052 63.576 132.412 63.814 131.591 63.814ZM133.313 52.292C132.996 52.292 132.73 52.194 132.515 51.998C132.3 51.7927 132.193 51.5407 132.193 51.242C132.193 50.9433 132.3 50.696 132.515 50.5C132.73 50.2947 132.996 50.192 133.313 50.192C133.63 50.192 133.896 50.29 134.111 50.486C134.326 50.6727 134.433 50.9107 134.433 51.2C134.433 51.508 134.326 51.7693 134.111 51.984C133.906 52.1893 133.64 52.292 133.313 52.292ZM138.8 61.098C138.193 61.098 137.6 61.0187 137.022 60.86C136.443 60.7013 135.981 60.5007 135.636 60.258L136.308 58.928C136.644 59.152 137.045 59.334 137.512 59.474C137.988 59.6047 138.454 59.67 138.912 59.67C139.957 59.67 140.48 59.3947 140.48 58.844C140.48 58.5827 140.344 58.4007 140.074 58.298C139.812 58.1953 139.388 58.0973 138.8 58.004C138.184 57.9107 137.68 57.8033 137.288 57.682C136.905 57.5607 136.569 57.3507 136.28 57.052C136 56.744 135.86 56.3193 135.86 55.778C135.86 55.0687 136.154 54.504 136.742 54.084C137.339 53.6547 138.142 53.44 139.15 53.44C139.663 53.44 140.176 53.5007 140.69 53.622C141.203 53.734 141.623 53.888 141.95 54.084L141.278 55.414C140.643 55.0407 139.929 54.854 139.136 54.854C138.622 54.854 138.23 54.9333 137.96 55.092C137.698 55.2413 137.568 55.442 137.568 55.694C137.568 55.974 137.708 56.1747 137.988 56.296C138.277 56.408 138.72 56.5153 139.318 56.618C139.915 56.7113 140.405 56.8187 140.788 56.94C141.17 57.0613 141.497 57.2667 141.768 57.556C142.048 57.8453 142.188 58.256 142.188 58.788C142.188 59.488 141.884 60.048 141.278 60.468C140.671 60.888 139.845 61.098 138.8 61.098Z" fill="#F4F2FA"/>
<path d="M23.75 63.25H32.25C33.3546 63.25 34.25 62.3546 34.25 61.25V53L30 48.75H23.75C22.6454 48.75 21.75 49.6454 21.75 50.75V61.25C21.75 62.3546 22.6454 63.25 23.75 63.25Z" stroke="#F2F4FA" stroke-opacity="0.69" stroke-width="1.5" stroke-linecap="round" stroke-linejoin="round"/>
<path d="M34 53.25H29.75V49" stroke="#F2F4FA" stroke-opacity="0.69" stroke-width="1.5" stroke-linecap="round" stroke-linejoin="round"/>
<path d="M28.832 102.625C27.3711 103.117 25.9805 103.363 24.6602 103.363C23.3477 103.363 22.1797 103.062 21.1562 102.461C20.1406 101.852 19.3477 101.031 18.7773 100C18.207 98.9609 17.9219 97.7812 17.9219 96.4609C17.9219 94.4766 18.5664 92.8281 19.8555 91.5156C21.1523 90.2031 22.7148 89.5469 24.543 89.5469C25.8945 89.5469 27.3242 89.8008 28.832 90.3086V92.4062C27.3086 91.7109 25.9453 91.3633 24.7422 91.3633C23.9453 91.3633 23.1953 91.5625 22.4922 91.9609C21.7891 92.3516 21.2461 92.9648 20.8633 93.8008C20.4805 94.6367 20.2891 95.4961 20.2891 96.3789C20.2891 97.5586 20.6562 98.6836 21.3906 99.7539C22.1328 100.824 23.293 101.359 24.8711 101.359C25.3477 101.359 25.8164 101.328 26.2773 101.266C26.7383 101.195 27.5898 100.949 28.832 100.527V102.625ZM35.7461 103V85.9141H31.832V84.0859H37.9258V101.184H42.0156V103H35.7461ZM50.3125 103V91.7266H46.6797V89.9102H52.4922V101.184H56.1367V103H50.3125ZM49.9492 85.1875C49.9492 84.6953 50.1172 84.3281 50.4531 84.0859C50.7891 83.8438 51.1055 83.7227 51.4023 83.7227C51.707 83.7227 52.0273 83.8438 52.3633 84.0859C52.6992 84.3281 52.8672 84.6953 52.8672 85.1875C52.8672 85.6719 52.6992 86.0352 52.3633 86.2773C52.0273 86.5195 51.707 86.6406 51.4023 86.6406C51.1055 86.6406 50.7891 86.5195 50.4531 86.2773C50.1172 86.0352 49.9492 85.6719 49.9492 85.1875ZM71.9453 102.133C70.2031 102.961 68.5547 103.375 67 103.375C65.8203 103.375 64.7656 103.082 63.8359 102.496C62.9062 101.91 62.1602 101.074 61.5977 99.9883C61.043 98.8945 60.7656 97.7266 60.7656 96.4844C60.7656 95.2891 61.0312 94.1406 61.5625 93.0391C62.0938 91.9375 62.8359 91.082 63.7891 90.4727C64.7422 89.8555 65.8047 89.5469 66.9766 89.5469C68.5312 89.5469 69.7773 90.1016 70.7148 91.2109C71.6602 92.3203 72.1328 94.0312 72.1328 96.3438V96.8125H63.1094C63.1094 97.7188 63.2969 98.5469 63.6719 99.2969C64.0547 100.047 64.5547 100.609 65.1719 100.984C65.7891 101.359 66.4922 101.547 67.2812 101.547C68.6875 101.547 70.2422 101.078 71.9453 100.141V102.133ZM63.2383 95.1836H69.7656V94.8672C69.7656 93.7969 69.5039 92.9453 68.9805 92.3125C68.457 91.6797 67.7578 91.3633 66.8828 91.3633C66 91.3633 65.2344 91.6875 64.5859 92.3359C63.9453 92.9766 63.4961 93.9258 63.2383 95.1836ZM75.4727 103V89.9102H77.6523V92.7695C78.2773 91.7617 79.0312 90.9727 79.9141 90.4023C80.7969 89.832 81.6797 89.5469 82.5625 89.5469C83.3359 89.5469 84.0391 89.7539 84.6719 90.168C85.3047 90.5742 85.7461 91.1094 85.9961 91.7734C86.2539 92.4375 86.3828 93.7422 86.3828 95.6875V103H84.2031V95.418C84.2031 94.1602 84.1406 93.332 84.0156 92.9336C83.8984 92.5273 83.6758 92.1953 83.3477 91.9375C83.0273 91.6797 82.6758 91.5508 82.293 91.5508C81.5273 91.5508 80.7031 91.9141 79.8203 92.6406C78.9453 93.3672 78.2227 94.2773 77.6523 95.3711V103H75.4727ZM100.832 102.473C99.8086 102.902 99.0664 103.156 98.6055 103.234C98.1445 103.32 97.6992 103.363 97.2695 103.363C96.3555 103.363 95.5195 103.188 94.7617 102.836C94.0039 102.484 93.4297 101.965 93.0391 101.277C92.6562 100.59 92.4648 99.5273 92.4648 98.0898V92.8164H89.1953V91H92.4648V85.7266H94.6445V91H100.469V92.8164H94.6445V98.0547C94.6445 99.1094 94.7695 99.8555 95.0195 100.293C95.2695 100.723 95.6016 101.039 96.0156 101.242C96.4375 101.445 96.9336 101.547 97.5039 101.547C98.5586 101.547 99.668 101.215 100.832 100.551V102.473Z" fill="#BBBBFF"/>
<path d="M106.645 107.359V83.7227H116.102V85.5508H108.824V105.543H116.102V107.359H106.645ZM213.625 83.7227V107.359H204.168V105.543H211.445V85.5508H204.168V83.7227H213.625ZM245.77 93.7305V95.5469H233.043V93.7305H245.77ZM245.77 97.8203V99.6367H233.043V97.8203H245.77ZM270.461 83.7227V85.1875C269.898 85.3359 269.469 85.5469 269.172 85.8203C268.883 86.0938 268.648 86.4453 268.469 86.875C268.297 87.2969 268.211 87.8125 268.211 88.4219C268.938 88.4219 269.473 88.6289 269.816 89.043C270.16 89.4492 270.332 89.8828 270.332 90.3438C270.332 90.8906 270.141 91.3516 269.758 91.7266C269.375 92.0938 268.93 92.2773 268.422 92.2773C267.766 92.2773 267.199 91.9961 266.723 91.4336C266.246 90.8633 266.008 90.0859 266.008 89.1016C266.008 88.2344 266.195 87.4219 266.57 86.6641C266.945 85.9062 267.453 85.2578 268.094 84.7188C268.742 84.1797 269.531 83.8477 270.461 83.7227ZM277.82 103L275.688 89.9102H277.715L278.957 97.8789L279.285 99.7305L279.602 97.8789L281.688 89.9102H283.645L286 97.8789L286.41 99.7305L286.68 97.8789L287.934 89.9102H289.609L287.488 103H285.449L282.941 94.5742L282.543 92.7227H282.484L282.121 94.5625L279.941 103H277.82ZM291.684 103V84.0859H293.863V92.7695C294.488 91.7617 295.242 90.9727 296.125 90.4023C297.008 89.832 297.891 89.5469 298.773 89.5469C299.516 89.5469 300.191 89.7383 300.801 90.1211C301.418 90.4961 301.848 90.9531 302.09 91.4922C302.285 91.9062 302.418 92.3477 302.488 92.8164C302.559 93.2773 302.594 94.2344 302.594 95.6875V103H300.414V95.418C300.414 94.1602 300.352 93.332 300.227 92.9336C300.109 92.5273 299.887 92.1953 299.559 91.9375C299.238 91.6797 298.887 91.5508 298.504 91.5508C297.738 91.5508 296.914 91.9141 296.031 92.6406C295.156 93.3672 294.434 94.2773 293.863 95.3711V103H291.684ZM314.699 100.059C314.035 101.152 313.234 101.977 312.297 102.531C311.367 103.086 310.512 103.363 309.73 103.363C308.637 103.363 307.652 102.891 306.777 101.945C305.91 101 305.477 99.5664 305.477 97.6445C305.477 96.1289 305.766 94.7773 306.344 93.5898C306.922 92.3945 307.695 91.4531 308.664 90.7656C309.633 90.0703 310.832 89.7227 312.262 89.7227C312.676 89.7227 313.301 89.7656 314.137 89.8516C314.262 89.8672 314.449 89.8867 314.699 89.9102H316.891V99.1562C316.891 100.734 317.055 102.016 317.383 103H315.109C314.938 102.281 314.801 101.301 314.699 100.059ZM314.699 97.4688V91.8555C313.926 91.6523 313.207 91.5508 312.543 91.5508C311.199 91.5508 310.078 92.0703 309.18 93.1094C308.289 94.1484 307.844 95.5625 307.844 97.3516C307.844 98.6484 308.086 99.6289 308.57 100.293C309.062 100.949 309.621 101.277 310.246 101.277C310.926 101.277 311.676 100.934 312.496 100.246C313.316 99.5586 314.051 98.6328 314.699 97.4688ZM331.457 102.473C330.434 102.902 329.691 103.156 329.23 103.234C328.77 103.32 328.324 103.363 327.895 103.363C326.98 103.363 326.145 103.188 325.387 102.836C324.629 102.484 324.055 101.965 323.664 101.277C323.281 100.59 323.09 99.5273 323.09 98.0898V92.8164H319.82V91H323.09V85.7266H325.27V91H331.094V92.8164H325.27V98.0547C325.27 99.1094 325.395 99.8555 325.645 100.293C325.895 100.723 326.227 101.039 326.641 101.242C327.062 101.445 327.559 101.547 328.129 101.547C329.184 101.547 330.293 101.215 331.457 100.551V102.473ZM345.812 102.133C344.07 102.961 342.422 103.375 340.867 103.375C339.688 103.375 338.633 103.082 337.703 102.496C336.773 101.91 336.027 101.074 335.465 99.9883C334.91 98.8945 334.633 97.7266 334.633 96.4844C334.633 95.2891 334.898 94.1406 335.43 93.0391C335.961 91.9375 336.703 91.082 337.656 90.4727C338.609 89.8555 339.672 89.5469 340.844 89.5469C342.398 89.5469 343.645 90.1016 344.582 91.2109C345.527 92.3203 346 94.0312 346 96.3438V96.8125H336.977C336.977 97.7188 337.164 98.5469 337.539 99.2969C337.922 100.047 338.422 100.609 339.039 100.984C339.656 101.359 340.359 101.547 341.148 101.547C342.555 101.547 344.109 101.078 345.812 100.141V102.133ZM337.105 95.1836H343.633V94.8672C343.633 93.7969 343.371 92.9453 342.848 92.3125C342.324 91.6797 341.625 91.3633 340.75 91.3633C339.867 91.3633 339.102 91.6875 338.453 92.3359C337.812 92.9766 337.363 93.9258 337.105 95.1836ZM353.594 103L347.91 89.9102H350.301L354.789 100.27L359.371 89.9102H361.551L355.82 103H353.594ZM374.641 102.133C372.898 102.961 371.25 103.375 369.695 103.375C368.516 103.375 367.461 103.082 366.531 102.496C365.602 101.91 364.855 101.074 364.293 99.9883C363.738 98.8945 363.461 97.7266 363.461 96.4844C363.461 95.2891 363.727 94.1406 364.258 93.0391C364.789 91.9375 365.531 91.082 366.484 90.4727C367.438 89.8555 368.5 89.5469 369.672 89.5469C371.227 89.5469 372.473 90.1016 373.41 91.2109C374.355 92.3203 374.828 94.0312 374.828 96.3438V96.8125H365.805C365.805 97.7188 365.992 98.5469 366.367 99.2969C366.75 100.047 367.25 100.609 367.867 100.984C368.484 101.359 369.188 101.547 369.977 101.547C371.383 101.547 372.938 101.078 374.641 100.141V102.133ZM365.934 95.1836H372.461V94.8672C372.461 93.7969 372.199 92.9453 371.676 92.3125C371.152 91.6797 370.453 91.3633 369.578 91.3633C368.695 91.3633 367.93 91.6875 367.281 92.3359C366.641 92.9766 366.191 93.9258 365.934 95.1836ZM379.281 103V89.9102H381.461V92.7695C382.141 91.6914 382.918 90.8867 383.793 90.3555C384.676 89.8164 385.656 89.5469 386.734 89.5469C387.523 89.5469 388.312 89.668 389.102 89.9102V94.6328H387.004V91.6445C386.637 91.582 386.348 91.5508 386.137 91.5508C385.324 91.5508 384.527 91.8711 383.746 92.5117C382.965 93.1523 382.203 94.1133 381.461 95.3945V103H379.281ZM395.734 92.2773V90.8125C396.297 90.6641 396.723 90.4531 397.012 90.1797C397.309 89.9062 397.543 89.5586 397.715 89.1367C397.895 88.707 397.984 88.1875 397.984 87.5781C397.258 87.5781 396.723 87.375 396.379 86.9688C396.035 86.5547 395.863 86.1172 395.863 85.6562C395.863 85.1094 396.055 84.6523 396.438 84.2852C396.82 83.9102 397.266 83.7227 397.773 83.7227C398.43 83.7227 398.996 84.0078 399.473 84.5781C399.949 85.1406 400.188 85.9141 400.188 86.8984C400.188 87.7656 400 88.5781 399.625 89.3359C399.25 90.0938 398.738 90.7422 398.09 91.2812C397.449 91.8203 396.664 92.1523 395.734 92.2773Z" fill="#F2F6FA"/>
<path d="M126.32 83.7227V85.1875C125.758 85.3359 125.328 85.5469 125.031 85.8203C124.742 86.0938 124.508 86.4453 124.328 86.875C124.156 87.2969 124.07 87.8125 124.07 88.4219C124.797 88.4219 125.332 88.6289 125.676 89.043C126.02 89.4492 126.191 89.8828 126.191 90.3438C126.191 90.8906 126 91.3516 125.617 91.7266C125.234 92.0938 124.789 92.2773 124.281 92.2773C123.625 92.2773 123.059 91.9961 122.582 91.4336C122.105 90.8633 121.867 90.0859 121.867 89.1016C121.867 88.2344 122.055 87.4219 122.43 86.6641C122.805 85.9062 123.312 85.2578 123.953 84.7188C124.602 84.1797 125.391 83.8477 126.32 83.7227ZM144.074 102.473C143.051 102.902 142.309 103.156 141.848 103.234C141.387 103.32 140.941 103.363 140.512 103.363C139.598 103.363 138.762 103.188 138.004 102.836C137.246 102.484 136.672 101.965 136.281 101.277C135.898 100.59 135.707 99.5273 135.707 98.0898V92.8164H132.438V91H135.707V85.7266H137.887V91H143.711V92.8164H137.887V98.0547C137.887 99.1094 138.012 99.8555 138.262 100.293C138.512 100.723 138.844 101.039 139.258 101.242C139.68 101.445 140.176 101.547 140.746 101.547C141.801 101.547 142.91 101.215 144.074 100.551V102.473ZM152.383 101.184V87.1445C151.727 87.668 151.09 88.1133 150.473 88.4805C149.855 88.8477 149.008 89.2227 147.93 89.6055V87.6367C149.641 86.9102 151.125 85.9688 152.383 84.8125H154.562V101.184H158.934V103H147.93V101.184H152.383ZM168.426 103V97.9141H160.703V96.0859L168.426 84.8125H170.617V96.0859H173.98V97.9141H170.617V103H168.426ZM168.426 96.0859V88.1172L163.023 96.0859H168.426ZM176.758 93.543V84.8125H186.941V86.9102H178.938V91.3633H179.312C181.93 91.3633 183.945 91.9102 185.359 93.0039C186.773 94.0977 187.48 95.5703 187.48 97.4219C187.48 98.5938 187.195 99.6445 186.625 100.574C186.055 101.504 185.25 102.234 184.211 102.766C183.172 103.289 182.066 103.551 180.895 103.551C179.723 103.551 178.223 103.266 176.395 102.695V100.316C177.059 100.676 177.801 100.973 178.621 101.207C179.441 101.434 180.199 101.547 180.895 101.547C181.59 101.547 182.27 101.379 182.934 101.043C183.598 100.707 184.113 100.219 184.48 99.5781C184.848 98.9297 185.031 98.2695 185.031 97.5977C185.031 96.4648 184.527 95.5078 183.52 94.7266C182.52 93.9375 180.738 93.543 178.176 93.543H176.758ZM193.938 92.2773V90.8125C194.5 90.6641 194.926 90.4531 195.215 90.1797C195.512 89.9062 195.746 89.5586 195.918 89.1367C196.098 88.707 196.188 88.1875 196.188 87.5781C195.461 87.5781 194.926 87.375 194.582 86.9688C194.238 86.5547 194.066 86.1172 194.066 85.6562C194.066 85.1094 194.258 84.6523 194.641 84.2852C195.023 83.9102 195.469 83.7227 195.977 83.7227C196.633 83.7227 197.199 84.0078 197.676 84.5781C198.152 85.1406 198.391 85.9141 198.391 86.8984C198.391 87.7656 198.203 88.5781 197.828 89.3359C197.453 90.0938 196.941 90.7422 196.293 91.2812C195.652 91.8203 194.867 92.1523 193.938 92.2773Z" fill="#BBE7FF"/>
<path d="M156.192 156.512C156.405 156.587 156.571 156.709 156.688 156.88C156.805 157.051 156.864 157.259 156.864 157.504C156.864 157.824 156.763 158.085 156.56 158.288C156.357 158.491 156.107 158.592 155.808 158.592C155.499 158.592 155.243 158.491 155.04 158.288C154.837 158.075 154.736 157.813 154.736 157.504C154.736 157.355 154.752 157.205 154.784 157.056C154.827 156.896 154.907 156.667 155.024 156.368L155.776 154.128H156.784L156.192 156.512ZM164.13 165.504C163.906 165.696 163.629 165.845 163.298 165.952C162.968 166.048 162.626 166.096 162.274 166.096C161.421 166.096 160.76 165.867 160.29 165.408C159.821 164.949 159.586 164.293 159.586 163.44V158.784H158.146V157.52H159.586V155.664H161.122V157.52H163.554V158.784H161.122V163.376C161.122 163.835 161.234 164.187 161.458 164.432C161.693 164.677 162.024 164.8 162.45 164.8C162.92 164.8 163.32 164.667 163.65 164.4L164.13 165.504ZM166.371 154.032C166.67 154.032 166.915 154.139 167.107 154.352C167.31 154.555 167.411 154.811 167.411 155.12C167.411 155.28 167.395 155.44 167.363 155.6C167.331 155.749 167.262 155.968 167.155 156.256L166.387 158.496H165.379L165.971 156.112C165.769 156.037 165.603 155.915 165.475 155.744C165.358 155.563 165.299 155.355 165.299 155.12C165.299 154.8 165.401 154.539 165.603 154.336C165.806 154.133 166.062 154.032 166.371 154.032ZM180.693 161.04H177.781V163.904H176.437V161.04H173.525V159.776H176.437V156.896H177.781V159.776H180.693V161.04ZM192.287 165.504C192.063 165.696 191.785 165.845 191.455 165.952C191.124 166.048 190.783 166.096 190.431 166.096C189.577 166.096 188.916 165.867 188.447 165.408C187.977 164.949 187.743 164.293 187.743 163.44V158.784H186.303V157.52H187.743V155.664H189.279V157.52H191.711V158.784H189.279V163.376C189.279 163.835 189.391 164.187 189.615 164.432C189.849 164.677 190.18 164.8 190.607 164.8C191.076 164.8 191.476 164.667 191.807 164.4L192.287 165.504ZM194.144 157.52H195.68V166H194.144V157.52ZM194.912 155.888C194.613 155.888 194.362 155.792 194.16 155.6C193.968 155.408 193.872 155.173 193.872 154.896C193.872 154.619 193.968 154.384 194.16 154.192C194.362 153.989 194.613 153.888 194.912 153.888C195.21 153.888 195.456 153.984 195.648 154.176C195.85 154.357 195.952 154.587 195.952 154.864C195.952 155.152 195.85 155.397 195.648 155.6C195.456 155.792 195.21 155.888 194.912 155.888ZM202.308 166.096C201.444 166.096 200.671 165.909 199.988 165.536C199.316 165.163 198.788 164.651 198.404 164C198.02 163.339 197.828 162.592 197.828 161.76C197.828 160.928 198.02 160.187 198.404 159.536C198.788 158.875 199.316 158.363 199.988 158C200.671 157.627 201.444 157.44 202.308 157.44C203.076 157.44 203.759 157.595 204.356 157.904C204.964 158.213 205.434 158.661 205.764 159.248L204.596 160C204.33 159.595 203.999 159.291 203.604 159.088C203.21 158.885 202.772 158.784 202.292 158.784C201.738 158.784 201.236 158.907 200.788 159.152C200.351 159.397 200.004 159.749 199.748 160.208C199.503 160.656 199.38 161.173 199.38 161.76C199.38 162.357 199.503 162.885 199.748 163.344C200.004 163.792 200.351 164.139 200.788 164.384C201.236 164.629 201.738 164.752 202.292 164.752C202.772 164.752 203.21 164.651 203.604 164.448C203.999 164.245 204.33 163.941 204.596 163.536L205.764 164.272C205.434 164.859 204.964 165.312 204.356 165.632C203.759 165.941 203.076 166.096 202.308 166.096ZM210.94 162.048L209.18 163.68V166H207.644V154.128H209.18V161.744L213.804 157.52H215.66L212.092 161.024L216.012 166H214.124L210.94 162.048Z" fill="#BBE7FF"/>
<path d="M220.344 161.072H236.344V162.144H220.344V161.072ZM245.185 157.44C246.358 157.44 247.254 157.728 247.873 158.304C248.502 158.88 248.817 159.739 248.817 160.88V166H247.361V164.88C247.105 165.275 246.737 165.579 246.257 165.792C245.787 165.995 245.227 166.096 244.577 166.096C243.627 166.096 242.865 165.867 242.289 165.408C241.723 164.949 241.441 164.347 241.441 163.6C241.441 162.853 241.713 162.256 242.257 161.808C242.801 161.349 243.665 161.12 244.849 161.12H247.281V160.816C247.281 160.155 247.089 159.648 246.705 159.296C246.321 158.944 245.755 158.768 245.009 158.768C244.507 158.768 244.017 158.853 243.537 159.024C243.057 159.184 242.651 159.403 242.321 159.68L241.681 158.528C242.118 158.176 242.641 157.909 243.249 157.728C243.857 157.536 244.502 157.44 245.185 157.44ZM244.833 164.912C245.419 164.912 245.926 164.784 246.353 164.528C246.779 164.261 247.089 163.888 247.281 163.408V162.224H244.913C243.611 162.224 242.961 162.661 242.961 163.536C242.961 163.963 243.126 164.299 243.457 164.544C243.787 164.789 244.246 164.912 244.833 164.912ZM254.091 166.096C253.398 166.096 252.731 166.005 252.091 165.824C251.451 165.632 250.95 165.392 250.587 165.104L251.227 163.888C251.6 164.155 252.054 164.368 252.587 164.528C253.12 164.688 253.659 164.768 254.203 164.768C255.547 164.768 256.219 164.384 256.219 163.616C256.219 163.36 256.128 163.157 255.947 163.008C255.766 162.859 255.536 162.752 255.259 162.688C254.992 162.613 254.608 162.533 254.107 162.448C253.424 162.341 252.864 162.219 252.427 162.08C252 161.941 251.632 161.707 251.323 161.376C251.014 161.045 250.859 160.581 250.859 159.984C250.859 159.216 251.179 158.603 251.819 158.144C252.459 157.675 253.318 157.44 254.395 157.44C254.96 157.44 255.526 157.509 256.091 157.648C256.656 157.787 257.12 157.973 257.483 158.208L256.827 159.424C256.134 158.976 255.318 158.752 254.379 158.752C253.728 158.752 253.232 158.859 252.891 159.072C252.55 159.285 252.379 159.568 252.379 159.92C252.379 160.197 252.475 160.416 252.667 160.576C252.859 160.736 253.094 160.853 253.371 160.928C253.659 161.003 254.059 161.088 254.571 161.184C255.254 161.301 255.803 161.429 256.219 161.568C256.646 161.696 257.008 161.92 257.307 162.24C257.606 162.56 257.755 163.008 257.755 163.584C257.755 164.352 257.424 164.965 256.763 165.424C256.112 165.872 255.222 166.096 254.091 166.096ZM262.107 166.096C261.413 166.096 260.747 166.005 260.107 165.824C259.467 165.632 258.965 165.392 258.603 165.104L259.243 163.888C259.616 164.155 260.069 164.368 260.603 164.528C261.136 164.688 261.675 164.768 262.219 164.768C263.563 164.768 264.235 164.384 264.235 163.616C264.235 163.36 264.144 163.157 263.963 163.008C263.781 162.859 263.552 162.752 263.275 162.688C263.008 162.613 262.624 162.533 262.123 162.448C261.44 162.341 260.88 162.219 260.443 162.08C260.016 161.941 259.648 161.707 259.339 161.376C259.029 161.045 258.875 160.581 258.875 159.984C258.875 159.216 259.195 158.603 259.835 158.144C260.475 157.675 261.333 157.44 262.411 157.44C262.976 157.44 263.541 157.509 264.107 157.648C264.672 157.787 265.136 157.973 265.499 158.208L264.843 159.424C264.149 158.976 263.333 158.752 262.395 158.752C261.744 158.752 261.248 158.859 260.907 159.072C260.565 159.285 260.395 159.568 260.395 159.92C260.395 160.197 260.491 160.416 260.683 160.576C260.875 160.736 261.109 160.853 261.387 160.928C261.675 161.003 262.075 161.088 262.587 161.184C263.269 161.301 263.819 161.429 264.235 161.568C264.661 161.696 265.024 161.92 265.323 162.24C265.621 162.56 265.771 163.008 265.771 163.584C265.771 164.352 265.44 164.965 264.779 165.424C264.128 165.872 263.237 166.096 262.107 166.096ZM267.69 157.52H269.226V166H267.69V157.52ZM268.458 155.888C268.16 155.888 267.909 155.792 267.706 155.6C267.514 155.408 267.418 155.173 267.418 154.896C267.418 154.619 267.514 154.384 267.706 154.192C267.909 153.989 268.16 153.888 268.458 153.888C268.757 153.888 269.002 153.984 269.194 154.176C269.397 154.357 269.498 154.587 269.498 154.864C269.498 155.152 269.397 155.397 269.194 155.6C269.002 155.792 268.757 155.888 268.458 155.888ZM280.271 157.52V164.848C280.271 166.331 279.903 167.424 279.167 168.128C278.431 168.843 277.332 169.2 275.871 169.2C275.071 169.2 274.308 169.088 273.583 168.864C272.858 168.651 272.271 168.341 271.823 167.936L272.559 166.752C272.954 167.093 273.439 167.36 274.015 167.552C274.602 167.755 275.204 167.856 275.823 167.856C276.815 167.856 277.546 167.621 278.015 167.152C278.495 166.683 278.735 165.968 278.735 165.008V164.336C278.372 164.773 277.924 165.104 277.391 165.328C276.868 165.541 276.298 165.648 275.679 165.648C274.868 165.648 274.132 165.477 273.471 165.136C272.82 164.784 272.308 164.299 271.935 163.68C271.562 163.051 271.375 162.336 271.375 161.536C271.375 160.736 271.562 160.027 271.935 159.408C272.308 158.779 272.82 158.293 273.471 157.952C274.132 157.611 274.868 157.44 275.679 157.44C276.319 157.44 276.911 157.557 277.455 157.792C278.01 158.027 278.463 158.373 278.815 158.832V157.52H280.271ZM275.855 164.304C276.41 164.304 276.906 164.187 277.343 163.952C277.791 163.717 278.138 163.392 278.383 162.976C278.639 162.549 278.767 162.069 278.767 161.536C278.767 160.715 278.495 160.053 277.951 159.552C277.407 159.04 276.708 158.784 275.855 158.784C274.991 158.784 274.287 159.04 273.743 159.552C273.199 160.053 272.927 160.715 272.927 161.536C272.927 162.069 273.05 162.549 273.295 162.976C273.551 163.392 273.898 163.717 274.335 163.952C274.783 164.187 275.29 164.304 275.855 164.304ZM287.734 157.44C288.811 157.44 289.665 157.755 290.294 158.384C290.934 159.003 291.254 159.915 291.254 161.12V166H289.718V161.296C289.718 160.475 289.521 159.856 289.126 159.44C288.731 159.024 288.166 158.816 287.43 158.816C286.598 158.816 285.942 159.061 285.462 159.552C284.982 160.032 284.742 160.725 284.742 161.632V166H283.206V157.52H284.678V158.8C284.987 158.363 285.403 158.027 285.926 157.792C286.459 157.557 287.062 157.44 287.734 157.44ZM301.808 161.808C301.808 161.925 301.797 162.08 301.776 162.272H294.896C294.992 163.019 295.317 163.621 295.872 164.08C296.437 164.528 297.136 164.752 297.968 164.752C298.981 164.752 299.797 164.411 300.416 163.728L301.264 164.72C300.88 165.168 300.4 165.509 299.824 165.744C299.258 165.979 298.624 166.096 297.92 166.096C297.024 166.096 296.229 165.915 295.536 165.552C294.842 165.179 294.304 164.661 293.92 164C293.546 163.339 293.36 162.592 293.36 161.76C293.36 160.939 293.541 160.197 293.904 159.536C294.277 158.875 294.784 158.363 295.424 158C296.074 157.627 296.805 157.44 297.616 157.44C298.426 157.44 299.146 157.627 299.776 158C300.416 158.363 300.912 158.875 301.264 159.536C301.626 160.197 301.808 160.955 301.808 161.808ZM297.616 158.736C296.88 158.736 296.261 158.96 295.76 159.408C295.269 159.856 294.981 160.443 294.896 161.168H300.336C300.25 160.453 299.957 159.872 299.456 159.424C298.965 158.965 298.352 158.736 297.616 158.736ZM311.94 154.128V166H310.468V164.656C310.127 165.125 309.695 165.483 309.172 165.728C308.65 165.973 308.074 166.096 307.444 166.096C306.623 166.096 305.887 165.915 305.236 165.552C304.586 165.189 304.074 164.683 303.7 164.032C303.338 163.371 303.156 162.613 303.156 161.76C303.156 160.907 303.338 160.155 303.7 159.504C304.074 158.853 304.586 158.347 305.236 157.984C305.887 157.621 306.623 157.44 307.444 157.44C308.052 157.44 308.612 157.557 309.124 157.792C309.636 158.016 310.063 158.352 310.404 158.8V154.128H311.94ZM307.572 164.752C308.106 164.752 308.591 164.629 309.028 164.384C309.466 164.128 309.807 163.776 310.052 163.328C310.298 162.869 310.42 162.347 310.42 161.76C310.42 161.173 310.298 160.656 310.052 160.208C309.807 159.749 309.466 159.397 309.028 159.152C308.591 158.907 308.106 158.784 307.572 158.784C307.028 158.784 306.538 158.907 306.1 159.152C305.674 159.397 305.332 159.749 305.076 160.208C304.831 160.656 304.708 161.173 304.708 161.76C304.708 162.347 304.831 162.869 305.076 163.328C305.332 163.776 305.674 164.128 306.1 164.384C306.538 164.629 307.028 164.752 307.572 164.752ZM322.232 157.44C323.405 157.44 324.301 157.728 324.92 158.304C325.549 158.88 325.864 159.739 325.864 160.88V166H324.408V164.88C324.152 165.275 323.784 165.579 323.304 165.792C322.834 165.995 322.274 166.096 321.624 166.096C320.674 166.096 319.912 165.867 319.336 165.408C318.77 164.949 318.488 164.347 318.488 163.6C318.488 162.853 318.76 162.256 319.304 161.808C319.848 161.349 320.712 161.12 321.896 161.12H324.328V160.816C324.328 160.155 324.136 159.648 323.752 159.296C323.368 158.944 322.802 158.768 322.056 158.768C321.554 158.768 321.064 158.853 320.584 159.024C320.104 159.184 319.698 159.403 319.368 159.68L318.728 158.528C319.165 158.176 319.688 157.909 320.296 157.728C320.904 157.536 321.549 157.44 322.232 157.44ZM321.88 164.912C322.466 164.912 322.973 164.784 323.4 164.528C323.826 164.261 324.136 163.888 324.328 163.408V162.224H321.96C320.658 162.224 320.008 162.661 320.008 163.536C320.008 163.963 320.173 164.299 320.504 164.544C320.834 164.789 321.293 164.912 321.88 164.912ZM336.61 157.52V166H335.154V164.72C334.845 165.157 334.434 165.499 333.922 165.744C333.421 165.979 332.871 166.096 332.274 166.096C331.143 166.096 330.253 165.787 329.602 165.168C328.951 164.539 328.626 163.616 328.626 162.4V157.52H330.162V162.224C330.162 163.045 330.359 163.669 330.754 164.096C331.149 164.512 331.714 164.72 332.45 164.72C333.261 164.72 333.901 164.475 334.37 163.984C334.839 163.493 335.074 162.8 335.074 161.904V157.52H336.61ZM344.302 165.504C344.078 165.696 343.801 165.845 343.47 165.952C343.139 166.048 342.798 166.096 342.446 166.096C341.593 166.096 340.931 165.867 340.462 165.408C339.993 164.949 339.758 164.293 339.758 163.44V158.784H338.318V157.52H339.758V155.664H341.294V157.52H343.726V158.784H341.294V163.376C341.294 163.835 341.406 164.187 341.63 164.432C341.865 164.677 342.195 164.8 342.622 164.8C343.091 164.8 343.491 164.667 343.822 164.4L344.302 165.504ZM349.51 166.096C348.667 166.096 347.91 165.909 347.238 165.536C346.566 165.163 346.038 164.651 345.654 164C345.281 163.339 345.094 162.592 345.094 161.76C345.094 160.928 345.281 160.187 345.654 159.536C346.038 158.875 346.566 158.363 347.238 158C347.91 157.627 348.667 157.44 349.51 157.44C350.353 157.44 351.105 157.627 351.766 158C352.438 158.363 352.961 158.875 353.334 159.536C353.718 160.187 353.91 160.928 353.91 161.76C353.91 162.592 353.718 163.339 353.334 164C352.961 164.651 352.438 165.163 351.766 165.536C351.105 165.909 350.353 166.096 349.51 166.096ZM349.51 164.752C350.054 164.752 350.539 164.629 350.966 164.384C351.403 164.128 351.745 163.776 351.99 163.328C352.235 162.869 352.358 162.347 352.358 161.76C352.358 161.173 352.235 160.656 351.99 160.208C351.745 159.749 351.403 159.397 350.966 159.152C350.539 158.907 350.054 158.784 349.51 158.784C348.966 158.784 348.475 158.907 348.038 159.152C347.611 159.397 347.27 159.749 347.014 160.208C346.769 160.656 346.646 161.173 346.646 161.76C346.646 162.347 346.769 162.869 347.014 163.328C347.27 163.776 347.611 164.128 348.038 164.384C348.475 164.629 348.966 164.752 349.51 164.752ZM366.642 157.44C367.709 157.44 368.551 157.749 369.17 158.368C369.799 158.987 370.114 159.904 370.114 161.12V166H368.578V161.296C368.578 160.475 368.386 159.856 368.002 159.44C367.629 159.024 367.09 158.816 366.386 158.816C365.607 158.816 364.989 159.061 364.53 159.552C364.071 160.032 363.842 160.725 363.842 161.632V166H362.306V161.296C362.306 160.475 362.114 159.856 361.73 159.44C361.357 159.024 360.818 158.816 360.114 158.816C359.335 158.816 358.717 159.061 358.258 159.552C357.799 160.032 357.57 160.725 357.57 161.632V166H356.034V157.52H357.506V158.784C357.815 158.347 358.221 158.016 358.722 157.792C359.223 157.557 359.794 157.44 360.434 157.44C361.095 157.44 361.682 157.573 362.194 157.84C362.706 158.107 363.101 158.496 363.378 159.008C363.698 158.517 364.141 158.133 364.706 157.856C365.282 157.579 365.927 157.44 366.642 157.44ZM376.028 157.44C377.202 157.44 378.098 157.728 378.716 158.304C379.346 158.88 379.66 159.739 379.66 160.88V166H378.204V164.88C377.948 165.275 377.58 165.579 377.1 165.792C376.631 165.995 376.071 166.096 375.42 166.096C374.471 166.096 373.708 165.867 373.132 165.408C372.567 164.949 372.284 164.347 372.284 163.6C372.284 162.853 372.556 162.256 373.1 161.808C373.644 161.349 374.508 161.12 375.692 161.12H378.124V160.816C378.124 160.155 377.932 159.648 377.548 159.296C377.164 158.944 376.599 158.768 375.852 158.768C375.351 158.768 374.86 158.853 374.38 159.024C373.9 159.184 373.495 159.403 373.164 159.68L372.524 158.528C372.962 158.176 373.484 157.909 374.092 157.728C374.7 157.536 375.346 157.44 376.028 157.44ZM375.676 164.912C376.263 164.912 376.77 164.784 377.196 164.528C377.623 164.261 377.932 163.888 378.124 163.408V162.224H375.756C374.455 162.224 373.804 162.661 373.804 163.536C373.804 163.963 373.97 164.299 374.3 164.544C374.631 164.789 375.09 164.912 375.676 164.912ZM387.271 165.504C387.047 165.696 386.77 165.845 386.439 165.952C386.108 166.048 385.767 166.096 385.415 166.096C384.562 166.096 383.9 165.867 383.431 165.408C382.962 164.949 382.727 164.293 382.727 163.44V158.784H381.287V157.52H382.727V155.664H384.263V157.52H386.695V158.784H384.263V163.376C384.263 163.835 384.375 164.187 384.599 164.432C384.834 164.677 385.164 164.8 385.591 164.8C386.06 164.8 386.46 164.667 386.791 164.4L387.271 165.504ZM389.128 157.52H390.664V166H389.128V157.52ZM389.896 155.888C389.597 155.888 389.347 155.792 389.144 155.6C388.952 155.408 388.856 155.173 388.856 154.896C388.856 154.619 388.952 154.384 389.144 154.192C389.347 153.989 389.597 153.888 389.896 153.888C390.195 153.888 390.44 153.984 390.632 154.176C390.835 154.357 390.936 154.587 390.936 154.864C390.936 155.152 390.835 155.397 390.632 155.6C390.44 155.792 390.195 155.888 389.896 155.888ZM397.293 166.096C396.429 166.096 395.655 165.909 394.973 165.536C394.301 165.163 393.773 164.651 393.389 164C393.005 163.339 392.813 162.592 392.813 161.76C392.813 160.928 393.005 160.187 393.389 159.536C393.773 158.875 394.301 158.363 394.973 158C395.655 157.627 396.429 157.44 397.293 157.44C398.061 157.44 398.743 157.595 399.341 157.904C399.949 158.213 400.418 158.661 400.749 159.248L399.581 160C399.314 159.595 398.983 159.291 398.589 159.088C398.194 158.885 397.757 158.784 397.277 158.784C396.722 158.784 396.221 158.907 395.773 159.152C395.335 159.397 394.989 159.749 394.733 160.208C394.487 160.656 394.365 161.173 394.365 161.76C394.365 162.357 394.487 162.885 394.733 163.344C394.989 163.792 395.335 164.139 395.773 164.384C396.221 164.629 396.722 164.752 397.277 164.752C397.757 164.752 398.194 164.651 398.589 164.448C398.983 164.245 399.314 163.941 399.581 163.536L400.749 164.272C400.418 164.859 399.949 165.312 399.341 165.632C398.743 165.941 398.061 166.096 397.293 166.096ZM405.825 157.44C406.999 157.44 407.895 157.728 408.513 158.304C409.143 158.88 409.457 159.739 409.457 160.88V166H408.001V164.88C407.745 165.275 407.377 165.579 406.897 165.792C406.428 165.995 405.868 166.096 405.217 166.096C404.268 166.096 403.505 165.867 402.929 165.408C402.364 164.949 402.081 164.347 402.081 163.6C402.081 162.853 402.353 162.256 402.897 161.808C403.441 161.349 404.305 161.12 405.489 161.12H407.921V160.816C407.921 160.155 407.729 159.648 407.345 159.296C406.961 158.944 406.396 158.768 405.649 158.768C405.148 158.768 404.657 158.853 404.177 159.024C403.697 159.184 403.292 159.403 402.961 159.68L402.321 158.528C402.759 158.176 403.281 157.909 403.889 157.728C404.497 157.536 405.143 157.44 405.825 157.44ZM405.473 164.912C406.06 164.912 406.567 164.784 406.993 164.528C407.42 164.261 407.729 163.888 407.921 163.408V162.224H405.553C404.252 162.224 403.601 162.661 403.601 163.536C403.601 163.963 403.767 164.299 404.097 164.544C404.428 164.789 404.887 164.912 405.473 164.912ZM412.3 154.128H413.836V166H412.3V154.128ZM416.769 154.128H418.305V166H416.769V154.128ZM428.741 157.52L424.629 166.848C424.267 167.712 423.84 168.32 423.349 168.672C422.869 169.024 422.288 169.2 421.605 169.2C421.189 169.2 420.784 169.131 420.389 168.992C420.005 168.864 419.685 168.672 419.429 168.416L420.085 167.264C420.523 167.68 421.029 167.888 421.605 167.888C421.979 167.888 422.288 167.787 422.533 167.584C422.789 167.392 423.019 167.056 423.221 166.576L423.493 165.984L419.749 157.52H421.349L424.309 164.304L427.237 157.52H428.741Z" fill="#F4F2FA" fill-opacity="0.55"/>
<path d="M160.5 146.5V115.5" stroke="#BBE7FF" stroke-dasharray="2 2"/>
</svg>
