<svg width="377" height="128" viewBox="0 0 377 128" fill="none" xmlns="http://www.w3.org/2000/svg">
<path d="M4.043 13.13C3.341 13.13 2.66067 13.0303 2.002 12.831C1.352 12.6317 0.836333 12.3673 0.455 12.038L1.04 10.725C1.41267 11.0197 1.86767 11.2623 2.405 11.453C2.951 11.635 3.497 11.726 4.043 11.726C4.719 11.726 5.22167 11.6177 5.551 11.401C5.889 11.1843 6.058 10.8983 6.058 10.543C6.058 10.283 5.96267 10.0707 5.772 9.906C5.59 9.73267 5.356 9.59833 5.07 9.503C4.784 9.40767 4.394 9.29933 3.9 9.178C3.20667 9.01333 2.64333 8.84867 2.21 8.684C1.78533 8.51933 1.417 8.26367 1.105 7.917C0.801667 7.56167 0.65 7.085 0.65 6.487C0.65 5.98433 0.784333 5.52933 1.053 5.122C1.33033 4.706 1.742 4.37667 2.288 4.134C2.84267 3.89133 3.51867 3.77 4.316 3.77C4.87067 3.77 5.41667 3.83933 5.954 3.978C6.49133 4.11667 6.955 4.316 7.345 4.576L6.812 5.889C6.41333 5.655 5.99733 5.47733 5.564 5.356C5.13067 5.23467 4.71033 5.174 4.303 5.174C3.63567 5.174 3.13733 5.28667 2.808 5.512C2.48733 5.73733 2.327 6.03633 2.327 6.409C2.327 6.669 2.418 6.88133 2.6 7.046C2.79067 7.21067 3.029 7.34067 3.315 7.436C3.601 7.53133 3.991 7.63967 4.485 7.761C5.161 7.917 5.71567 8.08167 6.149 8.255C6.58233 8.41967 6.95067 8.67533 7.254 9.022C7.566 9.36867 7.722 9.83667 7.722 10.426C7.722 10.9287 7.58333 11.3837 7.306 11.791C7.03733 12.1983 6.62567 12.5233 6.071 12.766C5.51633 13.0087 4.84033 13.13 4.043 13.13ZM12.4168 5.33H9.40083V3.9H17.1228V5.33H14.1068V13H12.4168V5.33ZM23.8152 13.13C22.8879 13.13 22.0515 12.9307 21.3062 12.532C20.5609 12.1247 19.9759 11.5657 19.5512 10.855C19.1265 10.1357 18.9142 9.334 18.9142 8.45C18.9142 7.566 19.1265 6.76867 19.5512 6.058C19.9759 5.33867 20.5609 4.77967 21.3062 4.381C22.0515 3.97367 22.8879 3.77 23.8152 3.77C24.7425 3.77 25.5789 3.97367 26.3242 4.381C27.0695 4.77967 27.6545 5.33433 28.0792 6.045C28.5039 6.75567 28.7162 7.55733 28.7162 8.45C28.7162 9.34267 28.5039 10.1443 28.0792 10.855C27.6545 11.5657 27.0695 12.1247 26.3242 12.532C25.5789 12.9307 24.7425 13.13 23.8152 13.13ZM23.8152 11.648C24.4219 11.648 24.9679 11.5137 25.4532 11.245C25.9385 10.9677 26.3199 10.5863 26.5972 10.101C26.8745 9.607 27.0132 9.05667 27.0132 8.45C27.0132 7.84333 26.8745 7.29733 26.5972 6.812C26.3199 6.318 25.9385 5.93667 25.4532 5.668C24.9679 5.39067 24.4219 5.252 23.8152 5.252C23.2085 5.252 22.6625 5.39067 22.1772 5.668C21.6919 5.93667 21.3105 6.318 21.0332 6.812C20.7559 7.29733 20.6172 7.84333 20.6172 8.45C20.6172 9.05667 20.7559 9.607 21.0332 10.101C21.3105 10.5863 21.6919 10.9677 22.1772 11.245C22.6625 11.5137 23.2085 11.648 23.8152 11.648ZM37.7615 13L35.9025 10.335C35.8245 10.3437 35.7075 10.348 35.5515 10.348H33.4975V13H31.8075V3.9H35.5515C36.3402 3.9 37.0249 4.03 37.6055 4.29C38.1949 4.55 38.6455 4.92267 38.9575 5.408C39.2695 5.89333 39.4255 6.46967 39.4255 7.137C39.4255 7.82167 39.2565 8.411 38.9185 8.905C38.5892 9.399 38.1125 9.76733 37.4885 10.01L39.5815 13H37.7615ZM37.7225 7.137C37.7225 6.55633 37.5319 6.11 37.1505 5.798C36.7692 5.486 36.2102 5.33 35.4735 5.33H33.4975V8.957H35.4735C36.2102 8.957 36.7692 8.801 37.1505 8.489C37.5319 8.16833 37.7225 7.71767 37.7225 7.137ZM49.4413 11.583V13H42.6163V3.9H49.2593V5.317H44.3063V7.683H48.7003V9.074H44.3063V11.583H49.4413ZM65.8381 3.9L61.8731 13H60.2091L56.2311 3.9H58.0641L61.0931 10.92L64.1481 3.9H65.8381ZM73.7084 10.894H69.1584L68.2614 13H66.5194L70.6144 3.9H72.2784L76.3864 13H74.6184L73.7084 10.894ZM73.1494 9.568L71.4334 5.59L69.7304 9.568H73.1494ZM78.8437 3.9H80.5337V11.57H85.2917V13H78.8437V3.9ZM91.712 13.13C90.4553 13.13 89.476 12.779 88.774 12.077C88.072 11.3663 87.721 10.3523 87.721 9.035V3.9H89.411V8.97C89.411 10.7553 90.1823 11.648 91.725 11.648C93.259 11.648 94.026 10.7553 94.026 8.97V3.9H95.69V9.035C95.69 10.3523 95.339 11.3663 94.637 12.077C93.9436 12.779 92.9686 13.13 91.712 13.13ZM106.182 11.583V13H99.3568V3.9H106V5.317H101.047V7.683H105.441V9.074H101.047V11.583H106.182Z" fill="white" fill-opacity="0.69"/>
<rect y="28" width="364" height="100" rx="16" fill="#232125"/>
<path d="M48.578 61.098C47.8033 61.098 47.108 60.9347 46.492 60.608C45.876 60.2813 45.3953 59.8287 45.05 59.25C44.7047 58.662 44.532 57.9993 44.532 57.262C44.532 56.5247 44.7047 55.8667 45.05 55.288C45.3953 54.7093 45.8713 54.2567 46.478 53.93C47.094 53.6033 47.794 53.44 48.578 53.44C49.3153 53.44 49.9593 53.5893 50.51 53.888C51.07 54.1867 51.49 54.616 51.77 55.176L50.426 55.96C50.2113 55.6147 49.9407 55.358 49.614 55.19C49.2967 55.0127 48.9467 54.924 48.564 54.924C47.9107 54.924 47.3693 55.1387 46.94 55.568C46.5107 55.988 46.296 56.5527 46.296 57.262C46.296 57.9713 46.506 58.5407 46.926 58.97C47.3553 59.39 47.9013 59.6 48.564 59.6C48.9467 59.6 49.2967 59.516 49.614 59.348C49.9407 59.1707 50.2113 58.9093 50.426 58.564L51.77 59.348C51.4807 59.908 51.056 60.342 50.496 60.65C49.9453 60.9487 49.306 61.098 48.578 61.098ZM53.2144 50.612H54.9644V61H53.2144V50.612ZM57.2613 53.524H59.0113V61H57.2613V53.524ZM58.1433 52.292C57.8259 52.292 57.5599 52.194 57.3453 51.998C57.1306 51.7927 57.0233 51.5407 57.0233 51.242C57.0233 50.9433 57.1306 50.696 57.3453 50.5C57.5599 50.2947 57.8259 50.192 58.1433 50.192C58.4606 50.192 58.7266 50.29 58.9413 50.486C59.1559 50.6727 59.2633 50.9107 59.2633 51.2C59.2633 51.508 59.1559 51.7693 58.9413 51.984C58.7359 52.1893 58.4699 52.292 58.1433 52.292ZM68.3362 57.304C68.3362 57.4253 68.3268 57.598 68.3082 57.822H62.4422C62.5448 58.3727 62.8108 58.8113 63.2402 59.138C63.6788 59.4553 64.2202 59.614 64.8642 59.614C65.6855 59.614 66.3622 59.3433 66.8942 58.802L67.8322 59.88C67.4962 60.2813 67.0715 60.5847 66.5582 60.79C66.0448 60.9953 65.4662 61.098 64.8222 61.098C64.0008 61.098 63.2775 60.9347 62.6522 60.608C62.0268 60.2813 61.5415 59.8287 61.1962 59.25C60.8602 58.662 60.6922 57.9993 60.6922 57.262C60.6922 56.534 60.8555 55.8807 61.1822 55.302C61.5182 54.714 61.9802 54.2567 62.5682 53.93C63.1562 53.6033 63.8188 53.44 64.5562 53.44C65.2842 53.44 65.9328 53.6033 66.5022 53.93C67.0808 54.2473 67.5288 54.7 67.8462 55.288C68.1728 55.8667 68.3362 56.5387 68.3362 57.304ZM64.5562 54.84C63.9962 54.84 63.5202 55.008 63.1282 55.344C62.7455 55.6707 62.5122 56.1093 62.4282 56.66H66.6702C66.5955 56.1187 66.3668 55.68 65.9842 55.344C65.6015 55.008 65.1255 54.84 64.5562 54.84ZM74.2591 53.44C75.2018 53.44 75.9578 53.7153 76.5271 54.266C77.0965 54.8167 77.3811 55.6333 77.3811 56.716V61H75.6311V56.94C75.6311 56.2867 75.4771 55.7967 75.1691 55.47C74.8611 55.134 74.4225 54.966 73.8531 54.966C73.2091 54.966 72.7005 55.162 72.3271 55.554C71.9538 55.9367 71.7671 56.492 71.7671 57.22V61H70.0171V53.524H71.6831V54.49C71.9725 54.1447 72.3365 53.8833 72.7751 53.706C73.2138 53.5287 73.7085 53.44 74.2591 53.44ZM84.0951 60.594C83.8898 60.762 83.6378 60.888 83.3391 60.972C83.0498 61.056 82.7418 61.098 82.4151 61.098C81.5938 61.098 80.9591 60.8833 80.5111 60.454C80.0631 60.0247 79.8391 59.3993 79.8391 58.578V54.98H78.6071V53.58H79.8391V51.872H81.5891V53.58H83.5911V54.98H81.5891V58.536C81.5891 58.9 81.6778 59.18 81.8551 59.376C82.0325 59.5627 82.2891 59.656 82.6251 59.656C83.0171 59.656 83.3438 59.5533 83.6051 59.348L84.0951 60.594ZM84.8105 61H91.8105V62.064H84.8105V61ZM95.4053 61.098C94.7986 61.098 94.2059 61.0187 93.6273 60.86C93.0486 60.7013 92.5866 60.5007 92.2413 60.258L92.9133 58.928C93.2493 59.152 93.6506 59.334 94.1173 59.474C94.5933 59.6047 95.0599 59.67 95.5173 59.67C96.5626 59.67 97.0853 59.3947 97.0853 58.844C97.0853 58.5827 96.9499 58.4007 96.6793 58.298C96.4179 58.1953 95.9933 58.0973 95.4053 58.004C94.7893 57.9107 94.2853 57.8033 93.8933 57.682C93.5106 57.5607 93.1746 57.3507 92.8853 57.052C92.6053 56.744 92.4653 56.3193 92.4653 55.778C92.4653 55.0687 92.7593 54.504 93.3473 54.084C93.9446 53.6547 94.7473 53.44 95.7553 53.44C96.2686 53.44 96.7819 53.5007 97.2953 53.622C97.8086 53.734 98.2286 53.888 98.5553 54.084L97.8833 55.414C97.2486 55.0407 96.5346 54.854 95.7413 54.854C95.2279 54.854 94.8359 54.9333 94.5653 55.092C94.3039 55.2413 94.1733 55.442 94.1733 55.694C94.1733 55.974 94.3133 56.1747 94.5933 56.296C94.8826 56.408 95.3259 56.5153 95.9233 56.618C96.5206 56.7113 97.0106 56.8187 97.3933 56.94C97.7759 57.0613 98.1026 57.2667 98.3733 57.556C98.6533 57.8453 98.7933 58.256 98.7933 58.788C98.7933 59.488 98.4899 60.048 97.8833 60.468C97.2766 60.888 96.4506 61.098 95.4053 61.098ZM103.73 61.098C102.956 61.098 102.26 60.9347 101.644 60.608C101.028 60.2813 100.548 59.8287 100.202 59.25C99.857 58.662 99.6843 57.9993 99.6843 57.262C99.6843 56.5247 99.857 55.8667 100.202 55.288C100.548 54.7093 101.024 54.2567 101.63 53.93C102.246 53.6033 102.946 53.44 103.73 53.44C104.468 53.44 105.112 53.5893 105.662 53.888C106.222 54.1867 106.642 54.616 106.922 55.176L105.578 55.96C105.364 55.6147 105.093 55.358 104.766 55.19C104.449 55.0127 104.099 54.924 103.716 54.924C103.063 54.924 102.522 55.1387 102.092 55.568C101.663 55.988 101.448 56.5527 101.448 57.262C101.448 57.9713 101.658 58.5407 102.078 58.97C102.508 59.39 103.054 59.6 103.716 59.6C104.099 59.6 104.449 59.516 104.766 59.348C105.093 59.1707 105.364 58.9093 105.578 58.564L106.922 59.348C106.633 59.908 106.208 60.342 105.648 60.65C105.098 60.9487 104.458 61.098 103.73 61.098ZM110.101 54.616C110.605 53.832 111.492 53.44 112.761 53.44V55.106C112.612 55.078 112.476 55.064 112.355 55.064C111.674 55.064 111.142 55.2647 110.759 55.666C110.376 56.058 110.185 56.6273 110.185 57.374V61H108.435V53.524H110.101V54.616ZM114.246 53.524H115.996V61H114.246V53.524ZM115.128 52.292C114.81 52.292 114.544 52.194 114.33 51.998C114.115 51.7927 114.008 51.5407 114.008 51.242C114.008 50.9433 114.115 50.696 114.33 50.5C114.544 50.2947 114.81 50.192 115.128 50.192C115.445 50.192 115.711 50.29 115.926 50.486C116.14 50.6727 116.248 50.9107 116.248 51.2C116.248 51.508 116.14 51.7693 115.926 51.984C115.72 52.1893 115.454 52.292 115.128 52.292ZM122.437 53.44C123.165 53.44 123.813 53.5987 124.383 53.916C124.961 54.2333 125.414 54.6813 125.741 55.26C126.067 55.8387 126.231 56.506 126.231 57.262C126.231 58.018 126.067 58.69 125.741 59.278C125.414 59.8567 124.961 60.3047 124.383 60.622C123.813 60.9393 123.165 61.098 122.437 61.098C121.429 61.098 120.631 60.762 120.043 60.09V63.716H118.293V53.524H119.959V54.504C120.248 54.1493 120.603 53.8833 121.023 53.706C121.452 53.5287 121.923 53.44 122.437 53.44ZM122.241 59.6C122.885 59.6 123.412 59.3853 123.823 58.956C124.243 58.5267 124.453 57.962 124.453 57.262C124.453 56.562 124.243 55.9973 123.823 55.568C123.412 55.1387 122.885 54.924 122.241 54.924C121.821 54.924 121.443 55.022 121.107 55.218C120.771 55.4047 120.505 55.6753 120.309 56.03C120.113 56.3847 120.015 56.7953 120.015 57.262C120.015 57.7287 120.113 58.1393 120.309 58.494C120.505 58.8487 120.771 59.124 121.107 59.32C121.443 59.5067 121.821 59.6 122.241 59.6ZM132.384 60.594C132.179 60.762 131.927 60.888 131.628 60.972C131.339 61.056 131.031 61.098 130.704 61.098C129.883 61.098 129.248 60.8833 128.8 60.454C128.352 60.0247 128.128 59.3993 128.128 58.578V54.98H126.896V53.58H128.128V51.872H129.878V53.58H131.88V54.98H129.878V58.536C129.878 58.9 129.967 59.18 130.144 59.376C130.322 59.5627 130.578 59.656 130.914 59.656C131.306 59.656 131.633 59.5533 131.894 59.348L132.384 60.594ZM134.521 61.098C134.203 61.098 133.933 60.9907 133.709 60.776C133.485 60.552 133.373 60.272 133.373 59.936C133.373 59.5907 133.48 59.3107 133.695 59.096C133.919 58.8813 134.194 58.774 134.521 58.774C134.847 58.774 135.118 58.8813 135.333 59.096C135.557 59.3107 135.669 59.5907 135.669 59.936C135.669 60.272 135.557 60.552 135.333 60.776C135.109 60.9907 134.838 61.098 134.521 61.098ZM136.745 63.814C136.008 63.814 135.448 63.6693 135.065 63.38L135.569 62.078C135.831 62.274 136.171 62.372 136.591 62.372C136.918 62.372 137.165 62.2693 137.333 62.064C137.511 61.868 137.599 61.574 137.599 61.182V53.524H139.349V61.14C139.349 61.9707 139.121 62.624 138.663 63.1C138.206 63.576 137.567 63.814 136.745 63.814ZM138.467 52.292C138.15 52.292 137.884 52.194 137.669 51.998C137.455 51.7927 137.347 51.5407 137.347 51.242C137.347 50.9433 137.455 50.696 137.669 50.5C137.884 50.2947 138.15 50.192 138.467 50.192C138.785 50.192 139.051 50.29 139.265 50.486C139.48 50.6727 139.587 50.9107 139.587 51.2C139.587 51.508 139.48 51.7693 139.265 51.984C139.06 52.1893 138.794 52.292 138.467 52.292ZM143.954 61.098C143.347 61.098 142.755 61.0187 142.176 60.86C141.597 60.7013 141.135 60.5007 140.79 60.258L141.462 58.928C141.798 59.152 142.199 59.334 142.666 59.474C143.142 59.6047 143.609 59.67 144.066 59.67C145.111 59.67 145.634 59.3947 145.634 58.844C145.634 58.5827 145.499 58.4007 145.228 58.298C144.967 58.1953 144.542 58.0973 143.954 58.004C143.338 57.9107 142.834 57.8033 142.442 57.682C142.059 57.5607 141.723 57.3507 141.434 57.052C141.154 56.744 141.014 56.3193 141.014 55.778C141.014 55.0687 141.308 54.504 141.896 54.084C142.493 53.6547 143.296 53.44 144.304 53.44C144.817 53.44 145.331 53.5007 145.844 53.622C146.357 53.734 146.777 53.888 147.104 54.084L146.432 55.414C145.797 55.0407 145.083 54.854 144.29 54.854C143.777 54.854 143.385 54.9333 143.114 55.092C142.853 55.2413 142.722 55.442 142.722 55.694C142.722 55.974 142.862 56.1747 143.142 56.296C143.431 56.408 143.875 56.5153 144.472 56.618C145.069 56.7113 145.559 56.8187 145.942 56.94C146.325 57.0613 146.651 57.2667 146.922 57.556C147.202 57.8453 147.342 58.256 147.342 58.788C147.342 59.488 147.039 60.048 146.432 60.468C145.825 60.888 144.999 61.098 143.954 61.098Z" fill="#F4F2FA"/>
<path d="M23.75 63.25H32.25C33.3546 63.25 34.25 62.3546 34.25 61.25V53L30 48.75H23.75C22.6454 48.75 21.75 49.6454 21.75 50.75V61.25C21.75 62.3546 22.6454 63.25 23.75 63.25Z" stroke="#F2F4FA" stroke-opacity="0.69" stroke-width="1.5" stroke-linecap="round" stroke-linejoin="round"/>
<path d="M34 53.25H29.75V49" stroke="#F2F4FA" stroke-opacity="0.69" stroke-width="1.5" stroke-linecap="round" stroke-linejoin="round"/>
<path d="M27.4141 87.9141C27.7344 87.9141 27.9609 87.9727 28.0938 88.0898C28.2266 88.207 28.293 88.4023 28.293 88.6758V92.0742C28.293 92.3477 28.2266 92.543 28.0938 92.6602C27.9609 92.7773 27.7344 92.8359 27.4141 92.8359C27.0938 92.8359 26.8672 92.7773 26.7344 92.6602C26.6016 92.543 26.5352 92.3477 26.5352 92.0742C26.5352 91.5977 26.4102 91.1758 26.1602 90.8086C25.9102 90.4414 25.5352 90.1562 25.0352 89.9531C24.543 89.75 23.9492 89.6484 23.2539 89.6484C22.5039 89.6484 21.832 89.8164 21.2383 90.1523C20.6445 90.4883 20.1797 90.957 19.8438 91.5586C19.5078 92.1602 19.3398 92.8359 19.3398 93.5859C19.3398 94.3438 19.4961 95.0234 19.8086 95.625C20.1289 96.2188 20.5742 96.6836 21.1445 97.0195C21.7227 97.3555 22.3867 97.5234 23.1367 97.5234C23.8555 97.5234 24.5508 97.4141 25.2227 97.1953C25.9023 96.9688 26.5195 96.6445 27.0742 96.2227C27.2383 96.0977 27.3906 96.0352 27.5312 96.0352C27.7578 96.0352 27.9688 96.1953 28.1641 96.5156C28.2812 96.7109 28.3398 96.8984 28.3398 97.0781C28.3398 97.3516 28.2148 97.5781 27.9648 97.7578C27.3398 98.2266 26.6016 98.5938 25.75 98.8594C24.8984 99.125 24.0273 99.2578 23.1367 99.2578C22.0195 99.2578 21.0312 99.0117 20.1719 98.5195C19.3203 98.0273 18.6602 97.3516 18.1914 96.4922C17.7227 95.6328 17.4883 94.6641 17.4883 93.5859C17.4883 92.5078 17.7266 91.5391 18.2031 90.6797C18.6797 89.8203 19.3438 89.1445 20.1953 88.6523C21.0547 88.1602 22.0352 87.9141 23.1367 87.9141C23.832 87.9141 24.4688 88.043 25.0469 88.3008C25.6328 88.5508 26.1289 88.9102 26.5352 89.3789V88.6758C26.5352 88.4023 26.6016 88.207 26.7344 88.0898C26.8672 87.9727 27.0938 87.9141 27.4141 87.9141ZM37.8906 83.625C38.1562 83.625 38.3438 83.6875 38.4531 83.8125C38.5703 83.9297 38.6289 84.1328 38.6289 84.4219V97.4062H42.3906C42.6562 97.4062 42.8438 97.4688 42.9531 97.5938C43.0703 97.7109 43.1289 97.9141 43.1289 98.2031C43.1289 98.4922 43.0703 98.6992 42.9531 98.8242C42.8438 98.9414 42.6562 99 42.3906 99H33.2031C32.9375 99 32.7461 98.9414 32.6289 98.8242C32.5195 98.6992 32.4648 98.4922 32.4648 98.2031C32.4648 97.9141 32.5195 97.7109 32.6289 97.5938C32.7461 97.4688 32.9375 97.4062 33.2031 97.4062H36.8711V85.2188H33.6719C33.4062 85.2188 33.2148 85.1602 33.0977 85.043C32.9883 84.918 32.9336 84.7109 32.9336 84.4219C32.9336 84.1328 32.9883 83.9297 33.0977 83.8125C33.2148 83.6875 33.4062 83.625 33.6719 83.625H37.8906ZM52.3984 88.1719C52.6641 88.1719 52.8516 88.2344 52.9609 88.3594C53.0781 88.4766 53.1367 88.6797 53.1367 88.9688V97.4062H56.8984C57.1641 97.4062 57.3516 97.4688 57.4609 97.5938C57.5781 97.7109 57.6367 97.9141 57.6367 98.2031C57.6367 98.4922 57.5781 98.6992 57.4609 98.8242C57.3516 98.9414 57.1641 99 56.8984 99H47.7109C47.4453 99 47.2539 98.9414 47.1367 98.8242C47.0273 98.6992 46.9727 98.4922 46.9727 98.2031C46.9727 97.9141 47.0273 97.7109 47.1367 97.5938C47.2539 97.4688 47.4453 97.4062 47.7109 97.4062H51.3789V89.7656H48.4141C48.1484 89.7656 47.957 89.707 47.8398 89.5898C47.7305 89.4648 47.6758 89.2578 47.6758 88.9688C47.6758 88.6797 47.7305 88.4766 47.8398 88.3594C47.957 88.2344 48.1484 88.1719 48.4141 88.1719H52.3984ZM52.0234 83.0273C52.4531 83.0273 52.7461 83.0859 52.9023 83.2031C53.0586 83.3125 53.1367 83.5078 53.1367 83.7891V85.3125C53.1367 85.5938 53.0586 85.793 52.9023 85.9102C52.7461 86.0195 52.4531 86.0742 52.0234 86.0742C51.5938 86.0742 51.3008 86.0195 51.1445 85.9102C50.9883 85.793 50.9102 85.5938 50.9102 85.3125V83.7891C50.9102 83.5078 50.9883 83.3125 51.1445 83.2031C51.3008 83.0859 51.5938 83.0273 52.0234 83.0273ZM66.4727 87.9141C67.6055 87.9141 68.5703 88.1445 69.3672 88.6055C70.1719 89.0586 70.7891 89.6914 71.2188 90.5039C71.6484 91.3086 71.8945 92.2383 71.957 93.293C71.957 93.5586 71.8984 93.7461 71.7812 93.8555C71.6719 93.9648 71.4844 94.0195 71.2188 94.0195H62.7344C62.7891 95.1836 63.1328 96.0664 63.7656 96.668C64.4062 97.2617 65.3086 97.5586 66.4727 97.5586C67.1914 97.5586 67.9023 97.4688 68.6055 97.2891C69.3086 97.1016 69.9258 96.8555 70.457 96.5508C70.5898 96.4805 70.7109 96.4453 70.8203 96.4453C71.0938 96.4453 71.3164 96.6523 71.4883 97.0664C71.5586 97.2305 71.5938 97.3789 71.5938 97.5117C71.5938 97.8242 71.4219 98.0664 71.0781 98.2383C70.4766 98.543 69.7656 98.7891 68.9453 98.9766C68.125 99.1641 67.3008 99.2578 66.4727 99.2578C65.293 99.2578 64.2852 99.0312 63.4492 98.5781C62.6133 98.125 61.9766 97.4727 61.5391 96.6211C61.1016 95.7695 60.8828 94.7578 60.8828 93.5859C60.8828 92.4688 61.1211 91.4805 61.5977 90.6211C62.0742 89.7617 62.7344 89.0977 63.5781 88.6289C64.4219 88.1523 65.3867 87.9141 66.4727 87.9141ZM66.4727 89.6133C65.5117 89.6133 64.7148 89.8594 64.082 90.3516C63.457 90.8359 63.0469 91.5117 62.8516 92.3789H70.0117C69.8477 91.4805 69.4688 90.7969 68.875 90.3281C68.2891 89.8516 67.4883 89.6133 66.4727 89.6133ZM82.082 87.9141C82.793 87.9141 83.4102 88.0703 83.9336 88.3828C84.457 88.6875 84.8594 89.1289 85.1406 89.707C85.4219 90.2852 85.5625 90.9609 85.5625 91.7344V97.4062H86.5234C86.7891 97.4062 86.9766 97.4688 87.0859 97.5938C87.2031 97.7109 87.2617 97.9141 87.2617 98.2031C87.2617 98.4922 87.2031 98.6992 87.0859 98.8242C86.9766 98.9414 86.7891 99 86.5234 99H82.7266C82.4609 99 82.2695 98.9414 82.1523 98.8242C82.043 98.6992 81.9883 98.4922 81.9883 98.2031C81.9883 97.9141 82.043 97.7109 82.1523 97.5938C82.2695 97.4688 82.4609 97.4062 82.7266 97.4062H83.8047V91.9102C83.8047 91.2148 83.6445 90.6641 83.3242 90.2578C83.0039 89.8516 82.5312 89.6484 81.9062 89.6484C81.2422 89.6484 80.6211 89.8398 80.043 90.2227C79.4727 90.6055 79.0156 91.1328 78.6719 91.8047C78.3281 92.4766 78.1562 93.2266 78.1562 94.0547V97.4062H79.2344C79.5 97.4062 79.6875 97.4688 79.7969 97.5938C79.9141 97.7109 79.9727 97.9141 79.9727 98.2031C79.9727 98.4922 79.9141 98.6992 79.7969 98.8242C79.6875 98.9414 79.5 99 79.2344 99H75.4375C75.1719 99 74.9805 98.9414 74.8633 98.8242C74.7539 98.6992 74.6992 98.4922 74.6992 98.2031C74.6992 97.9141 74.7539 97.7109 74.8633 97.5938C74.9805 97.4688 75.1719 97.4062 75.4375 97.4062H76.3984V89.7656H75.2031C74.9375 89.7656 74.7461 89.707 74.6289 89.5898C74.5195 89.4648 74.4648 89.2578 74.4648 88.9688C74.4648 88.6797 74.5195 88.4766 74.6289 88.3594C74.7461 88.2344 74.9375 88.1719 75.2031 88.1719H77.3008C77.5664 88.1719 77.7539 88.2344 77.8633 88.3594C77.9805 88.4766 78.0391 88.6797 78.0391 88.9688V90.375C78.5547 89.5781 79.1562 88.9688 79.8438 88.5469C80.5391 88.125 81.2852 87.9141 82.082 87.9141ZM93.3203 84.832C93.6406 84.832 93.8672 84.8906 94 85.0078C94.1328 85.125 94.1992 85.3203 94.1992 85.5938V89.1094H99.0156C99.2812 89.1094 99.4688 89.1719 99.5781 89.2969C99.6953 89.4141 99.7539 89.6172 99.7539 89.9062C99.7539 90.1953 99.6953 90.4023 99.5781 90.5273C99.4688 90.6445 99.2812 90.7031 99.0156 90.7031H94.1992V94.9688C94.1992 95.8594 94.3516 96.5117 94.6562 96.9258C94.9688 97.3398 95.5078 97.5469 96.2734 97.5469C96.7969 97.5469 97.3477 97.4414 97.9258 97.2305C98.5039 97.0195 99.0625 96.7383 99.6016 96.3867C99.7109 96.3086 99.832 96.2695 99.9648 96.2695C100.23 96.2695 100.457 96.4492 100.645 96.8086C100.746 97.0117 100.797 97.1875 100.797 97.3359C100.797 97.5859 100.668 97.7891 100.41 97.9453C99.8008 98.3281 99.1211 98.6445 98.3711 98.8945C97.6211 99.1367 96.9219 99.2578 96.2734 99.2578C94.9453 99.2578 93.9727 98.9141 93.3555 98.2266C92.7461 97.5312 92.4414 96.4961 92.4414 95.1211V90.7031H90.0625C89.7969 90.7031 89.6055 90.6445 89.4883 90.5273C89.3789 90.4023 89.3242 90.1953 89.3242 89.9062C89.3242 89.6172 89.3789 89.4141 89.4883 89.2969C89.6055 89.1719 89.7969 89.1094 90.0625 89.1094H92.4414V85.5938C92.4414 85.3203 92.5078 85.125 92.6406 85.0078C92.7734 84.8906 93 84.832 93.3203 84.832Z" fill="#BBBBFF"/>
<path d="M128.395 89.0391C128.66 89.0391 128.848 89.1016 128.957 89.2266C129.074 89.3438 129.133 89.5469 129.133 89.8359C129.133 90.125 129.074 90.332 128.957 90.457C128.848 90.5742 128.66 90.6328 128.395 90.6328H119.465C119.199 90.6328 119.008 90.5742 118.891 90.457C118.781 90.332 118.727 90.125 118.727 89.8359C118.727 89.5469 118.781 89.3438 118.891 89.2266C119.008 89.1016 119.199 89.0391 119.465 89.0391H128.395ZM128.395 93.7266C128.66 93.7266 128.848 93.7891 128.957 93.9141C129.074 94.0312 129.133 94.2344 129.133 94.5234C129.133 94.8125 129.074 95.0195 128.957 95.1445C128.848 95.2617 128.66 95.3203 128.395 95.3203H119.465C119.199 95.3203 119.008 95.2617 118.891 95.1445C118.781 95.0195 118.727 94.8125 118.727 94.5234C118.727 94.2344 118.781 94.0312 118.891 93.9141C119.008 93.7891 119.199 93.7266 119.465 93.7266H128.395ZM150.883 90.1875C150.75 90.1875 150.645 90.1523 150.566 90.082C150.496 90.0117 150.461 89.918 150.461 89.8008C150.461 89.707 150.492 89.5898 150.555 89.4492L153.133 84.1875C153.305 83.8516 153.594 83.6836 154 83.6836C154.227 83.6836 154.406 83.7383 154.539 83.8477C154.68 83.957 154.75 84.1055 154.75 84.293C154.75 84.332 154.742 84.3984 154.727 84.4922L153.543 89.7188C153.473 90.0312 153.27 90.1875 152.934 90.1875H150.883ZM173.676 88.1719C173.941 88.1719 174.129 88.2344 174.238 88.3594C174.355 88.4766 174.414 88.6797 174.414 88.9688C174.414 89.2578 174.355 89.4648 174.238 89.5898C174.129 89.707 173.941 89.7656 173.676 89.7656H173.395L171.086 98.4961C171.008 98.7773 170.891 98.9727 170.734 99.082C170.586 99.1992 170.363 99.2578 170.066 99.2578C169.73 99.2578 169.465 99.1953 169.27 99.0703C169.082 98.9531 168.941 98.7617 168.848 98.4961L167.055 93.4102L165.238 98.4961C165.145 98.7617 164.996 98.9531 164.793 99.0703C164.598 99.1953 164.332 99.2578 163.996 99.2578C163.699 99.2578 163.477 99.1992 163.328 99.082C163.18 98.9727 163.07 98.7773 163 98.4961L160.738 89.7656H160.527C160.262 89.7656 160.07 89.707 159.953 89.5898C159.844 89.4648 159.789 89.2578 159.789 88.9688C159.789 88.6797 159.844 88.4766 159.953 88.3594C160.07 88.2344 160.262 88.1719 160.527 88.1719H163.973C164.238 88.1719 164.426 88.2344 164.535 88.3594C164.652 88.4766 164.711 88.6797 164.711 88.9688C164.711 89.2578 164.652 89.4648 164.535 89.5898C164.426 89.707 164.238 89.7656 163.973 89.7656H162.531L164.219 96.5859L166.176 91.1484C166.23 90.9844 166.332 90.8516 166.48 90.75C166.629 90.6484 166.824 90.5977 167.066 90.5977C167.559 90.5977 167.859 90.7539 167.969 91.0664L169.914 96.5859L171.648 89.7656H170.465C170.199 89.7656 170.008 89.707 169.891 89.5898C169.781 89.4648 169.727 89.2578 169.727 88.9688C169.727 88.6797 169.781 88.4766 169.891 88.3594C170.008 88.2344 170.199 88.1719 170.465 88.1719H173.676ZM178.035 83.625C178.301 83.625 178.488 83.6875 178.598 83.8125C178.715 83.9297 178.773 84.1328 178.773 84.4219V90.2578C179.281 89.5 179.867 88.9219 180.531 88.5234C181.203 88.1172 181.926 87.9141 182.699 87.9141C183.41 87.9141 184.027 88.0703 184.551 88.3828C185.074 88.6875 185.477 89.1289 185.758 89.707C186.039 90.2852 186.18 90.9609 186.18 91.7344V97.4062H187.141C187.406 97.4062 187.594 97.4688 187.703 97.5938C187.82 97.7109 187.879 97.9141 187.879 98.2031C187.879 98.4922 187.82 98.6992 187.703 98.8242C187.594 98.9414 187.406 99 187.141 99H183.344C183.078 99 182.887 98.9414 182.77 98.8242C182.66 98.6992 182.605 98.4922 182.605 98.2031C182.605 97.9141 182.66 97.7109 182.77 97.5938C182.887 97.4688 183.078 97.4062 183.344 97.4062H184.422V91.9102C184.422 91.2148 184.262 90.6641 183.941 90.2578C183.621 89.8516 183.148 89.6484 182.523 89.6484C181.859 89.6484 181.238 89.8398 180.66 90.2227C180.09 90.6055 179.633 91.1328 179.289 91.8047C178.945 92.4766 178.773 93.2266 178.773 94.0547V97.4062H179.852C180.117 97.4062 180.305 97.4688 180.414 97.5938C180.531 97.7109 180.59 97.9141 180.59 98.2031C180.59 98.4922 180.531 98.6992 180.414 98.8242C180.305 98.9414 180.117 99 179.852 99H176.055C175.789 99 175.598 98.9414 175.48 98.8242C175.371 98.6992 175.316 98.4922 175.316 98.2031C175.316 97.9141 175.371 97.7109 175.48 97.5938C175.598 97.4688 175.789 97.4062 176.055 97.4062H177.016V85.2188H175.938C175.672 85.2188 175.48 85.1602 175.363 85.043C175.254 84.918 175.199 84.7109 175.199 84.4219C175.199 84.1328 175.254 83.9297 175.363 83.8125C175.48 83.6875 175.672 83.625 175.938 83.625H178.035ZM195.93 87.9141C197.398 87.9141 198.5 88.2422 199.234 88.8984C199.969 89.5547 200.336 90.5273 200.336 91.8164V96.4805C200.336 97.0977 200.594 97.4062 201.109 97.4062H201.52C201.785 97.4062 201.973 97.4688 202.082 97.5938C202.199 97.7109 202.258 97.9141 202.258 98.2031C202.258 98.4922 202.199 98.6992 202.082 98.8242C201.973 98.9414 201.785 99 201.52 99H200.77C200.262 99 199.824 98.875 199.457 98.625C199.098 98.3672 198.863 97.9922 198.754 97.5C198.113 98.0625 197.418 98.4961 196.668 98.8008C195.926 99.1055 195.137 99.2578 194.301 99.2578C193.512 99.2578 192.812 99.125 192.203 98.8594C191.602 98.5859 191.129 98.1914 190.785 97.6758C190.441 97.1602 190.27 96.5469 190.27 95.8359C190.27 94.6016 190.711 93.6914 191.594 93.1055C192.477 92.5117 193.617 92.2148 195.016 92.2148C196.258 92.2148 197.445 92.4141 198.578 92.8125V91.8164C198.578 91.0586 198.363 90.5039 197.934 90.1523C197.512 89.793 196.828 89.6133 195.883 89.6133C195.297 89.6133 194.688 89.6953 194.055 89.8594C193.422 90.0234 192.82 90.25 192.25 90.5391C192.117 90.6094 191.996 90.6445 191.887 90.6445C191.629 90.6445 191.414 90.457 191.242 90.082C191.156 89.8945 191.113 89.7383 191.113 89.6133C191.113 89.3398 191.258 89.1289 191.547 88.9805C192.203 88.6367 192.906 88.375 193.656 88.1953C194.414 88.0078 195.172 87.9141 195.93 87.9141ZM195.027 93.8672C194.129 93.8672 193.418 94.0234 192.895 94.3359C192.379 94.6406 192.121 95.1289 192.121 95.8008C192.121 96.3711 192.316 96.8164 192.707 97.1367C193.105 97.4492 193.66 97.6055 194.371 97.6055C195.926 97.6055 197.328 96.9609 198.578 95.6719V94.3945C198.047 94.2227 197.477 94.0938 196.867 94.0078C196.258 93.9141 195.645 93.8672 195.027 93.8672ZM208.445 84.832C208.766 84.832 208.992 84.8906 209.125 85.0078C209.258 85.125 209.324 85.3203 209.324 85.5938V89.1094H214.141C214.406 89.1094 214.594 89.1719 214.703 89.2969C214.82 89.4141 214.879 89.6172 214.879 89.9062C214.879 90.1953 214.82 90.4023 214.703 90.5273C214.594 90.6445 214.406 90.7031 214.141 90.7031H209.324V94.9688C209.324 95.8594 209.477 96.5117 209.781 96.9258C210.094 97.3398 210.633 97.5469 211.398 97.5469C211.922 97.5469 212.473 97.4414 213.051 97.2305C213.629 97.0195 214.188 96.7383 214.727 96.3867C214.836 96.3086 214.957 96.2695 215.09 96.2695C215.355 96.2695 215.582 96.4492 215.77 96.8086C215.871 97.0117 215.922 97.1875 215.922 97.3359C215.922 97.5859 215.793 97.7891 215.535 97.9453C214.926 98.3281 214.246 98.6445 213.496 98.8945C212.746 99.1367 212.047 99.2578 211.398 99.2578C210.07 99.2578 209.098 98.9141 208.48 98.2266C207.871 97.5312 207.566 96.4961 207.566 95.1211V90.7031H205.188C204.922 90.7031 204.73 90.6445 204.613 90.5273C204.504 90.4023 204.449 90.1953 204.449 89.9062C204.449 89.6172 204.504 89.4141 204.613 89.2969C204.73 89.1719 204.922 89.1094 205.188 89.1094H207.566V85.5938C207.566 85.3203 207.633 85.125 207.766 85.0078C207.898 84.8906 208.125 84.832 208.445 84.832ZM224.77 87.9141C225.902 87.9141 226.867 88.1445 227.664 88.6055C228.469 89.0586 229.086 89.6914 229.516 90.5039C229.945 91.3086 230.191 92.2383 230.254 93.293C230.254 93.5586 230.195 93.7461 230.078 93.8555C229.969 93.9648 229.781 94.0195 229.516 94.0195H221.031C221.086 95.1836 221.43 96.0664 222.062 96.668C222.703 97.2617 223.605 97.5586 224.77 97.5586C225.488 97.5586 226.199 97.4688 226.902 97.2891C227.605 97.1016 228.223 96.8555 228.754 96.5508C228.887 96.4805 229.008 96.4453 229.117 96.4453C229.391 96.4453 229.613 96.6523 229.785 97.0664C229.855 97.2305 229.891 97.3789 229.891 97.5117C229.891 97.8242 229.719 98.0664 229.375 98.2383C228.773 98.543 228.062 98.7891 227.242 98.9766C226.422 99.1641 225.598 99.2578 224.77 99.2578C223.59 99.2578 222.582 99.0312 221.746 98.5781C220.91 98.125 220.273 97.4727 219.836 96.6211C219.398 95.7695 219.18 94.7578 219.18 93.5859C219.18 92.4688 219.418 91.4805 219.895 90.6211C220.371 89.7617 221.031 89.0977 221.875 88.6289C222.719 88.1523 223.684 87.9141 224.77 87.9141ZM224.77 89.6133C223.809 89.6133 223.012 89.8594 222.379 90.3516C221.754 90.8359 221.344 91.5117 221.148 92.3789H228.309C228.145 91.4805 227.766 90.7969 227.172 90.3281C226.586 89.8516 225.785 89.6133 224.77 89.6133ZM244.926 88.1719C245.191 88.1719 245.379 88.2344 245.488 88.3594C245.605 88.4766 245.664 88.6797 245.664 88.9688C245.664 89.2578 245.605 89.4648 245.488 89.5898C245.379 89.707 245.191 89.7656 244.926 89.7656H244.188L240.402 98.4961C240.293 98.7617 240.129 98.9531 239.91 99.0703C239.699 99.1953 239.402 99.2578 239.02 99.2578C238.645 99.2578 238.352 99.1953 238.141 99.0703C237.938 98.9531 237.777 98.7617 237.66 98.4961L233.91 89.7656H233.184C232.918 89.7656 232.727 89.707 232.609 89.5898C232.5 89.4648 232.445 89.2578 232.445 88.9688C232.445 88.6797 232.5 88.4766 232.609 88.3594C232.727 88.2344 232.918 88.1719 233.184 88.1719H237.332C237.598 88.1719 237.785 88.2344 237.895 88.3594C238.012 88.4766 238.07 88.6797 238.07 88.9688C238.07 89.2578 238.012 89.4648 237.895 89.5898C237.785 89.707 237.598 89.7656 237.332 89.7656H235.832L239.031 97.4062L242.266 89.7656H241.246C240.98 89.7656 240.789 89.707 240.672 89.5898C240.562 89.4648 240.508 89.2578 240.508 88.9688C240.508 88.6797 240.562 88.4766 240.672 88.3594C240.789 88.2344 240.98 88.1719 241.246 88.1719H244.926ZM253.551 87.9141C254.684 87.9141 255.648 88.1445 256.445 88.6055C257.25 89.0586 257.867 89.6914 258.297 90.5039C258.727 91.3086 258.973 92.2383 259.035 93.293C259.035 93.5586 258.977 93.7461 258.859 93.8555C258.75 93.9648 258.562 94.0195 258.297 94.0195H249.812C249.867 95.1836 250.211 96.0664 250.844 96.668C251.484 97.2617 252.387 97.5586 253.551 97.5586C254.27 97.5586 254.98 97.4688 255.684 97.2891C256.387 97.1016 257.004 96.8555 257.535 96.5508C257.668 96.4805 257.789 96.4453 257.898 96.4453C258.172 96.4453 258.395 96.6523 258.566 97.0664C258.637 97.2305 258.672 97.3789 258.672 97.5117C258.672 97.8242 258.5 98.0664 258.156 98.2383C257.555 98.543 256.844 98.7891 256.023 98.9766C255.203 99.1641 254.379 99.2578 253.551 99.2578C252.371 99.2578 251.363 99.0312 250.527 98.5781C249.691 98.125 249.055 97.4727 248.617 96.6211C248.18 95.7695 247.961 94.7578 247.961 93.5859C247.961 92.4688 248.199 91.4805 248.676 90.6211C249.152 89.7617 249.812 89.0977 250.656 88.6289C251.5 88.1523 252.465 87.9141 253.551 87.9141ZM253.551 89.6133C252.59 89.6133 251.793 89.8594 251.16 90.3516C250.535 90.8359 250.125 91.5117 249.93 92.3789H257.09C256.926 91.4805 256.547 90.7969 255.953 90.3281C255.367 89.8516 254.566 89.6133 253.551 89.6133ZM271.422 87.9141C272.031 87.9141 272.602 88.0703 273.133 88.3828C273.445 88.5703 273.602 88.8125 273.602 89.1094C273.602 89.25 273.566 89.4141 273.496 89.6016C273.332 90.0469 273.105 90.2695 272.816 90.2695C272.699 90.2695 272.59 90.2383 272.488 90.1758C272.105 89.9648 271.695 89.8594 271.258 89.8594C270.555 89.8594 269.848 90.1055 269.137 90.5977C268.426 91.082 267.84 91.7305 267.379 92.543C266.926 93.3555 266.699 94.2188 266.699 95.1328V97.4062H270.648C270.914 97.4062 271.102 97.4688 271.211 97.5938C271.328 97.7109 271.387 97.9141 271.387 98.2031C271.387 98.4922 271.328 98.6992 271.211 98.8242C271.102 98.9414 270.914 99 270.648 99H263.102C262.836 99 262.645 98.9414 262.527 98.8242C262.418 98.6992 262.363 98.4922 262.363 98.2031C262.363 97.9141 262.418 97.7109 262.527 97.5938C262.645 97.4688 262.836 97.4062 263.102 97.4062H264.941V89.7656H263.453C263.188 89.7656 262.996 89.707 262.879 89.5898C262.77 89.4648 262.715 89.2578 262.715 88.9688C262.715 88.6797 262.77 88.4766 262.879 88.3594C262.996 88.2344 263.188 88.1719 263.453 88.1719H265.844C266.109 88.1719 266.297 88.2344 266.406 88.3594C266.523 88.4766 266.582 88.6797 266.582 88.9688V91.3359C266.957 90.6484 267.41 90.0469 267.941 89.5312C268.473 89.0156 269.039 88.6172 269.641 88.3359C270.242 88.0547 270.836 87.9141 271.422 87.9141ZM284.02 84.1289C284.152 84.1289 284.254 84.1641 284.324 84.2344C284.402 84.3047 284.441 84.3984 284.441 84.5156C284.441 84.6094 284.41 84.7266 284.348 84.8672L281.77 90.1289C281.605 90.4648 281.316 90.6328 280.902 90.6328C280.676 90.6328 280.492 90.5781 280.352 90.4688C280.219 90.3594 280.152 90.2109 280.152 90.0234C280.152 89.9844 280.16 89.918 280.176 89.8242L281.359 84.5977C281.43 84.2852 281.633 84.1289 281.969 84.1289H284.02Z" fill="#F2F6FA"/>
</svg>
