<svg width="377" height="128" viewBox="0 0 377 128" fill="none" xmlns="http://www.w3.org/2000/svg">
<path d="M4.043 13.13C3.341 13.13 2.66067 13.0303 2.002 12.831C1.352 12.6317 0.836333 12.3673 0.455 12.038L1.04 10.725C1.41267 11.0197 1.86767 11.2623 2.405 11.453C2.951 11.635 3.497 11.726 4.043 11.726C4.719 11.726 5.22167 11.6177 5.551 11.401C5.889 11.1843 6.058 10.8983 6.058 10.543C6.058 10.283 5.96267 10.0707 5.772 9.906C5.59 9.73267 5.356 9.59833 5.07 9.503C4.784 9.40767 4.394 9.29933 3.9 9.178C3.20667 9.01333 2.64333 8.84867 2.21 8.684C1.78533 8.51933 1.417 8.26367 1.105 7.917C0.801667 7.56167 0.65 7.085 0.65 6.487C0.65 5.98433 0.784333 5.52933 1.053 5.122C1.33033 4.706 1.742 4.37667 2.288 4.134C2.84267 3.89133 3.51867 3.77 4.316 3.77C4.87067 3.77 5.41667 3.83933 5.954 3.978C6.49133 4.11667 6.955 4.316 7.345 4.576L6.812 5.889C6.41333 5.655 5.99733 5.47733 5.564 5.356C5.13067 5.23467 4.71033 5.174 4.303 5.174C3.63567 5.174 3.13733 5.28667 2.808 5.512C2.48733 5.73733 2.327 6.03633 2.327 6.409C2.327 6.669 2.418 6.88133 2.6 7.046C2.79067 7.21067 3.029 7.34067 3.315 7.436C3.601 7.53133 3.991 7.63967 4.485 7.761C5.161 7.917 5.71567 8.08167 6.149 8.255C6.58233 8.41967 6.95067 8.67533 7.254 9.022C7.566 9.36867 7.722 9.83667 7.722 10.426C7.722 10.9287 7.58333 11.3837 7.306 11.791C7.03733 12.1983 6.62567 12.5233 6.071 12.766C5.51633 13.0087 4.84033 13.13 4.043 13.13ZM12.4168 5.33H9.40083V3.9H17.1228V5.33H14.1068V13H12.4168V5.33ZM23.8152 13.13C22.8879 13.13 22.0515 12.9307 21.3062 12.532C20.5609 12.1247 19.9759 11.5657 19.5512 10.855C19.1265 10.1357 18.9142 9.334 18.9142 8.45C18.9142 7.566 19.1265 6.76867 19.5512 6.058C19.9759 5.33867 20.5609 4.77967 21.3062 4.381C22.0515 3.97367 22.8879 3.77 23.8152 3.77C24.7425 3.77 25.5789 3.97367 26.3242 4.381C27.0695 4.77967 27.6545 5.33433 28.0792 6.045C28.5039 6.75567 28.7162 7.55733 28.7162 8.45C28.7162 9.34267 28.5039 10.1443 28.0792 10.855C27.6545 11.5657 27.0695 12.1247 26.3242 12.532C25.5789 12.9307 24.7425 13.13 23.8152 13.13ZM23.8152 11.648C24.4219 11.648 24.9679 11.5137 25.4532 11.245C25.9385 10.9677 26.3199 10.5863 26.5972 10.101C26.8745 9.607 27.0132 9.05667 27.0132 8.45C27.0132 7.84333 26.8745 7.29733 26.5972 6.812C26.3199 6.318 25.9385 5.93667 25.4532 5.668C24.9679 5.39067 24.4219 5.252 23.8152 5.252C23.2085 5.252 22.6625 5.39067 22.1772 5.668C21.6919 5.93667 21.3105 6.318 21.0332 6.812C20.7559 7.29733 20.6172 7.84333 20.6172 8.45C20.6172 9.05667 20.7559 9.607 21.0332 10.101C21.3105 10.5863 21.6919 10.9677 22.1772 11.245C22.6625 11.5137 23.2085 11.648 23.8152 11.648ZM37.7615 13L35.9025 10.335C35.8245 10.3437 35.7075 10.348 35.5515 10.348H33.4975V13H31.8075V3.9H35.5515C36.3402 3.9 37.0249 4.03 37.6055 4.29C38.1949 4.55 38.6455 4.92267 38.9575 5.408C39.2695 5.89333 39.4255 6.46967 39.4255 7.137C39.4255 7.82167 39.2565 8.411 38.9185 8.905C38.5892 9.399 38.1125 9.76733 37.4885 10.01L39.5815 13H37.7615ZM37.7225 7.137C37.7225 6.55633 37.5319 6.11 37.1505 5.798C36.7692 5.486 36.2102 5.33 35.4735 5.33H33.4975V8.957H35.4735C36.2102 8.957 36.7692 8.801 37.1505 8.489C37.5319 8.16833 37.7225 7.71767 37.7225 7.137ZM49.4413 11.583V13H42.6163V3.9H49.2593V5.317H44.3063V7.683H48.7003V9.074H44.3063V11.583H49.4413ZM65.8381 3.9L61.8731 13H60.2091L56.2311 3.9H58.0641L61.0931 10.92L64.1481 3.9H65.8381ZM73.7084 10.894H69.1584L68.2614 13H66.5194L70.6144 3.9H72.2784L76.3864 13H74.6184L73.7084 10.894ZM73.1494 9.568L71.4334 5.59L69.7304 9.568H73.1494ZM78.8437 3.9H80.5337V11.57H85.2917V13H78.8437V3.9ZM91.712 13.13C90.4553 13.13 89.476 12.779 88.774 12.077C88.072 11.3663 87.721 10.3523 87.721 9.035V3.9H89.411V8.97C89.411 10.7553 90.1823 11.648 91.725 11.648C93.259 11.648 94.026 10.7553 94.026 8.97V3.9H95.69V9.035C95.69 10.3523 95.339 11.3663 94.637 12.077C93.9436 12.779 92.9686 13.13 91.712 13.13ZM106.182 11.583V13H99.3568V3.9H106V5.317H101.047V7.683H105.441V9.074H101.047V11.583H106.182Z" fill="white" fill-opacity="0.69"/>
<rect y="28" width="364" height="100" rx="16" fill="#232125"/>
<path d="M48.578 61.098C47.8033 61.098 47.108 60.9347 46.492 60.608C45.876 60.2813 45.3953 59.8287 45.05 59.25C44.7047 58.662 44.532 57.9993 44.532 57.262C44.532 56.5247 44.7047 55.8667 45.05 55.288C45.3953 54.7093 45.8713 54.2567 46.478 53.93C47.094 53.6033 47.794 53.44 48.578 53.44C49.3153 53.44 49.9593 53.5893 50.51 53.888C51.07 54.1867 51.49 54.616 51.77 55.176L50.426 55.96C50.2113 55.6147 49.9407 55.358 49.614 55.19C49.2967 55.0127 48.9467 54.924 48.564 54.924C47.9107 54.924 47.3693 55.1387 46.94 55.568C46.5107 55.988 46.296 56.5527 46.296 57.262C46.296 57.9713 46.506 58.5407 46.926 58.97C47.3553 59.39 47.9013 59.6 48.564 59.6C48.9467 59.6 49.2967 59.516 49.614 59.348C49.9407 59.1707 50.2113 58.9093 50.426 58.564L51.77 59.348C51.4807 59.908 51.056 60.342 50.496 60.65C49.9453 60.9487 49.306 61.098 48.578 61.098ZM53.2144 50.612H54.9644V61H53.2144V50.612ZM57.2613 53.524H59.0113V61H57.2613V53.524ZM58.1433 52.292C57.8259 52.292 57.5599 52.194 57.3453 51.998C57.1306 51.7927 57.0233 51.5407 57.0233 51.242C57.0233 50.9433 57.1306 50.696 57.3453 50.5C57.5599 50.2947 57.8259 50.192 58.1433 50.192C58.4606 50.192 58.7266 50.29 58.9413 50.486C59.1559 50.6727 59.2633 50.9107 59.2633 51.2C59.2633 51.508 59.1559 51.7693 58.9413 51.984C58.7359 52.1893 58.4699 52.292 58.1433 52.292ZM68.3362 57.304C68.3362 57.4253 68.3268 57.598 68.3082 57.822H62.4422C62.5448 58.3727 62.8108 58.8113 63.2402 59.138C63.6788 59.4553 64.2202 59.614 64.8642 59.614C65.6855 59.614 66.3622 59.3433 66.8942 58.802L67.8322 59.88C67.4962 60.2813 67.0715 60.5847 66.5582 60.79C66.0448 60.9953 65.4662 61.098 64.8222 61.098C64.0008 61.098 63.2775 60.9347 62.6522 60.608C62.0268 60.2813 61.5415 59.8287 61.1962 59.25C60.8602 58.662 60.6922 57.9993 60.6922 57.262C60.6922 56.534 60.8555 55.8807 61.1822 55.302C61.5182 54.714 61.9802 54.2567 62.5682 53.93C63.1562 53.6033 63.8188 53.44 64.5562 53.44C65.2842 53.44 65.9328 53.6033 66.5022 53.93C67.0808 54.2473 67.5288 54.7 67.8462 55.288C68.1728 55.8667 68.3362 56.5387 68.3362 57.304ZM64.5562 54.84C63.9962 54.84 63.5202 55.008 63.1282 55.344C62.7455 55.6707 62.5122 56.1093 62.4282 56.66H66.6702C66.5955 56.1187 66.3668 55.68 65.9842 55.344C65.6015 55.008 65.1255 54.84 64.5562 54.84ZM74.2591 53.44C75.2018 53.44 75.9578 53.7153 76.5271 54.266C77.0965 54.8167 77.3811 55.6333 77.3811 56.716V61H75.6311V56.94C75.6311 56.2867 75.4771 55.7967 75.1691 55.47C74.8611 55.134 74.4225 54.966 73.8531 54.966C73.2091 54.966 72.7005 55.162 72.3271 55.554C71.9538 55.9367 71.7671 56.492 71.7671 57.22V61H70.0171V53.524H71.6831V54.49C71.9725 54.1447 72.3365 53.8833 72.7751 53.706C73.2138 53.5287 73.7085 53.44 74.2591 53.44ZM84.0951 60.594C83.8898 60.762 83.6378 60.888 83.3391 60.972C83.0498 61.056 82.7418 61.098 82.4151 61.098C81.5938 61.098 80.9591 60.8833 80.5111 60.454C80.0631 60.0247 79.8391 59.3993 79.8391 58.578V54.98H78.6071V53.58H79.8391V51.872H81.5891V53.58H83.5911V54.98H81.5891V58.536C81.5891 58.9 81.6778 59.18 81.8551 59.376C82.0325 59.5627 82.2891 59.656 82.6251 59.656C83.0171 59.656 83.3438 59.5533 83.6051 59.348L84.0951 60.594ZM84.8105 61H91.8105V62.064H84.8105V61ZM95.4053 61.098C94.7986 61.098 94.2059 61.0187 93.6273 60.86C93.0486 60.7013 92.5866 60.5007 92.2413 60.258L92.9133 58.928C93.2493 59.152 93.6506 59.334 94.1173 59.474C94.5933 59.6047 95.0599 59.67 95.5173 59.67C96.5626 59.67 97.0853 59.3947 97.0853 58.844C97.0853 58.5827 96.9499 58.4007 96.6793 58.298C96.4179 58.1953 95.9933 58.0973 95.4053 58.004C94.7893 57.9107 94.2853 57.8033 93.8933 57.682C93.5106 57.5607 93.1746 57.3507 92.8853 57.052C92.6053 56.744 92.4653 56.3193 92.4653 55.778C92.4653 55.0687 92.7593 54.504 93.3473 54.084C93.9446 53.6547 94.7473 53.44 95.7553 53.44C96.2686 53.44 96.7819 53.5007 97.2953 53.622C97.8086 53.734 98.2286 53.888 98.5553 54.084L97.8833 55.414C97.2486 55.0407 96.5346 54.854 95.7413 54.854C95.2279 54.854 94.8359 54.9333 94.5653 55.092C94.3039 55.2413 94.1733 55.442 94.1733 55.694C94.1733 55.974 94.3133 56.1747 94.5933 56.296C94.8826 56.408 95.3259 56.5153 95.9233 56.618C96.5206 56.7113 97.0106 56.8187 97.3933 56.94C97.7759 57.0613 98.1026 57.2667 98.3733 57.556C98.6533 57.8453 98.7933 58.256 98.7933 58.788C98.7933 59.488 98.4899 60.048 97.8833 60.468C97.2766 60.888 96.4506 61.098 95.4053 61.098ZM103.73 61.098C102.956 61.098 102.26 60.9347 101.644 60.608C101.028 60.2813 100.548 59.8287 100.202 59.25C99.857 58.662 99.6843 57.9993 99.6843 57.262C99.6843 56.5247 99.857 55.8667 100.202 55.288C100.548 54.7093 101.024 54.2567 101.63 53.93C102.246 53.6033 102.946 53.44 103.73 53.44C104.468 53.44 105.112 53.5893 105.662 53.888C106.222 54.1867 106.642 54.616 106.922 55.176L105.578 55.96C105.364 55.6147 105.093 55.358 104.766 55.19C104.449 55.0127 104.099 54.924 103.716 54.924C103.063 54.924 102.522 55.1387 102.092 55.568C101.663 55.988 101.448 56.5527 101.448 57.262C101.448 57.9713 101.658 58.5407 102.078 58.97C102.508 59.39 103.054 59.6 103.716 59.6C104.099 59.6 104.449 59.516 104.766 59.348C105.093 59.1707 105.364 58.9093 105.578 58.564L106.922 59.348C106.633 59.908 106.208 60.342 105.648 60.65C105.098 60.9487 104.458 61.098 103.73 61.098ZM110.101 54.616C110.605 53.832 111.492 53.44 112.761 53.44V55.106C112.612 55.078 112.476 55.064 112.355 55.064C111.674 55.064 111.142 55.2647 110.759 55.666C110.376 56.058 110.185 56.6273 110.185 57.374V61H108.435V53.524H110.101V54.616ZM114.246 53.524H115.996V61H114.246V53.524ZM115.128 52.292C114.81 52.292 114.544 52.194 114.33 51.998C114.115 51.7927 114.008 51.5407 114.008 51.242C114.008 50.9433 114.115 50.696 114.33 50.5C114.544 50.2947 114.81 50.192 115.128 50.192C115.445 50.192 115.711 50.29 115.926 50.486C116.14 50.6727 116.248 50.9107 116.248 51.2C116.248 51.508 116.14 51.7693 115.926 51.984C115.72 52.1893 115.454 52.292 115.128 52.292ZM122.437 53.44C123.165 53.44 123.813 53.5987 124.383 53.916C124.961 54.2333 125.414 54.6813 125.741 55.26C126.067 55.8387 126.231 56.506 126.231 57.262C126.231 58.018 126.067 58.69 125.741 59.278C125.414 59.8567 124.961 60.3047 124.383 60.622C123.813 60.9393 123.165 61.098 122.437 61.098C121.429 61.098 120.631 60.762 120.043 60.09V63.716H118.293V53.524H119.959V54.504C120.248 54.1493 120.603 53.8833 121.023 53.706C121.452 53.5287 121.923 53.44 122.437 53.44ZM122.241 59.6C122.885 59.6 123.412 59.3853 123.823 58.956C124.243 58.5267 124.453 57.962 124.453 57.262C124.453 56.562 124.243 55.9973 123.823 55.568C123.412 55.1387 122.885 54.924 122.241 54.924C121.821 54.924 121.443 55.022 121.107 55.218C120.771 55.4047 120.505 55.6753 120.309 56.03C120.113 56.3847 120.015 56.7953 120.015 57.262C120.015 57.7287 120.113 58.1393 120.309 58.494C120.505 58.8487 120.771 59.124 121.107 59.32C121.443 59.5067 121.821 59.6 122.241 59.6ZM132.384 60.594C132.179 60.762 131.927 60.888 131.628 60.972C131.339 61.056 131.031 61.098 130.704 61.098C129.883 61.098 129.248 60.8833 128.8 60.454C128.352 60.0247 128.128 59.3993 128.128 58.578V54.98H126.896V53.58H128.128V51.872H129.878V53.58H131.88V54.98H129.878V58.536C129.878 58.9 129.967 59.18 130.144 59.376C130.322 59.5627 130.578 59.656 130.914 59.656C131.306 59.656 131.633 59.5533 131.894 59.348L132.384 60.594ZM134.521 61.098C134.203 61.098 133.933 60.9907 133.709 60.776C133.485 60.552 133.373 60.272 133.373 59.936C133.373 59.5907 133.48 59.3107 133.695 59.096C133.919 58.8813 134.194 58.774 134.521 58.774C134.847 58.774 135.118 58.8813 135.333 59.096C135.557 59.3107 135.669 59.5907 135.669 59.936C135.669 60.272 135.557 60.552 135.333 60.776C135.109 60.9907 134.838 61.098 134.521 61.098ZM136.745 63.814C136.008 63.814 135.448 63.6693 135.065 63.38L135.569 62.078C135.831 62.274 136.171 62.372 136.591 62.372C136.918 62.372 137.165 62.2693 137.333 62.064C137.511 61.868 137.599 61.574 137.599 61.182V53.524H139.349V61.14C139.349 61.9707 139.121 62.624 138.663 63.1C138.206 63.576 137.567 63.814 136.745 63.814ZM138.467 52.292C138.15 52.292 137.884 52.194 137.669 51.998C137.455 51.7927 137.347 51.5407 137.347 51.242C137.347 50.9433 137.455 50.696 137.669 50.5C137.884 50.2947 138.15 50.192 138.467 50.192C138.785 50.192 139.051 50.29 139.265 50.486C139.48 50.6727 139.587 50.9107 139.587 51.2C139.587 51.508 139.48 51.7693 139.265 51.984C139.06 52.1893 138.794 52.292 138.467 52.292ZM143.954 61.098C143.347 61.098 142.755 61.0187 142.176 60.86C141.597 60.7013 141.135 60.5007 140.79 60.258L141.462 58.928C141.798 59.152 142.199 59.334 142.666 59.474C143.142 59.6047 143.609 59.67 144.066 59.67C145.111 59.67 145.634 59.3947 145.634 58.844C145.634 58.5827 145.499 58.4007 145.228 58.298C144.967 58.1953 144.542 58.0973 143.954 58.004C143.338 57.9107 142.834 57.8033 142.442 57.682C142.059 57.5607 141.723 57.3507 141.434 57.052C141.154 56.744 141.014 56.3193 141.014 55.778C141.014 55.0687 141.308 54.504 141.896 54.084C142.493 53.6547 143.296 53.44 144.304 53.44C144.817 53.44 145.331 53.5007 145.844 53.622C146.357 53.734 146.777 53.888 147.104 54.084L146.432 55.414C145.797 55.0407 145.083 54.854 144.29 54.854C143.777 54.854 143.385 54.9333 143.114 55.092C142.853 55.2413 142.722 55.442 142.722 55.694C142.722 55.974 142.862 56.1747 143.142 56.296C143.431 56.408 143.875 56.5153 144.472 56.618C145.069 56.7113 145.559 56.8187 145.942 56.94C146.325 57.0613 146.651 57.2667 146.922 57.556C147.202 57.8453 147.342 58.256 147.342 58.788C147.342 59.488 147.039 60.048 146.432 60.468C145.825 60.888 144.999 61.098 143.954 61.098Z" fill="#F4F2FA"/>
<path d="M23.75 63.25H32.25C33.3546 63.25 34.25 62.3546 34.25 61.25V53L30 48.75H23.75C22.6454 48.75 21.75 49.6454 21.75 50.75V61.25C21.75 62.3546 22.6454 63.25 23.75 63.25Z" stroke="#F2F4FA" stroke-opacity="0.69" stroke-width="1.5" stroke-linecap="round" stroke-linejoin="round"/>
<path d="M34 53.25H29.75V49" stroke="#F2F4FA" stroke-opacity="0.69" stroke-width="1.5" stroke-linecap="round" stroke-linejoin="round"/>
<path d="M28.832 102.625C27.3711 103.117 25.9805 103.363 24.6602 103.363C23.3477 103.363 22.1797 103.062 21.1562 102.461C20.1406 101.852 19.3477 101.031 18.7773 100C18.207 98.9609 17.9219 97.7812 17.9219 96.4609C17.9219 94.4766 18.5664 92.8281 19.8555 91.5156C21.1523 90.2031 22.7148 89.5469 24.543 89.5469C25.8945 89.5469 27.3242 89.8008 28.832 90.3086V92.4062C27.3086 91.7109 25.9453 91.3633 24.7422 91.3633C23.9453 91.3633 23.1953 91.5625 22.4922 91.9609C21.7891 92.3516 21.2461 92.9648 20.8633 93.8008C20.4805 94.6367 20.2891 95.4961 20.2891 96.3789C20.2891 97.5586 20.6562 98.6836 21.3906 99.7539C22.1328 100.824 23.293 101.359 24.8711 101.359C25.3477 101.359 25.8164 101.328 26.2773 101.266C26.7383 101.195 27.5898 100.949 28.832 100.527V102.625ZM35.7461 103V85.9141H31.832V84.0859H37.9258V101.184H42.0156V103H35.7461ZM50.3125 103V91.7266H46.6797V89.9102H52.4922V101.184H56.1367V103H50.3125ZM49.9492 85.1875C49.9492 84.6953 50.1172 84.3281 50.4531 84.0859C50.7891 83.8438 51.1055 83.7227 51.4023 83.7227C51.707 83.7227 52.0273 83.8438 52.3633 84.0859C52.6992 84.3281 52.8672 84.6953 52.8672 85.1875C52.8672 85.6719 52.6992 86.0352 52.3633 86.2773C52.0273 86.5195 51.707 86.6406 51.4023 86.6406C51.1055 86.6406 50.7891 86.5195 50.4531 86.2773C50.1172 86.0352 49.9492 85.6719 49.9492 85.1875ZM71.9453 102.133C70.2031 102.961 68.5547 103.375 67 103.375C65.8203 103.375 64.7656 103.082 63.8359 102.496C62.9062 101.91 62.1602 101.074 61.5977 99.9883C61.043 98.8945 60.7656 97.7266 60.7656 96.4844C60.7656 95.2891 61.0312 94.1406 61.5625 93.0391C62.0938 91.9375 62.8359 91.082 63.7891 90.4727C64.7422 89.8555 65.8047 89.5469 66.9766 89.5469C68.5312 89.5469 69.7773 90.1016 70.7148 91.2109C71.6602 92.3203 72.1328 94.0312 72.1328 96.3438V96.8125H63.1094C63.1094 97.7188 63.2969 98.5469 63.6719 99.2969C64.0547 100.047 64.5547 100.609 65.1719 100.984C65.7891 101.359 66.4922 101.547 67.2812 101.547C68.6875 101.547 70.2422 101.078 71.9453 100.141V102.133ZM63.2383 95.1836H69.7656V94.8672C69.7656 93.7969 69.5039 92.9453 68.9805 92.3125C68.457 91.6797 67.7578 91.3633 66.8828 91.3633C66 91.3633 65.2344 91.6875 64.5859 92.3359C63.9453 92.9766 63.4961 93.9258 63.2383 95.1836ZM75.4727 103V89.9102H77.6523V92.7695C78.2773 91.7617 79.0312 90.9727 79.9141 90.4023C80.7969 89.832 81.6797 89.5469 82.5625 89.5469C83.3359 89.5469 84.0391 89.7539 84.6719 90.168C85.3047 90.5742 85.7461 91.1094 85.9961 91.7734C86.2539 92.4375 86.3828 93.7422 86.3828 95.6875V103H84.2031V95.418C84.2031 94.1602 84.1406 93.332 84.0156 92.9336C83.8984 92.5273 83.6758 92.1953 83.3477 91.9375C83.0273 91.6797 82.6758 91.5508 82.293 91.5508C81.5273 91.5508 80.7031 91.9141 79.8203 92.6406C78.9453 93.3672 78.2227 94.2773 77.6523 95.3711V103H75.4727ZM100.832 102.473C99.8086 102.902 99.0664 103.156 98.6055 103.234C98.1445 103.32 97.6992 103.363 97.2695 103.363C96.3555 103.363 95.5195 103.188 94.7617 102.836C94.0039 102.484 93.4297 101.965 93.0391 101.277C92.6562 100.59 92.4648 99.5273 92.4648 98.0898V92.8164H89.1953V91H92.4648V85.7266H94.6445V91H100.469V92.8164H94.6445V98.0547C94.6445 99.1094 94.7695 99.8555 95.0195 100.293C95.2695 100.723 95.6016 101.039 96.0156 101.242C96.4375 101.445 96.9336 101.547 97.5039 101.547C98.5586 101.547 99.668 101.215 100.832 100.551V102.473Z" fill="#BBBBFF"/>
<path d="M130.457 93.7305V95.5469H117.73V93.7305H130.457ZM130.457 97.8203V99.6367H117.73V97.8203H130.457ZM155.148 83.7227V85.1875C154.586 85.3359 154.156 85.5469 153.859 85.8203C153.57 86.0938 153.336 86.4453 153.156 86.875C152.984 87.2969 152.898 87.8125 152.898 88.4219C153.625 88.4219 154.16 88.6289 154.504 89.043C154.848 89.4492 155.02 89.8828 155.02 90.3438C155.02 90.8906 154.828 91.3516 154.445 91.7266C154.062 92.0938 153.617 92.2773 153.109 92.2773C152.453 92.2773 151.887 91.9961 151.41 91.4336C150.934 90.8633 150.695 90.0859 150.695 89.1016C150.695 88.2344 150.883 87.4219 151.258 86.6641C151.633 85.9062 152.141 85.2578 152.781 84.7188C153.43 84.1797 154.219 83.8477 155.148 83.7227ZM162.508 103L160.375 89.9102H162.402L163.645 97.8789L163.973 99.7305L164.289 97.8789L166.375 89.9102H168.332L170.688 97.8789L171.098 99.7305L171.367 97.8789L172.621 89.9102H174.297L172.176 103H170.137L167.629 94.5742L167.23 92.7227H167.172L166.809 94.5625L164.629 103H162.508ZM176.371 103V84.0859H178.551V92.7695C179.176 91.7617 179.93 90.9727 180.812 90.4023C181.695 89.832 182.578 89.5469 183.461 89.5469C184.203 89.5469 184.879 89.7383 185.488 90.1211C186.105 90.4961 186.535 90.9531 186.777 91.4922C186.973 91.9062 187.105 92.3477 187.176 92.8164C187.246 93.2773 187.281 94.2344 187.281 95.6875V103H185.102V95.418C185.102 94.1602 185.039 93.332 184.914 92.9336C184.797 92.5273 184.574 92.1953 184.246 91.9375C183.926 91.6797 183.574 91.5508 183.191 91.5508C182.426 91.5508 181.602 91.9141 180.719 92.6406C179.844 93.3672 179.121 94.2773 178.551 95.3711V103H176.371ZM199.387 100.059C198.723 101.152 197.922 101.977 196.984 102.531C196.055 103.086 195.199 103.363 194.418 103.363C193.324 103.363 192.34 102.891 191.465 101.945C190.598 101 190.164 99.5664 190.164 97.6445C190.164 96.1289 190.453 94.7773 191.031 93.5898C191.609 92.3945 192.383 91.4531 193.352 90.7656C194.32 90.0703 195.52 89.7227 196.949 89.7227C197.363 89.7227 197.988 89.7656 198.824 89.8516C198.949 89.8672 199.137 89.8867 199.387 89.9102H201.578V99.1562C201.578 100.734 201.742 102.016 202.07 103H199.797C199.625 102.281 199.488 101.301 199.387 100.059ZM199.387 97.4688V91.8555C198.613 91.6523 197.895 91.5508 197.23 91.5508C195.887 91.5508 194.766 92.0703 193.867 93.1094C192.977 94.1484 192.531 95.5625 192.531 97.3516C192.531 98.6484 192.773 99.6289 193.258 100.293C193.75 100.949 194.309 101.277 194.934 101.277C195.613 101.277 196.363 100.934 197.184 100.246C198.004 99.5586 198.738 98.6328 199.387 97.4688ZM216.145 102.473C215.121 102.902 214.379 103.156 213.918 103.234C213.457 103.32 213.012 103.363 212.582 103.363C211.668 103.363 210.832 103.188 210.074 102.836C209.316 102.484 208.742 101.965 208.352 101.277C207.969 100.59 207.777 99.5273 207.777 98.0898V92.8164H204.508V91H207.777V85.7266H209.957V91H215.781V92.8164H209.957V98.0547C209.957 99.1094 210.082 99.8555 210.332 100.293C210.582 100.723 210.914 101.039 211.328 101.242C211.75 101.445 212.246 101.547 212.816 101.547C213.871 101.547 214.98 101.215 216.145 100.551V102.473ZM230.5 102.133C228.758 102.961 227.109 103.375 225.555 103.375C224.375 103.375 223.32 103.082 222.391 102.496C221.461 101.91 220.715 101.074 220.152 99.9883C219.598 98.8945 219.32 97.7266 219.32 96.4844C219.32 95.2891 219.586 94.1406 220.117 93.0391C220.648 91.9375 221.391 91.082 222.344 90.4727C223.297 89.8555 224.359 89.5469 225.531 89.5469C227.086 89.5469 228.332 90.1016 229.27 91.2109C230.215 92.3203 230.688 94.0312 230.688 96.3438V96.8125H221.664C221.664 97.7188 221.852 98.5469 222.227 99.2969C222.609 100.047 223.109 100.609 223.727 100.984C224.344 101.359 225.047 101.547 225.836 101.547C227.242 101.547 228.797 101.078 230.5 100.141V102.133ZM221.793 95.1836H228.32V94.8672C228.32 93.7969 228.059 92.9453 227.535 92.3125C227.012 91.6797 226.312 91.3633 225.438 91.3633C224.555 91.3633 223.789 91.6875 223.141 92.3359C222.5 92.9766 222.051 93.9258 221.793 95.1836ZM238.281 103L232.598 89.9102H234.988L239.477 100.27L244.059 89.9102H246.238L240.508 103H238.281ZM259.328 102.133C257.586 102.961 255.938 103.375 254.383 103.375C253.203 103.375 252.148 103.082 251.219 102.496C250.289 101.91 249.543 101.074 248.98 99.9883C248.426 98.8945 248.148 97.7266 248.148 96.4844C248.148 95.2891 248.414 94.1406 248.945 93.0391C249.477 91.9375 250.219 91.082 251.172 90.4727C252.125 89.8555 253.188 89.5469 254.359 89.5469C255.914 89.5469 257.16 90.1016 258.098 91.2109C259.043 92.3203 259.516 94.0312 259.516 96.3438V96.8125H250.492C250.492 97.7188 250.68 98.5469 251.055 99.2969C251.438 100.047 251.938 100.609 252.555 100.984C253.172 101.359 253.875 101.547 254.664 101.547C256.07 101.547 257.625 101.078 259.328 100.141V102.133ZM250.621 95.1836H257.148V94.8672C257.148 93.7969 256.887 92.9453 256.363 92.3125C255.84 91.6797 255.141 91.3633 254.266 91.3633C253.383 91.3633 252.617 91.6875 251.969 92.3359C251.328 92.9766 250.879 93.9258 250.621 95.1836ZM263.969 103V89.9102H266.148V92.7695C266.828 91.6914 267.605 90.8867 268.48 90.3555C269.363 89.8164 270.344 89.5469 271.422 89.5469C272.211 89.5469 273 89.668 273.789 89.9102V94.6328H271.691V91.6445C271.324 91.582 271.035 91.5508 270.824 91.5508C270.012 91.5508 269.215 91.8711 268.434 92.5117C267.652 93.1523 266.891 94.1133 266.148 95.3945V103H263.969ZM280.422 92.2773V90.8125C280.984 90.6641 281.41 90.4531 281.699 90.1797C281.996 89.9062 282.23 89.5586 282.402 89.1367C282.582 88.707 282.672 88.1875 282.672 87.5781C281.945 87.5781 281.41 87.375 281.066 86.9688C280.723 86.5547 280.551 86.1172 280.551 85.6562C280.551 85.1094 280.742 84.6523 281.125 84.2852C281.508 83.9102 281.953 83.7227 282.461 83.7227C283.117 83.7227 283.684 84.0078 284.16 84.5781C284.637 85.1406 284.875 85.9141 284.875 86.8984C284.875 87.7656 284.688 88.5781 284.312 89.3359C283.938 90.0938 283.426 90.7422 282.777 91.2812C282.137 91.8203 281.352 92.1523 280.422 92.2773Z" fill="#F2F6FA"/>
</svg>
