<svg width="20" height="20" viewBox="0 0 20 20" fill="none" xmlns="http://www.w3.org/2000/svg">
<path d="M7.22363 2.71387C8.01585 2.47724 8.85545 2.34961 9.72461 2.34961H10.082C10.835 2.34961 11.5657 2.44468 12.2627 2.62402L16.5488 0.200195V5.21777C17.9515 6.76584 18.8065 8.81973 18.8066 11.0732C18.8065 15.8914 14.9002 19.7979 10.082 19.7979H9.72461C4.90639 19.7979 1.00011 15.8914 1 11.0732C1.0001 9.08919 1.66364 7.26053 2.7793 5.79492V0.199219L7.22363 2.71387ZM7.2334 7.58496C6.25015 7.58515 5.45312 8.36654 5.45312 9.33008C5.45338 10.2934 6.2503 11.074 7.2334 11.0742C8.21666 11.0742 9.0144 10.2935 9.01465 9.33008C9.01465 8.36642 8.21682 7.58496 7.2334 7.58496ZM12.5752 7.58496C11.5919 7.58515 10.7949 8.36654 10.7949 9.33008C10.7952 10.2934 11.5921 11.074 12.5752 11.0742C13.5585 11.0742 14.3562 10.2935 14.3564 9.33008C14.3564 8.36642 13.5586 7.58496 12.5752 7.58496Z" fill="black"/>
</svg>
