<svg width="420" height="448" viewBox="0 0 420 448" fill="none" xmlns="http://www.w3.org/2000/svg">
<rect x="305" y="70" width="100" height="100" rx="50" fill="#808CFF" fill-opacity="0.12"/>
<rect x="334" y="99" width="42" height="42" rx="21" stroke="#96A0FF" stroke-opacity="0.86" stroke-width="8"/>
<circle cx="104" cy="344" r="100" fill="url(#paint0_radial_2460_2155)" fill-opacity="0.15"/>
<g filter="url(#filter0_d_2460_2155)">
<circle cx="104" cy="344" r="4" fill="url(#paint1_radial_2460_2155)"/>
</g>
<path d="M160 271L104 344" stroke="url(#paint2_linear_2460_2155)"/>
<g filter="url(#filter1_d_2460_2155)">
<rect x="157" y="268" width="6" height="6" rx="3" fill="#808CFF"/>
</g>
<path d="M260 344H120" stroke="#F6F2FA" stroke-opacity="0.2"/>
<path d="M250.5 271H169" stroke="#F6F2FA" stroke-opacity="0.2"/>
<path d="M278.5 43.5L355 120" stroke="#F6F2FA" stroke-opacity="0.2"/>
<path d="M277.421 347.11C276.827 347.11 276.251 347.026 275.694 346.857C275.144 346.688 274.708 346.465 274.385 346.186L274.88 345.075C275.195 345.324 275.58 345.53 276.035 345.691C276.497 345.845 276.959 345.922 277.421 345.922C277.993 345.922 278.418 345.83 278.697 345.647C278.983 345.464 279.126 345.222 279.126 344.921C279.126 344.701 279.045 344.521 278.884 344.382C278.73 344.235 278.532 344.122 278.29 344.041C278.048 343.96 277.718 343.869 277.3 343.766C276.713 343.627 276.237 343.487 275.87 343.348C275.511 343.209 275.199 342.992 274.935 342.699C274.678 342.398 274.55 341.995 274.55 341.489C274.55 341.064 274.664 340.679 274.891 340.334C275.126 339.982 275.474 339.703 275.936 339.498C276.405 339.293 276.977 339.19 277.652 339.19C278.121 339.19 278.583 339.249 279.038 339.366C279.493 339.483 279.885 339.652 280.215 339.872L279.764 340.983C279.427 340.785 279.075 340.635 278.708 340.532C278.341 340.429 277.986 340.378 277.641 340.378C277.076 340.378 276.655 340.473 276.376 340.664C276.105 340.855 275.969 341.108 275.969 341.423C275.969 341.643 276.046 341.823 276.2 341.962C276.361 342.101 276.563 342.211 276.805 342.292C277.047 342.373 277.377 342.464 277.795 342.567C278.367 342.699 278.836 342.838 279.203 342.985C279.57 343.124 279.881 343.341 280.138 343.634C280.402 343.927 280.534 344.323 280.534 344.822C280.534 345.247 280.417 345.632 280.182 345.977C279.955 346.322 279.606 346.597 279.137 346.802C278.668 347.007 278.096 347.11 277.421 347.11ZM285.351 346.681C285.19 346.813 284.992 346.912 284.757 346.978C284.53 347.044 284.288 347.077 284.031 347.077C283.386 347.077 282.887 346.908 282.535 346.571C282.183 346.234 282.007 345.742 282.007 345.097V342.27H281.039V341.17H282.007V339.828H283.382V341.17H284.955V342.27H283.382V345.064C283.382 345.35 283.452 345.57 283.591 345.724C283.73 345.871 283.932 345.944 284.196 345.944C284.504 345.944 284.761 345.863 284.966 345.702L285.351 346.681ZM288.726 341.06C289.591 341.06 290.251 341.269 290.706 341.687C291.168 342.098 291.399 342.721 291.399 343.557V347H290.101V346.285C289.932 346.542 289.69 346.74 289.375 346.879C289.067 347.011 288.693 347.077 288.253 347.077C287.813 347.077 287.428 347.004 287.098 346.857C286.768 346.703 286.511 346.494 286.328 346.23C286.152 345.959 286.064 345.654 286.064 345.317C286.064 344.789 286.258 344.367 286.647 344.052C287.043 343.729 287.663 343.568 288.506 343.568H290.024V343.48C290.024 343.069 289.899 342.754 289.65 342.534C289.408 342.314 289.045 342.204 288.561 342.204C288.231 342.204 287.905 342.255 287.582 342.358C287.267 342.461 286.999 342.604 286.779 342.787L286.24 341.786C286.548 341.551 286.918 341.372 287.351 341.247C287.784 341.122 288.242 341.06 288.726 341.06ZM288.539 346.076C288.884 346.076 289.188 345.999 289.452 345.845C289.723 345.684 289.914 345.456 290.024 345.163V344.481H288.605C287.813 344.481 287.417 344.741 287.417 345.262C287.417 345.511 287.516 345.709 287.714 345.856C287.912 346.003 288.187 346.076 288.539 346.076ZM294.473 341.984C294.869 341.368 295.565 341.06 296.563 341.06V342.369C296.445 342.347 296.339 342.336 296.244 342.336C295.708 342.336 295.29 342.494 294.99 342.809C294.689 343.117 294.539 343.564 294.539 344.151V347H293.164V341.126H294.473V341.984Z" fill="#F6F2FA"/>
<path d="M277.421 361.11C276.827 361.11 276.251 361.026 275.694 360.857C275.144 360.688 274.708 360.465 274.385 360.186L274.88 359.075C275.195 359.324 275.58 359.53 276.035 359.691C276.497 359.845 276.959 359.922 277.421 359.922C277.993 359.922 278.418 359.83 278.697 359.647C278.983 359.464 279.126 359.222 279.126 358.921C279.126 358.701 279.045 358.521 278.884 358.382C278.73 358.235 278.532 358.122 278.29 358.041C278.048 357.96 277.718 357.869 277.3 357.766C276.713 357.627 276.237 357.487 275.87 357.348C275.511 357.209 275.199 356.992 274.935 356.699C274.678 356.398 274.55 355.995 274.55 355.489C274.55 355.064 274.664 354.679 274.891 354.334C275.126 353.982 275.474 353.703 275.936 353.498C276.405 353.293 276.977 353.19 277.652 353.19C278.121 353.19 278.583 353.249 279.038 353.366C279.493 353.483 279.885 353.652 280.215 353.872L279.764 354.983C279.427 354.785 279.075 354.635 278.708 354.532C278.341 354.429 277.986 354.378 277.641 354.378C277.076 354.378 276.655 354.473 276.376 354.664C276.105 354.855 275.969 355.108 275.969 355.423C275.969 355.643 276.046 355.823 276.2 355.962C276.361 356.101 276.563 356.211 276.805 356.292C277.047 356.373 277.377 356.464 277.795 356.567C278.367 356.699 278.836 356.838 279.203 356.985C279.57 357.124 279.881 357.341 280.138 357.634C280.402 357.927 280.534 358.323 280.534 358.822C280.534 359.247 280.417 359.632 280.182 359.977C279.955 360.322 279.606 360.597 279.137 360.802C278.668 361.007 278.096 361.11 277.421 361.11ZM284.46 361.077C283.866 361.077 283.331 360.949 282.854 360.692C282.377 360.435 282.003 360.08 281.732 359.625C281.468 359.163 281.336 358.642 281.336 358.063C281.336 357.484 281.468 356.967 281.732 356.512C282.003 356.057 282.377 355.702 282.854 355.445C283.331 355.188 283.866 355.06 284.46 355.06C285.061 355.06 285.6 355.188 286.077 355.445C286.554 355.702 286.924 356.057 287.188 356.512C287.459 356.967 287.595 357.484 287.595 358.063C287.595 358.642 287.459 359.163 287.188 359.625C286.924 360.08 286.554 360.435 286.077 360.692C285.6 360.949 285.061 361.077 284.46 361.077ZM284.46 359.9C284.966 359.9 285.384 359.731 285.714 359.394C286.044 359.057 286.209 358.613 286.209 358.063C286.209 357.513 286.044 357.069 285.714 356.732C285.384 356.395 284.966 356.226 284.46 356.226C283.954 356.226 283.536 356.395 283.206 356.732C282.883 357.069 282.722 357.513 282.722 358.063C282.722 358.613 282.883 359.057 283.206 359.394C283.536 359.731 283.954 359.9 284.46 359.9ZM294.597 355.126V361H293.288V360.252C293.068 360.516 292.793 360.721 292.463 360.868C292.133 361.007 291.777 361.077 291.396 361.077C290.611 361.077 289.991 360.861 289.537 360.428C289.089 359.988 288.866 359.339 288.866 358.481V355.126H290.241V358.294C290.241 358.822 290.358 359.218 290.593 359.482C290.835 359.739 291.176 359.867 291.616 359.867C292.107 359.867 292.496 359.717 292.782 359.416C293.075 359.108 293.222 358.668 293.222 358.096V355.126H294.597ZM297.706 355.984C298.102 355.368 298.799 355.06 299.796 355.06V356.369C299.679 356.347 299.572 356.336 299.477 356.336C298.942 356.336 298.524 356.494 298.223 356.809C297.922 357.117 297.772 357.564 297.772 358.151V361H296.397V355.126H297.706V355.984ZM303.604 361.077C302.995 361.077 302.449 360.949 301.965 360.692C301.481 360.435 301.103 360.08 300.832 359.625C300.561 359.163 300.425 358.642 300.425 358.063C300.425 357.484 300.561 356.967 300.832 356.512C301.103 356.057 301.477 355.702 301.954 355.445C302.438 355.188 302.988 355.06 303.604 355.06C304.183 355.06 304.689 355.177 305.122 355.412C305.562 355.647 305.892 355.984 306.112 356.424L305.056 357.04C304.887 356.769 304.675 356.567 304.418 356.435C304.169 356.296 303.894 356.226 303.593 356.226C303.08 356.226 302.654 356.395 302.317 356.732C301.98 357.062 301.811 357.506 301.811 358.063C301.811 358.62 301.976 359.068 302.306 359.405C302.643 359.735 303.072 359.9 303.593 359.9C303.894 359.9 304.169 359.834 304.418 359.702C304.675 359.563 304.887 359.357 305.056 359.086L306.112 359.702C305.885 360.142 305.551 360.483 305.111 360.725C304.678 360.96 304.176 361.077 303.604 361.077ZM312.737 358.096C312.737 358.191 312.729 358.327 312.715 358.503H308.106C308.186 358.936 308.395 359.28 308.733 359.537C309.077 359.786 309.503 359.911 310.009 359.911C310.654 359.911 311.186 359.698 311.604 359.273L312.341 360.12C312.077 360.435 311.743 360.674 311.34 360.835C310.936 360.996 310.482 361.077 309.976 361.077C309.33 361.077 308.762 360.949 308.271 360.692C307.779 360.435 307.398 360.08 307.127 359.625C306.863 359.163 306.731 358.642 306.731 358.063C306.731 357.491 306.859 356.978 307.116 356.523C307.38 356.061 307.743 355.702 308.205 355.445C308.667 355.188 309.187 355.06 309.767 355.06C310.339 355.06 310.848 355.188 311.296 355.445C311.75 355.694 312.102 356.05 312.352 356.512C312.608 356.967 312.737 357.495 312.737 358.096ZM309.767 356.16C309.327 356.16 308.953 356.292 308.645 356.556C308.344 356.813 308.161 357.157 308.095 357.59H311.428C311.369 357.165 311.189 356.82 310.889 356.556C310.588 356.292 310.214 356.16 309.767 356.16ZM319.737 361.077C319.143 361.077 318.608 360.949 318.131 360.692C317.655 360.435 317.281 360.08 317.009 359.625C316.745 359.163 316.613 358.642 316.613 358.063C316.613 357.484 316.745 356.967 317.009 356.512C317.281 356.057 317.655 355.702 318.131 355.445C318.608 355.188 319.143 355.06 319.737 355.06C320.339 355.06 320.878 355.188 321.354 355.445C321.831 355.702 322.201 356.057 322.465 356.512C322.737 356.967 322.872 357.484 322.872 358.063C322.872 358.642 322.737 359.163 322.465 359.625C322.201 360.08 321.831 360.435 321.354 360.692C320.878 360.949 320.339 361.077 319.737 361.077ZM319.737 359.9C320.243 359.9 320.661 359.731 320.991 359.394C321.321 359.057 321.486 358.613 321.486 358.063C321.486 357.513 321.321 357.069 320.991 356.732C320.661 356.395 320.243 356.226 319.737 356.226C319.231 356.226 318.813 356.395 318.483 356.732C318.161 357.069 317.999 357.513 317.999 358.063C317.999 358.613 318.161 359.057 318.483 359.394C318.813 359.731 319.231 359.9 319.737 359.9ZM326.574 353.872C325.995 353.872 325.705 354.187 325.705 354.818V355.17H327.322V356.27H325.749V361H324.374V356.27H323.406V355.17H324.374V354.796C324.374 354.165 324.557 353.67 324.924 353.311C325.291 352.944 325.808 352.761 326.475 352.761C327.003 352.761 327.417 352.867 327.718 353.08L327.333 354.114C327.098 353.953 326.845 353.872 326.574 353.872ZM336.81 358.096C336.81 358.191 336.802 358.327 336.788 358.503H332.179C332.259 358.936 332.468 359.28 332.806 359.537C333.15 359.786 333.576 359.911 334.082 359.911C334.727 359.911 335.259 359.698 335.677 359.273L336.414 360.12C336.15 360.435 335.816 360.674 335.413 360.835C335.009 360.996 334.555 361.077 334.049 361.077C333.403 361.077 332.835 360.949 332.344 360.692C331.852 360.435 331.471 360.08 331.2 359.625C330.936 359.163 330.804 358.642 330.804 358.063C330.804 357.491 330.932 356.978 331.189 356.523C331.453 356.061 331.816 355.702 332.278 355.445C332.74 355.188 333.26 355.06 333.84 355.06C334.412 355.06 334.921 355.188 335.369 355.445C335.823 355.694 336.175 356.05 336.425 356.512C336.681 356.967 336.81 357.495 336.81 358.096ZM333.84 356.16C333.4 356.16 333.026 356.292 332.718 356.556C332.417 356.813 332.234 357.157 332.168 357.59H335.501C335.442 357.165 335.262 356.82 334.962 356.556C334.661 356.292 334.287 356.16 333.84 356.16ZM341.464 355.06C342.204 355.06 342.798 355.276 343.246 355.709C343.693 356.142 343.917 356.783 343.917 357.634V361H342.542V357.81C342.542 357.297 342.421 356.912 342.179 356.655C341.937 356.391 341.592 356.259 341.145 356.259C340.639 356.259 340.239 356.413 339.946 356.721C339.652 357.022 339.506 357.458 339.506 358.03V361H338.131V355.126H339.44V355.885C339.667 355.614 339.953 355.408 340.298 355.269C340.642 355.13 341.031 355.06 341.464 355.06ZM351.237 358.096C351.237 358.191 351.229 358.327 351.215 358.503H346.606C346.686 358.936 346.895 359.28 347.233 359.537C347.577 359.786 348.003 359.911 348.509 359.911C349.154 359.911 349.686 359.698 350.104 359.273L350.841 360.12C350.577 360.435 350.243 360.674 349.84 360.835C349.436 360.996 348.982 361.077 348.476 361.077C347.83 361.077 347.262 360.949 346.771 360.692C346.279 360.435 345.898 360.08 345.627 359.625C345.363 359.163 345.231 358.642 345.231 358.063C345.231 357.491 345.359 356.978 345.616 356.523C345.88 356.061 346.243 355.702 346.705 355.445C347.167 355.188 347.687 355.06 348.267 355.06C348.839 355.06 349.348 355.188 349.796 355.445C350.25 355.694 350.602 356.05 350.852 356.512C351.108 356.967 351.237 357.495 351.237 358.096ZM348.267 356.16C347.827 356.16 347.453 356.292 347.145 356.556C346.844 356.813 346.661 357.157 346.595 357.59H349.928C349.869 357.165 349.689 356.82 349.389 356.556C349.088 356.292 348.714 356.16 348.267 356.16ZM353.866 355.984C354.262 355.368 354.959 355.06 355.956 355.06V356.369C355.839 356.347 355.733 356.336 355.637 356.336C355.102 356.336 354.684 356.494 354.383 356.809C354.083 357.117 353.932 357.564 353.932 358.151V361H352.557V355.126H353.866V355.984ZM362.899 355.126V360.109C362.899 362.177 361.843 363.211 359.731 363.211C359.166 363.211 358.631 363.138 358.125 362.991C357.619 362.852 357.201 362.646 356.871 362.375L357.487 361.341C357.744 361.554 358.066 361.722 358.455 361.847C358.851 361.979 359.251 362.045 359.654 362.045C360.299 362.045 360.772 361.898 361.073 361.605C361.374 361.312 361.524 360.864 361.524 360.263V359.955C361.289 360.212 361.003 360.406 360.666 360.538C360.329 360.67 359.958 360.736 359.555 360.736C358.998 360.736 358.492 360.619 358.037 360.384C357.59 360.142 357.234 359.805 356.97 359.372C356.713 358.939 356.585 358.444 356.585 357.887C356.585 357.33 356.713 356.838 356.97 356.413C357.234 355.98 357.59 355.647 358.037 355.412C358.492 355.177 358.998 355.06 359.555 355.06C359.98 355.06 360.365 355.13 360.71 355.269C361.062 355.408 361.355 355.621 361.59 355.907V355.126H362.899ZM359.764 359.57C360.285 359.57 360.71 359.416 361.04 359.108C361.377 358.793 361.546 358.386 361.546 357.887C361.546 357.396 361.377 356.996 361.04 356.688C360.71 356.38 360.285 356.226 359.764 356.226C359.236 356.226 358.803 356.38 358.466 356.688C358.136 356.996 357.971 357.396 357.971 357.887C357.971 358.386 358.136 358.793 358.466 359.108C358.803 359.416 359.236 359.57 359.764 359.57ZM370.207 355.126L367.457 361.473C367.2 362.111 366.888 362.558 366.522 362.815C366.155 363.079 365.711 363.211 365.191 363.211C364.897 363.211 364.608 363.163 364.322 363.068C364.036 362.973 363.801 362.841 363.618 362.672L364.168 361.66C364.3 361.785 364.454 361.884 364.63 361.957C364.813 362.03 364.996 362.067 365.18 362.067C365.422 362.067 365.62 362.005 365.774 361.88C365.935 361.755 366.082 361.546 366.214 361.253L366.313 361.022L363.75 355.126H365.18L367.028 359.471L368.887 355.126H370.207Z" fill="#F6F2FA" fill-opacity="0.69"/>
<path d="M262.421 274.11C261.827 274.11 261.251 274.026 260.694 273.857C260.144 273.688 259.708 273.465 259.385 273.186L259.88 272.075C260.195 272.324 260.58 272.53 261.035 272.691C261.497 272.845 261.959 272.922 262.421 272.922C262.993 272.922 263.418 272.83 263.697 272.647C263.983 272.464 264.126 272.222 264.126 271.921C264.126 271.701 264.045 271.521 263.884 271.382C263.73 271.235 263.532 271.122 263.29 271.041C263.048 270.96 262.718 270.869 262.3 270.766C261.713 270.627 261.237 270.487 260.87 270.348C260.511 270.209 260.199 269.992 259.935 269.699C259.678 269.398 259.55 268.995 259.55 268.489C259.55 268.064 259.664 267.679 259.891 267.334C260.126 266.982 260.474 266.703 260.936 266.498C261.405 266.293 261.977 266.19 262.652 266.19C263.121 266.19 263.583 266.249 264.038 266.366C264.493 266.483 264.885 266.652 265.215 266.872L264.764 267.983C264.427 267.785 264.075 267.635 263.708 267.532C263.341 267.429 262.986 267.378 262.641 267.378C262.076 267.378 261.655 267.473 261.376 267.664C261.105 267.855 260.969 268.108 260.969 268.423C260.969 268.643 261.046 268.823 261.2 268.962C261.361 269.101 261.563 269.211 261.805 269.292C262.047 269.373 262.377 269.464 262.795 269.567C263.367 269.699 263.836 269.838 264.203 269.985C264.57 270.124 264.881 270.341 265.138 270.634C265.402 270.927 265.534 271.323 265.534 271.822C265.534 272.247 265.417 272.632 265.182 272.977C264.955 273.322 264.606 273.597 264.137 273.802C263.668 274.007 263.096 274.11 262.421 274.11ZM270.076 268.06C270.648 268.06 271.158 268.185 271.605 268.434C272.06 268.683 272.415 269.035 272.672 269.49C272.929 269.945 273.057 270.469 273.057 271.063C273.057 271.657 272.929 272.185 272.672 272.647C272.415 273.102 272.06 273.454 271.605 273.703C271.158 273.952 270.648 274.077 270.076 274.077C269.284 274.077 268.657 273.813 268.195 273.285V276.134H266.82V268.126H268.129V268.896C268.356 268.617 268.635 268.408 268.965 268.269C269.302 268.13 269.673 268.06 270.076 268.06ZM269.922 272.9C270.428 272.9 270.842 272.731 271.165 272.394C271.495 272.057 271.66 271.613 271.66 271.063C271.66 270.513 271.495 270.069 271.165 269.732C270.842 269.395 270.428 269.226 269.922 269.226C269.592 269.226 269.295 269.303 269.031 269.457C268.767 269.604 268.558 269.816 268.404 270.095C268.25 270.374 268.173 270.696 268.173 271.063C268.173 271.43 268.25 271.752 268.404 272.031C268.558 272.31 268.767 272.526 269.031 272.68C269.295 272.827 269.592 272.9 269.922 272.9ZM274.361 268.126H275.736V274H274.361V268.126ZM275.054 267.158C274.805 267.158 274.596 267.081 274.427 266.927C274.258 266.766 274.174 266.568 274.174 266.333C274.174 266.098 274.258 265.904 274.427 265.75C274.596 265.589 274.805 265.508 275.054 265.508C275.303 265.508 275.512 265.585 275.681 265.739C275.85 265.886 275.934 266.073 275.934 266.3C275.934 266.542 275.85 266.747 275.681 266.916C275.52 267.077 275.311 267.158 275.054 267.158ZM278.85 268.984C279.246 268.368 279.942 268.06 280.94 268.06V269.369C280.822 269.347 280.716 269.336 280.621 269.336C280.085 269.336 279.667 269.494 279.367 269.809C279.066 270.117 278.916 270.564 278.916 271.151V274H277.541V268.126H278.85V268.984ZM282.106 268.126H283.481V274H282.106V268.126ZM282.799 267.158C282.55 267.158 282.341 267.081 282.172 266.927C282.003 266.766 281.919 266.568 281.919 266.333C281.919 266.098 282.003 265.904 282.172 265.75C282.341 265.589 282.55 265.508 282.799 265.508C283.048 265.508 283.257 265.585 283.426 265.739C283.595 265.886 283.679 266.073 283.679 266.3C283.679 266.542 283.595 266.747 283.426 266.916C283.265 267.077 283.056 267.158 282.799 267.158ZM288.817 273.681C288.655 273.813 288.457 273.912 288.223 273.978C287.995 274.044 287.753 274.077 287.497 274.077C286.851 274.077 286.353 273.908 286.001 273.571C285.649 273.234 285.473 272.742 285.473 272.097V269.27H284.505V268.17H285.473V266.828H286.848V268.17H288.421V269.27H286.848V272.064C286.848 272.35 286.917 272.57 287.057 272.724C287.196 272.871 287.398 272.944 287.662 272.944C287.97 272.944 288.226 272.863 288.432 272.702L288.817 273.681ZM294.352 276.134C293.919 275.467 293.586 274.693 293.351 273.813C293.124 272.933 293.01 271.991 293.01 270.986C293.01 269.981 293.124 269.039 293.351 268.159C293.586 267.272 293.919 266.498 294.352 265.838H295.661C295.214 266.63 294.884 267.448 294.671 268.291C294.466 269.127 294.363 270.025 294.363 270.986C294.363 271.947 294.466 272.849 294.671 273.692C294.884 274.528 295.214 275.342 295.661 276.134H294.352ZM302.488 268.126V274H301.179V273.252C300.959 273.516 300.684 273.721 300.354 273.868C300.024 274.007 299.669 274.077 299.287 274.077C298.503 274.077 297.883 273.861 297.428 273.428C296.981 272.988 296.757 272.339 296.757 271.481V268.126H298.132V271.294C298.132 271.822 298.25 272.218 298.484 272.482C298.726 272.739 299.067 272.867 299.507 272.867C299.999 272.867 300.387 272.717 300.673 272.416C300.967 272.108 301.113 271.668 301.113 271.096V268.126H302.488ZM307.622 268.06C308.362 268.06 308.956 268.276 309.404 268.709C309.851 269.142 310.075 269.783 310.075 270.634V274H308.7V270.81C308.7 270.297 308.579 269.912 308.337 269.655C308.095 269.391 307.75 269.259 307.303 269.259C306.797 269.259 306.397 269.413 306.104 269.721C305.81 270.022 305.664 270.458 305.664 271.03V274H304.289V268.126H305.598V268.885C305.825 268.614 306.111 268.408 306.456 268.269C306.8 268.13 307.189 268.06 307.622 268.06ZM311.819 268.126H313.194V274H311.819V268.126ZM312.512 267.158C312.263 267.158 312.054 267.081 311.885 266.927C311.716 266.766 311.632 266.568 311.632 266.333C311.632 266.098 311.716 265.904 311.885 265.75C312.054 265.589 312.263 265.508 312.512 265.508C312.761 265.508 312.97 265.585 313.139 265.739C313.308 265.886 313.392 266.073 313.392 266.3C313.392 266.542 313.308 266.747 313.139 266.916C312.978 267.077 312.769 267.158 312.512 267.158ZM318.53 273.681C318.368 273.813 318.17 273.912 317.936 273.978C317.708 274.044 317.466 274.077 317.21 274.077C316.564 274.077 316.066 273.908 315.714 273.571C315.362 273.234 315.186 272.742 315.186 272.097V269.27H314.218V268.17H315.186V266.828H316.561V268.17H318.134V269.27H316.561V272.064C316.561 272.35 316.63 272.57 316.77 272.724C316.909 272.871 317.111 272.944 317.375 272.944C317.683 272.944 317.939 272.863 318.145 272.702L318.53 273.681ZM319.001 276.134C319.448 275.342 319.778 274.524 319.991 273.681C320.203 272.838 320.31 271.939 320.31 270.986C320.31 270.033 320.203 269.134 319.991 268.291C319.778 267.448 319.448 266.63 319.001 265.838H320.31C320.742 266.491 321.072 267.261 321.3 268.148C321.534 269.028 321.652 269.974 321.652 270.986C321.652 271.998 321.534 272.944 321.3 273.824C321.072 274.697 320.742 275.467 320.31 276.134H319.001Z" fill="#F6F2FA"/>
<path d="M266.876 280.3V288H265.446V284.7H261.464V288H260.034V280.3H261.464V283.479H265.446V280.3H266.876ZM271.051 282.06C271.917 282.06 272.577 282.269 273.031 282.687C273.493 283.098 273.724 283.721 273.724 284.557V288H272.426V287.285C272.258 287.542 272.016 287.74 271.7 287.879C271.392 288.011 271.018 288.077 270.578 288.077C270.138 288.077 269.753 288.004 269.423 287.857C269.093 287.703 268.837 287.494 268.653 287.23C268.477 286.959 268.389 286.654 268.389 286.317C268.389 285.789 268.584 285.367 268.972 285.052C269.368 284.729 269.988 284.568 270.831 284.568H272.349V284.48C272.349 284.069 272.225 283.754 271.975 283.534C271.733 283.314 271.37 283.204 270.886 283.204C270.556 283.204 270.23 283.255 269.907 283.358C269.592 283.461 269.324 283.604 269.104 283.787L268.565 282.786C268.873 282.551 269.244 282.372 269.676 282.247C270.109 282.122 270.567 282.06 271.051 282.06ZM270.864 287.076C271.209 287.076 271.513 286.999 271.777 286.845C272.049 286.684 272.239 286.456 272.349 286.163V285.481H270.93C270.138 285.481 269.742 285.741 269.742 286.262C269.742 286.511 269.841 286.709 270.039 286.856C270.237 287.003 270.512 287.076 270.864 287.076ZM276.798 282.984C277.194 282.368 277.891 282.06 278.888 282.06V283.369C278.771 283.347 278.664 283.336 278.569 283.336C278.034 283.336 277.616 283.494 277.315 283.809C277.014 284.117 276.864 284.564 276.864 285.151V288H275.489V282.126H276.798V282.984ZM285.769 282.126L283.25 288H281.831L279.312 282.126H280.742L282.568 286.482L284.449 282.126H285.769ZM291.989 285.096C291.989 285.191 291.982 285.327 291.967 285.503H287.358C287.439 285.936 287.648 286.28 287.985 286.537C288.33 286.786 288.755 286.911 289.261 286.911C289.907 286.911 290.438 286.698 290.856 286.273L291.593 287.12C291.329 287.435 290.996 287.674 290.592 287.835C290.189 287.996 289.734 288.077 289.228 288.077C288.583 288.077 288.015 287.949 287.523 287.692C287.032 287.435 286.651 287.08 286.379 286.625C286.115 286.163 285.983 285.642 285.983 285.063C285.983 284.491 286.112 283.978 286.368 283.523C286.632 283.061 286.995 282.702 287.457 282.445C287.919 282.188 288.44 282.06 289.019 282.06C289.591 282.06 290.101 282.188 290.548 282.445C291.003 282.694 291.355 283.05 291.604 283.512C291.861 283.967 291.989 284.495 291.989 285.096ZM289.019 283.16C288.579 283.16 288.205 283.292 287.897 283.556C287.597 283.813 287.413 284.157 287.347 284.59H290.68C290.622 284.165 290.442 283.82 290.141 283.556C289.841 283.292 289.467 283.16 289.019 283.16ZM295.125 288.077C294.649 288.077 294.183 288.015 293.728 287.89C293.274 287.765 292.911 287.608 292.639 287.417L293.167 286.372C293.431 286.548 293.747 286.691 294.113 286.801C294.487 286.904 294.854 286.955 295.213 286.955C296.035 286.955 296.445 286.739 296.445 286.306C296.445 286.101 296.339 285.958 296.126 285.877C295.921 285.796 295.587 285.719 295.125 285.646C294.641 285.573 294.245 285.488 293.937 285.393C293.637 285.298 293.373 285.133 293.145 284.898C292.925 284.656 292.815 284.322 292.815 283.897C292.815 283.34 293.046 282.896 293.508 282.566C293.978 282.229 294.608 282.06 295.4 282.06C295.804 282.06 296.207 282.108 296.61 282.203C297.014 282.291 297.344 282.412 297.6 282.566L297.072 283.611C296.574 283.318 296.013 283.171 295.389 283.171C294.986 283.171 294.678 283.233 294.465 283.358C294.26 283.475 294.157 283.633 294.157 283.831C294.157 284.051 294.267 284.209 294.487 284.304C294.715 284.392 295.063 284.476 295.532 284.557C296.002 284.63 296.387 284.715 296.687 284.81C296.988 284.905 297.245 285.067 297.457 285.294C297.677 285.521 297.787 285.844 297.787 286.262C297.787 286.812 297.549 287.252 297.072 287.582C296.596 287.912 295.947 288.077 295.125 288.077ZM302.502 287.681C302.341 287.813 302.143 287.912 301.908 287.978C301.681 288.044 301.439 288.077 301.182 288.077C300.537 288.077 300.038 287.908 299.686 287.571C299.334 287.234 299.158 286.742 299.158 286.097V283.27H298.19V282.17H299.158V280.828H300.533V282.17H302.106V283.27H300.533V286.064C300.533 286.35 300.603 286.57 300.742 286.724C300.882 286.871 301.083 286.944 301.347 286.944C301.655 286.944 301.912 286.863 302.117 286.702L302.502 287.681ZM303.633 282.126H305.008V288H303.633V282.126ZM304.326 281.158C304.077 281.158 303.868 281.081 303.699 280.927C303.531 280.766 303.446 280.568 303.446 280.333C303.446 280.098 303.531 279.904 303.699 279.75C303.868 279.589 304.077 279.508 304.326 279.508C304.576 279.508 304.785 279.585 304.953 279.739C305.122 279.886 305.206 280.073 305.206 280.3C305.206 280.542 305.122 280.747 304.953 280.916C304.792 281.077 304.583 281.158 304.326 281.158ZM310.146 282.06C310.887 282.06 311.481 282.276 311.928 282.709C312.375 283.142 312.599 283.783 312.599 284.634V288H311.224V284.81C311.224 284.297 311.103 283.912 310.861 283.655C310.619 283.391 310.274 283.259 309.827 283.259C309.321 283.259 308.921 283.413 308.628 283.721C308.335 284.022 308.188 284.458 308.188 285.03V288H306.813V282.126H308.122V282.885C308.349 282.614 308.635 282.408 308.98 282.269C309.325 282.13 309.713 282.06 310.146 282.06ZM320.227 282.126V287.109C320.227 289.177 319.171 290.211 317.059 290.211C316.494 290.211 315.959 290.138 315.453 289.991C314.947 289.852 314.529 289.646 314.199 289.375L314.815 288.341C315.072 288.554 315.394 288.722 315.783 288.847C316.179 288.979 316.579 289.045 316.982 289.045C317.627 289.045 318.1 288.898 318.401 288.605C318.702 288.312 318.852 287.864 318.852 287.263V286.955C318.617 287.212 318.331 287.406 317.994 287.538C317.657 287.67 317.286 287.736 316.883 287.736C316.326 287.736 315.82 287.619 315.365 287.384C314.918 287.142 314.562 286.805 314.298 286.372C314.041 285.939 313.913 285.444 313.913 284.887C313.913 284.33 314.041 283.838 314.298 283.413C314.562 282.98 314.918 282.647 315.365 282.412C315.82 282.177 316.326 282.06 316.883 282.06C317.308 282.06 317.693 282.13 318.038 282.269C318.39 282.408 318.683 282.621 318.918 282.907V282.126H320.227ZM317.092 286.57C317.613 286.57 318.038 286.416 318.368 286.108C318.705 285.793 318.874 285.386 318.874 284.887C318.874 284.396 318.705 283.996 318.368 283.688C318.038 283.38 317.613 283.226 317.092 283.226C316.564 283.226 316.131 283.38 315.794 283.688C315.464 283.996 315.299 284.396 315.299 284.887C315.299 285.386 315.464 285.793 315.794 286.108C316.131 286.416 316.564 286.57 317.092 286.57ZM330.597 285.096C330.597 285.191 330.59 285.327 330.575 285.503H325.966C326.047 285.936 326.256 286.28 326.593 286.537C326.938 286.786 327.363 286.911 327.869 286.911C328.514 286.911 329.046 286.698 329.464 286.273L330.201 287.12C329.937 287.435 329.603 287.674 329.2 287.835C328.797 287.996 328.342 288.077 327.836 288.077C327.191 288.077 326.622 287.949 326.131 287.692C325.64 287.435 325.258 287.08 324.987 286.625C324.723 286.163 324.591 285.642 324.591 285.063C324.591 284.491 324.719 283.978 324.976 283.523C325.24 283.061 325.603 282.702 326.065 282.445C326.527 282.188 327.048 282.06 327.627 282.06C328.199 282.06 328.709 282.188 329.156 282.445C329.611 282.694 329.963 283.05 330.212 283.512C330.469 283.967 330.597 284.495 330.597 285.096ZM327.627 283.16C327.187 283.16 326.813 283.292 326.505 283.556C326.204 283.813 326.021 284.157 325.955 284.59H329.288C329.229 284.165 329.05 283.82 328.749 283.556C328.448 283.292 328.074 283.16 327.627 283.16ZM335.251 282.06C335.991 282.06 336.585 282.276 337.033 282.709C337.48 283.142 337.704 283.783 337.704 284.634V288H336.329V284.81C336.329 284.297 336.208 283.912 335.966 283.655C335.724 283.391 335.379 283.259 334.932 283.259C334.426 283.259 334.026 283.413 333.733 283.721C333.439 284.022 333.293 284.458 333.293 285.03V288H331.918V282.126H333.227V282.885C333.454 282.614 333.74 282.408 334.085 282.269C334.429 282.13 334.818 282.06 335.251 282.06ZM345.024 285.096C345.024 285.191 345.016 285.327 345.002 285.503H340.393C340.473 285.936 340.682 286.28 341.02 286.537C341.364 286.786 341.79 286.911 342.296 286.911C342.941 286.911 343.473 286.698 343.891 286.273L344.628 287.12C344.364 287.435 344.03 287.674 343.627 287.835C343.223 287.996 342.769 288.077 342.263 288.077C341.617 288.077 341.049 287.949 340.558 287.692C340.066 287.435 339.685 287.08 339.414 286.625C339.15 286.163 339.018 285.642 339.018 285.063C339.018 284.491 339.146 283.978 339.403 283.523C339.667 283.061 340.03 282.702 340.492 282.445C340.954 282.188 341.474 282.06 342.054 282.06C342.626 282.06 343.135 282.188 343.583 282.445C344.037 282.694 344.389 283.05 344.639 283.512C344.895 283.967 345.024 284.495 345.024 285.096ZM342.054 283.16C341.614 283.16 341.24 283.292 340.932 283.556C340.631 283.813 340.448 284.157 340.382 284.59H343.715C343.656 284.165 343.476 283.82 343.176 283.556C342.875 283.292 342.501 283.16 342.054 283.16ZM347.653 282.984C348.049 282.368 348.746 282.06 349.743 282.06V283.369C349.626 283.347 349.52 283.336 349.424 283.336C348.889 283.336 348.471 283.494 348.17 283.809C347.87 284.117 347.719 284.564 347.719 285.151V288H346.344V282.126H347.653V282.984ZM356.686 282.126V287.109C356.686 289.177 355.63 290.211 353.518 290.211C352.953 290.211 352.418 290.138 351.912 289.991C351.406 289.852 350.988 289.646 350.658 289.375L351.274 288.341C351.531 288.554 351.853 288.722 352.242 288.847C352.638 288.979 353.038 289.045 353.441 289.045C354.086 289.045 354.559 288.898 354.86 288.605C355.161 288.312 355.311 287.864 355.311 287.263V286.955C355.076 287.212 354.79 287.406 354.453 287.538C354.116 287.67 353.745 287.736 353.342 287.736C352.785 287.736 352.279 287.619 351.824 287.384C351.377 287.142 351.021 286.805 350.757 286.372C350.5 285.939 350.372 285.444 350.372 284.887C350.372 284.33 350.5 283.838 350.757 283.413C351.021 282.98 351.377 282.647 351.824 282.412C352.279 282.177 352.785 282.06 353.342 282.06C353.767 282.06 354.152 282.13 354.497 282.269C354.849 282.408 355.142 282.621 355.377 282.907V282.126H356.686ZM353.551 286.57C354.072 286.57 354.497 286.416 354.827 286.108C355.164 285.793 355.333 285.386 355.333 284.887C355.333 284.396 355.164 283.996 354.827 283.688C354.497 283.38 354.072 283.226 353.551 283.226C353.023 283.226 352.59 283.38 352.253 283.688C351.923 283.996 351.758 284.396 351.758 284.887C351.758 285.386 351.923 285.793 352.253 286.108C352.59 286.416 353.023 286.57 353.551 286.57ZM363.994 282.126L361.244 288.473C360.987 289.111 360.675 289.558 360.309 289.815C359.942 290.079 359.498 290.211 358.978 290.211C358.684 290.211 358.395 290.163 358.109 290.068C357.823 289.973 357.588 289.841 357.405 289.672L357.955 288.66C358.087 288.785 358.241 288.884 358.417 288.957C358.6 289.03 358.783 289.067 358.967 289.067C359.209 289.067 359.407 289.005 359.561 288.88C359.722 288.755 359.869 288.546 360.001 288.253L360.1 288.022L357.537 282.126H358.967L360.815 286.471L362.674 282.126H363.994ZM370.28 280.872C369.701 280.872 369.411 281.187 369.411 281.818V282.17H371.028V283.27H369.455V288H368.08V283.27H367.112V282.17H368.08V281.796C368.08 281.165 368.264 280.67 368.63 280.311C368.997 279.944 369.514 279.761 370.181 279.761C370.709 279.761 371.124 279.867 371.424 280.08L371.039 281.114C370.805 280.953 370.552 280.872 370.28 280.872ZM374.144 282.984C374.54 282.368 375.236 282.06 376.234 282.06V283.369C376.116 283.347 376.01 283.336 375.915 283.336C375.379 283.336 374.961 283.494 374.661 283.809C374.36 284.117 374.21 284.564 374.21 285.151V288H372.835V282.126H374.144V282.984ZM379.986 288.077C379.392 288.077 378.857 287.949 378.38 287.692C377.904 287.435 377.53 287.08 377.258 286.625C376.994 286.163 376.862 285.642 376.862 285.063C376.862 284.484 376.994 283.967 377.258 283.512C377.53 283.057 377.904 282.702 378.38 282.445C378.857 282.188 379.392 282.06 379.986 282.06C380.588 282.06 381.127 282.188 381.603 282.445C382.08 282.702 382.45 283.057 382.714 283.512C382.986 283.967 383.121 284.484 383.121 285.063C383.121 285.642 382.986 286.163 382.714 286.625C382.45 287.08 382.08 287.435 381.603 287.692C381.127 287.949 380.588 288.077 379.986 288.077ZM379.986 286.9C380.492 286.9 380.91 286.731 381.24 286.394C381.57 286.057 381.735 285.613 381.735 285.063C381.735 284.513 381.57 284.069 381.24 283.732C380.91 283.395 380.492 283.226 379.986 283.226C379.48 283.226 379.062 283.395 378.732 283.732C378.41 284.069 378.248 284.513 378.248 285.063C378.248 285.613 378.41 286.057 378.732 286.394C379.062 286.731 379.48 286.9 379.986 286.9ZM391.85 282.06C392.591 282.06 393.178 282.276 393.61 282.709C394.043 283.134 394.259 283.776 394.259 284.634V288H392.884V284.81C392.884 284.297 392.771 283.912 392.543 283.655C392.316 283.391 391.99 283.259 391.564 283.259C391.102 283.259 390.732 283.413 390.453 283.721C390.175 284.022 390.035 284.454 390.035 285.019V288H388.66V284.81C388.66 284.297 388.547 283.912 388.319 283.655C388.092 283.391 387.766 283.259 387.34 283.259C386.871 283.259 386.497 283.409 386.218 283.71C385.947 284.011 385.811 284.447 385.811 285.019V288H384.436V282.126H385.745V282.874C385.965 282.61 386.24 282.408 386.57 282.269C386.9 282.13 387.267 282.06 387.67 282.06C388.11 282.06 388.499 282.144 388.836 282.313C389.181 282.474 389.452 282.716 389.65 283.039C389.892 282.731 390.204 282.493 390.585 282.324C390.967 282.148 391.388 282.06 391.85 282.06ZM400.871 288.077C400.395 288.077 399.929 288.015 399.474 287.89C399.02 287.765 398.657 287.608 398.385 287.417L398.913 286.372C399.177 286.548 399.493 286.691 399.859 286.801C400.233 286.904 400.6 286.955 400.959 286.955C401.781 286.955 402.191 286.739 402.191 286.306C402.191 286.101 402.085 285.958 401.872 285.877C401.667 285.796 401.333 285.719 400.871 285.646C400.387 285.573 399.991 285.488 399.683 285.393C399.383 285.298 399.119 285.133 398.891 284.898C398.671 284.656 398.561 284.322 398.561 283.897C398.561 283.34 398.792 282.896 399.254 282.566C399.724 282.229 400.354 282.06 401.146 282.06C401.55 282.06 401.953 282.108 402.356 282.203C402.76 282.291 403.09 282.412 403.346 282.566L402.818 283.611C402.32 283.318 401.759 283.171 401.135 283.171C400.732 283.171 400.424 283.233 400.211 283.358C400.006 283.475 399.903 283.633 399.903 283.831C399.903 284.051 400.013 284.209 400.233 284.304C400.461 284.392 400.809 284.476 401.278 284.557C401.748 284.63 402.133 284.715 402.433 284.81C402.734 284.905 402.991 285.067 403.203 285.294C403.423 285.521 403.533 285.844 403.533 286.262C403.533 286.812 403.295 287.252 402.818 287.582C402.342 287.912 401.693 288.077 400.871 288.077ZM408.248 287.681C408.087 287.813 407.889 287.912 407.654 287.978C407.427 288.044 407.185 288.077 406.928 288.077C406.283 288.077 405.784 287.908 405.432 287.571C405.08 287.234 404.904 286.742 404.904 286.097V283.27H403.936V282.17H404.904V280.828H406.279V282.17H407.852V283.27H406.279V286.064C406.279 286.35 406.349 286.57 406.488 286.724C406.628 286.871 406.829 286.944 407.093 286.944C407.401 286.944 407.658 286.863 407.863 286.702L408.248 287.681ZM411.624 282.06C412.489 282.06 413.149 282.269 413.604 282.687C414.066 283.098 414.297 283.721 414.297 284.557V288H412.999V287.285C412.83 287.542 412.588 287.74 412.273 287.879C411.965 288.011 411.591 288.077 411.151 288.077C410.711 288.077 410.326 288.004 409.996 287.857C409.666 287.703 409.409 287.494 409.226 287.23C409.05 286.959 408.962 286.654 408.962 286.317C408.962 285.789 409.156 285.367 409.545 285.052C409.941 284.729 410.56 284.568 411.404 284.568H412.922V284.48C412.922 284.069 412.797 283.754 412.548 283.534C412.306 283.314 411.943 283.204 411.459 283.204C411.129 283.204 410.802 283.255 410.48 283.358C410.164 283.461 409.897 283.604 409.677 283.787L409.138 282.786C409.446 282.551 409.816 282.372 410.249 282.247C410.681 282.122 411.14 282.06 411.624 282.06ZM411.437 287.076C411.781 287.076 412.086 286.999 412.35 286.845C412.621 286.684 412.812 286.456 412.922 286.163V285.481H411.503C410.711 285.481 410.315 285.741 410.315 286.262C410.315 286.511 410.414 286.709 410.612 286.856C410.81 287.003 411.085 287.076 411.437 287.076ZM417.37 282.984C417.766 282.368 418.463 282.06 419.46 282.06V283.369C419.343 283.347 419.237 283.336 419.141 283.336C418.606 283.336 418.188 283.494 417.887 283.809C417.587 284.117 417.436 284.564 417.436 285.151V288H416.061V282.126H417.37V282.984Z" fill="#F6F2FA" fill-opacity="0.69"/>
<path d="M260.49 15.996C260.915 16.1353 261.253 16.37 261.502 16.7C261.751 17.0227 261.876 17.426 261.876 17.91C261.876 18.5773 261.619 19.0943 261.106 19.461C260.593 19.8203 259.845 20 258.862 20H255.034V12.3H258.642C259.551 12.3 260.252 12.4797 260.743 12.839C261.234 13.191 261.48 13.6787 261.48 14.302C261.48 14.6833 261.392 15.0207 261.216 15.314C261.04 15.6073 260.798 15.8347 260.49 15.996ZM256.464 13.422V15.545H258.488C258.987 15.545 259.368 15.457 259.632 15.281C259.903 15.0977 260.039 14.8337 260.039 14.489C260.039 14.137 259.903 13.873 259.632 13.697C259.368 13.5137 258.987 13.422 258.488 13.422H256.464ZM258.774 18.878C259.881 18.878 260.435 18.5077 260.435 17.767C260.435 17.0263 259.881 16.656 258.774 16.656H256.464V18.878H258.774ZM265.514 14.06C266.379 14.06 267.039 14.269 267.494 14.687C267.956 15.0977 268.187 15.721 268.187 16.557V20H266.889V19.285C266.72 19.5417 266.478 19.7397 266.163 19.879C265.855 20.011 265.481 20.077 265.041 20.077C264.601 20.077 264.216 20.0037 263.886 19.857C263.556 19.703 263.299 19.494 263.116 19.23C262.94 18.9587 262.852 18.6543 262.852 18.317C262.852 17.789 263.046 17.3673 263.435 17.052C263.831 16.7293 264.451 16.568 265.294 16.568H266.812V16.48C266.812 16.0693 266.687 15.754 266.438 15.534C266.196 15.314 265.833 15.204 265.349 15.204C265.019 15.204 264.693 15.2553 264.37 15.358C264.055 15.4607 263.787 15.6037 263.567 15.787L263.028 14.786C263.336 14.5513 263.706 14.3717 264.139 14.247C264.572 14.1223 265.03 14.06 265.514 14.06ZM265.327 19.076C265.672 19.076 265.976 18.999 266.24 18.845C266.511 18.6837 266.702 18.4563 266.812 18.163V17.481H265.393C264.601 17.481 264.205 17.7413 264.205 18.262C264.205 18.5113 264.304 18.7093 264.502 18.856C264.7 19.0027 264.975 19.076 265.327 19.076ZM271.767 20.077C271.29 20.077 270.824 20.0147 270.37 19.89C269.915 19.7653 269.552 19.6077 269.281 19.417L269.809 18.372C270.073 18.548 270.388 18.691 270.755 18.801C271.129 18.9037 271.495 18.955 271.855 18.955C272.676 18.955 273.087 18.7387 273.087 18.306C273.087 18.1007 272.98 17.9577 272.768 17.877C272.562 17.7963 272.229 17.7193 271.767 17.646C271.283 17.5727 270.887 17.4883 270.579 17.393C270.278 17.2977 270.014 17.1327 269.787 16.898C269.567 16.656 269.457 16.3223 269.457 15.897C269.457 15.3397 269.688 14.896 270.15 14.566C270.619 14.2287 271.25 14.06 272.042 14.06C272.445 14.06 272.848 14.1077 273.252 14.203C273.655 14.291 273.985 14.412 274.242 14.566L273.714 15.611C273.215 15.3177 272.654 15.171 272.031 15.171C271.627 15.171 271.319 15.2333 271.107 15.358C270.901 15.4753 270.799 15.633 270.799 15.831C270.799 16.051 270.909 16.2087 271.129 16.304C271.356 16.392 271.704 16.4763 272.174 16.557C272.643 16.6303 273.028 16.7147 273.329 16.81C273.629 16.9053 273.886 17.0667 274.099 17.294C274.319 17.5213 274.429 17.844 274.429 18.262C274.429 18.812 274.19 19.252 273.714 19.582C273.237 19.912 272.588 20.077 271.767 20.077ZM281.135 17.096C281.135 17.1913 281.128 17.327 281.113 17.503H276.504C276.585 17.9357 276.794 18.2803 277.131 18.537C277.476 18.7863 277.901 18.911 278.407 18.911C279.052 18.911 279.584 18.6983 280.002 18.273L280.739 19.12C280.475 19.4353 280.141 19.6737 279.738 19.835C279.335 19.9963 278.88 20.077 278.374 20.077C277.729 20.077 277.16 19.9487 276.669 19.692C276.178 19.4353 275.796 19.0797 275.525 18.625C275.261 18.163 275.129 17.6423 275.129 17.063C275.129 16.491 275.257 15.9777 275.514 15.523C275.778 15.061 276.141 14.7017 276.603 14.445C277.065 14.1883 277.586 14.06 278.165 14.06C278.737 14.06 279.247 14.1883 279.694 14.445C280.149 14.6943 280.501 15.05 280.75 15.512C281.007 15.9667 281.135 16.4947 281.135 17.096ZM278.165 15.16C277.725 15.16 277.351 15.292 277.043 15.556C276.742 15.8127 276.559 16.1573 276.493 16.59H279.826C279.767 16.1647 279.588 15.82 279.287 15.556C278.986 15.292 278.612 15.16 278.165 15.16Z" fill="#F6F2FA"/>
<path d="M258.202 28.3C258.869 28.3 259.449 28.41 259.94 28.63C260.439 28.85 260.82 29.1653 261.084 29.576C261.348 29.9867 261.48 30.4743 261.48 31.039C261.48 31.5963 261.348 32.084 261.084 32.502C260.82 32.9127 260.439 33.228 259.94 33.448C259.449 33.668 258.869 33.778 258.202 33.778H256.464V36H255.034V28.3H258.202ZM258.136 32.568C258.759 32.568 259.232 32.436 259.555 32.172C259.878 31.908 260.039 31.5303 260.039 31.039C260.039 30.5477 259.878 30.17 259.555 29.906C259.232 29.642 258.759 29.51 258.136 29.51H256.464V32.568H258.136ZM264.031 30.984C264.427 30.368 265.124 30.06 266.121 30.06V31.369C266.004 31.347 265.898 31.336 265.802 31.336C265.267 31.336 264.849 31.4937 264.548 31.809C264.248 32.117 264.097 32.5643 264.097 33.151V36H262.722V30.126H264.031V30.984ZM269.874 36.077C269.28 36.077 268.745 35.9487 268.268 35.692C267.791 35.4353 267.417 35.0797 267.146 34.625C266.882 34.163 266.75 33.6423 266.75 33.063C266.75 32.4837 266.882 31.9667 267.146 31.512C267.417 31.0573 267.791 30.7017 268.268 30.445C268.745 30.1883 269.28 30.06 269.874 30.06C270.475 30.06 271.014 30.1883 271.491 30.445C271.968 30.7017 272.338 31.0573 272.602 31.512C272.873 31.9667 273.009 32.4837 273.009 33.063C273.009 33.6423 272.873 34.163 272.602 34.625C272.338 35.0797 271.968 35.4353 271.491 35.692C271.014 35.9487 270.475 36.077 269.874 36.077ZM269.874 34.9C270.38 34.9 270.798 34.7313 271.128 34.394C271.458 34.0567 271.623 33.613 271.623 33.063C271.623 32.513 271.458 32.0693 271.128 31.732C270.798 31.3947 270.38 31.226 269.874 31.226C269.368 31.226 268.95 31.3947 268.62 31.732C268.297 32.0693 268.136 32.513 268.136 33.063C268.136 33.613 268.297 34.0567 268.62 34.394C268.95 34.7313 269.368 34.9 269.874 34.9ZM280.077 27.838V36H278.757V35.241C278.53 35.5197 278.247 35.7287 277.91 35.868C277.58 36.0073 277.213 36.077 276.81 36.077C276.245 36.077 275.736 35.9523 275.281 35.703C274.834 35.4537 274.482 35.1017 274.225 34.647C273.968 34.185 273.84 33.657 273.84 33.063C273.84 32.469 273.968 31.9447 274.225 31.49C274.482 31.0353 274.834 30.6833 275.281 30.434C275.736 30.1847 276.245 30.06 276.81 30.06C277.199 30.06 277.554 30.126 277.877 30.258C278.2 30.39 278.475 30.588 278.702 30.852V27.838H280.077ZM276.975 34.9C277.305 34.9 277.602 34.8267 277.866 34.68C278.13 34.526 278.339 34.3097 278.493 34.031C278.647 33.7523 278.724 33.4297 278.724 33.063C278.724 32.6963 278.647 32.3737 278.493 32.095C278.339 31.8163 278.13 31.6037 277.866 31.457C277.602 31.303 277.305 31.226 276.975 31.226C276.645 31.226 276.348 31.303 276.084 31.457C275.82 31.6037 275.611 31.8163 275.457 32.095C275.303 32.3737 275.226 32.6963 275.226 33.063C275.226 33.4297 275.303 33.7523 275.457 34.031C275.611 34.3097 275.82 34.526 276.084 34.68C276.348 34.8267 276.645 34.9 276.975 34.9ZM287.563 30.126V36H286.254V35.252C286.034 35.516 285.759 35.7213 285.429 35.868C285.099 36.0073 284.743 36.077 284.362 36.077C283.577 36.077 282.957 35.8607 282.503 35.428C282.055 34.988 281.832 34.339 281.832 33.481V30.126H283.207V33.294C283.207 33.822 283.324 34.218 283.559 34.482C283.801 34.7387 284.142 34.867 284.582 34.867C285.073 34.867 285.462 34.7167 285.748 34.416C286.041 34.108 286.188 33.668 286.188 33.096V30.126H287.563ZM292.058 36.077C291.449 36.077 290.903 35.9487 290.419 35.692C289.935 35.4353 289.557 35.0797 289.286 34.625C289.015 34.163 288.879 33.6423 288.879 33.063C288.879 32.4837 289.015 31.9667 289.286 31.512C289.557 31.0573 289.931 30.7017 290.408 30.445C290.892 30.1883 291.442 30.06 292.058 30.06C292.637 30.06 293.143 30.1773 293.576 30.412C294.016 30.6467 294.346 30.984 294.566 31.424L293.51 32.04C293.341 31.7687 293.129 31.567 292.872 31.435C292.623 31.2957 292.348 31.226 292.047 31.226C291.534 31.226 291.108 31.3947 290.771 31.732C290.434 32.062 290.265 32.5057 290.265 33.063C290.265 33.6203 290.43 34.0677 290.76 34.405C291.097 34.735 291.526 34.9 292.047 34.9C292.348 34.9 292.623 34.834 292.872 34.702C293.129 34.5627 293.341 34.3573 293.51 34.086L294.566 34.702C294.339 35.142 294.005 35.483 293.565 35.725C293.132 35.9597 292.63 36.077 292.058 36.077ZM301.191 33.096C301.191 33.1913 301.183 33.327 301.169 33.503H296.56C296.64 33.9357 296.849 34.2803 297.187 34.537C297.531 34.7863 297.957 34.911 298.463 34.911C299.108 34.911 299.64 34.6983 300.058 34.273L300.795 35.12C300.531 35.4353 300.197 35.6737 299.794 35.835C299.39 35.9963 298.936 36.077 298.43 36.077C297.784 36.077 297.216 35.9487 296.725 35.692C296.233 35.4353 295.852 35.0797 295.581 34.625C295.317 34.163 295.185 33.6423 295.185 33.063C295.185 32.491 295.313 31.9777 295.57 31.523C295.834 31.061 296.197 30.7017 296.659 30.445C297.121 30.1883 297.641 30.06 298.221 30.06C298.793 30.06 299.302 30.1883 299.75 30.445C300.204 30.6943 300.556 31.05 300.806 31.512C301.062 31.9667 301.191 32.4947 301.191 33.096ZM298.221 31.16C297.781 31.16 297.407 31.292 297.099 31.556C296.798 31.8127 296.615 32.1573 296.549 32.59H299.882C299.823 32.1647 299.643 31.82 299.343 31.556C299.042 31.292 298.668 31.16 298.221 31.16ZM304.326 36.077C303.85 36.077 303.384 36.0147 302.929 35.89C302.475 35.7653 302.112 35.6077 301.84 35.417L302.368 34.372C302.632 34.548 302.948 34.691 303.314 34.801C303.688 34.9037 304.055 34.955 304.414 34.955C305.236 34.955 305.646 34.7387 305.646 34.306C305.646 34.1007 305.54 33.9577 305.327 33.877C305.122 33.7963 304.788 33.7193 304.326 33.646C303.842 33.5727 303.446 33.4883 303.138 33.393C302.838 33.2977 302.574 33.1327 302.346 32.898C302.126 32.656 302.016 32.3223 302.016 31.897C302.016 31.3397 302.247 30.896 302.709 30.566C303.179 30.2287 303.809 30.06 304.601 30.06C305.005 30.06 305.408 30.1077 305.811 30.203C306.215 30.291 306.545 30.412 306.801 30.566L306.273 31.611C305.775 31.3177 305.214 31.171 304.59 31.171C304.187 31.171 303.879 31.2333 303.666 31.358C303.461 31.4753 303.358 31.633 303.358 31.831C303.358 32.051 303.468 32.2087 303.688 32.304C303.916 32.392 304.264 32.4763 304.733 32.557C305.203 32.6303 305.588 32.7147 305.888 32.81C306.189 32.9053 306.446 33.0667 306.658 33.294C306.878 33.5213 306.988 33.844 306.988 34.262C306.988 34.812 306.75 35.252 306.273 35.582C305.797 35.912 305.148 36.077 304.326 36.077ZM314.546 30.06C315.286 30.06 315.88 30.2763 316.328 30.709C316.775 31.1417 316.999 31.7833 316.999 32.634V36H315.624V32.81C315.624 32.2967 315.503 31.9117 315.261 31.655C315.019 31.391 314.674 31.259 314.227 31.259C313.721 31.259 313.321 31.413 313.028 31.721C312.734 32.0217 312.588 32.458 312.588 33.03V36H311.213V30.126H312.522V30.885C312.749 30.6137 313.035 30.4083 313.38 30.269C313.724 30.1297 314.113 30.06 314.546 30.06ZM324.319 33.096C324.319 33.1913 324.311 33.327 324.297 33.503H319.688C319.768 33.9357 319.977 34.2803 320.315 34.537C320.659 34.7863 321.085 34.911 321.591 34.911C322.236 34.911 322.768 34.6983 323.186 34.273L323.923 35.12C323.659 35.4353 323.325 35.6737 322.922 35.835C322.518 35.9963 322.064 36.077 321.558 36.077C320.912 36.077 320.344 35.9487 319.853 35.692C319.361 35.4353 318.98 35.0797 318.709 34.625C318.445 34.163 318.313 33.6423 318.313 33.063C318.313 32.491 318.441 31.9777 318.698 31.523C318.962 31.061 319.325 30.7017 319.787 30.445C320.249 30.1883 320.769 30.06 321.349 30.06C321.921 30.06 322.43 30.1883 322.878 30.445C323.332 30.6943 323.684 31.05 323.934 31.512C324.19 31.9667 324.319 32.4947 324.319 33.096ZM321.349 31.16C320.909 31.16 320.535 31.292 320.227 31.556C319.926 31.8127 319.743 32.1573 319.677 32.59H323.01C322.951 32.1647 322.771 31.82 322.471 31.556C322.17 31.292 321.796 31.16 321.349 31.16ZM334.695 30.126L332.528 36H331.208L329.69 31.952L328.15 36H326.83L324.674 30.126H325.972L327.523 34.46L329.14 30.126H330.295L331.879 34.482L333.474 30.126H334.695ZM344.367 30.126V36H343.058V35.252C342.838 35.516 342.563 35.7213 342.233 35.868C341.903 36.0073 341.548 36.077 341.166 36.077C340.382 36.077 339.762 35.8607 339.307 35.428C338.86 34.988 338.636 34.339 338.636 33.481V30.126H340.011V33.294C340.011 33.822 340.129 34.218 340.363 34.482C340.605 34.7387 340.946 34.867 341.386 34.867C341.878 34.867 342.266 34.7167 342.552 34.416C342.846 34.108 342.992 33.668 342.992 33.096V30.126H344.367ZM349.501 30.06C350.241 30.06 350.835 30.2763 351.283 30.709C351.73 31.1417 351.954 31.7833 351.954 32.634V36H350.579V32.81C350.579 32.2967 350.458 31.9117 350.216 31.655C349.974 31.391 349.629 31.259 349.182 31.259C348.676 31.259 348.276 31.413 347.983 31.721C347.689 32.0217 347.543 32.458 347.543 33.03V36H346.168V30.126H347.477V30.885C347.704 30.6137 347.99 30.4083 348.335 30.269C348.679 30.1297 349.068 30.06 349.501 30.06ZM353.698 30.126H355.073V36H353.698V30.126ZM354.391 29.158C354.142 29.158 353.933 29.081 353.764 28.927C353.595 28.7657 353.511 28.5677 353.511 28.333C353.511 28.0983 353.595 27.904 353.764 27.75C353.933 27.5887 354.142 27.508 354.391 27.508C354.64 27.508 354.849 27.585 355.018 27.739C355.187 27.8857 355.271 28.0727 355.271 28.3C355.271 28.542 355.187 28.7473 355.018 28.916C354.857 29.0773 354.648 29.158 354.391 29.158ZM360.409 35.681C360.247 35.813 360.049 35.912 359.815 35.978C359.587 36.044 359.345 36.077 359.089 36.077C358.443 36.077 357.945 35.9083 357.593 35.571C357.241 35.2337 357.065 34.7423 357.065 34.097V31.27H356.097V30.17H357.065V28.828H358.44V30.17H360.013V31.27H358.44V34.064C358.44 34.35 358.509 34.57 358.649 34.724C358.788 34.8707 358.99 34.944 359.254 34.944C359.562 34.944 359.818 34.8633 360.024 34.702L360.409 35.681ZM363.355 36.077C362.878 36.077 362.412 36.0147 361.958 35.89C361.503 35.7653 361.14 35.6077 360.869 35.417L361.397 34.372C361.661 34.548 361.976 34.691 362.343 34.801C362.717 34.9037 363.083 34.955 363.443 34.955C364.264 34.955 364.675 34.7387 364.675 34.306C364.675 34.1007 364.568 33.9577 364.356 33.877C364.15 33.7963 363.817 33.7193 363.355 33.646C362.871 33.5727 362.475 33.4883 362.167 33.393C361.866 33.2977 361.602 33.1327 361.375 32.898C361.155 32.656 361.045 32.3223 361.045 31.897C361.045 31.3397 361.276 30.896 361.738 30.566C362.207 30.2287 362.838 30.06 363.63 30.06C364.033 30.06 364.436 30.1077 364.84 30.203C365.243 30.291 365.573 30.412 365.83 30.566L365.302 31.611C364.803 31.3177 364.242 31.171 363.619 31.171C363.215 31.171 362.907 31.2333 362.695 31.358C362.489 31.4753 362.387 31.633 362.387 31.831C362.387 32.051 362.497 32.2087 362.717 32.304C362.944 32.392 363.292 32.4763 363.762 32.557C364.231 32.6303 364.616 32.7147 364.917 32.81C365.217 32.9053 365.474 33.0667 365.687 33.294C365.907 33.5213 366.017 33.844 366.017 34.262C366.017 34.812 365.778 35.252 365.302 35.582C364.825 35.912 364.176 36.077 363.355 36.077Z" fill="#F6F2FA" fill-opacity="0.69"/>
<defs>
<filter id="filter0_d_2460_2155" x="0" y="240" width="208" height="208" filterUnits="userSpaceOnUse" color-interpolation-filters="sRGB">
<feFlood flood-opacity="0" result="BackgroundImageFix"/>
<feColorMatrix in="SourceAlpha" type="matrix" values="0 0 0 0 0 0 0 0 0 0 0 0 0 0 0 0 0 0 127 0" result="hardAlpha"/>
<feOffset/>
<feGaussianBlur stdDeviation="50"/>
<feColorMatrix type="matrix" values="0 0 0 0 0.616667 0 0 0 0 0.931 0 0 0 0 1 0 0 0 0.6 0"/>
<feBlend mode="normal" in2="BackgroundImageFix" result="effect1_dropShadow_2460_2155"/>
<feBlend mode="normal" in="SourceGraphic" in2="effect1_dropShadow_2460_2155" result="shape"/>
</filter>
<filter id="filter1_d_2460_2155" x="145" y="256" width="30" height="30" filterUnits="userSpaceOnUse" color-interpolation-filters="sRGB">
<feFlood flood-opacity="0" result="BackgroundImageFix"/>
<feColorMatrix in="SourceAlpha" type="matrix" values="0 0 0 0 0 0 0 0 0 0 0 0 0 0 0 0 0 0 127 0" result="hardAlpha"/>
<feOffset/>
<feGaussianBlur stdDeviation="6"/>
<feColorMatrix type="matrix" values="0 0 0 0 0.501961 0 0 0 0 0.54902 0 0 0 0 1 0 0 0 1 0"/>
<feBlend mode="normal" in2="BackgroundImageFix" result="effect1_dropShadow_2460_2155"/>
<feBlend mode="normal" in="SourceGraphic" in2="effect1_dropShadow_2460_2155" result="shape"/>
</filter>
<radialGradient id="paint0_radial_2460_2155" cx="0" cy="0" r="1" gradientUnits="userSpaceOnUse" gradientTransform="translate(104 344) rotate(90) scale(100)">
<stop offset="0.53125" stop-color="#85DBFF" stop-opacity="0"/>
<stop offset="1" stop-color="#E1F3FF"/>
</radialGradient>
<radialGradient id="paint1_radial_2460_2155" cx="0" cy="0" r="1" gradientUnits="userSpaceOnUse" gradientTransform="translate(104 344) rotate(90) scale(4)">
<stop stop-color="#E4F7FF" stop-opacity="0.81"/>
<stop offset="0.895833" stop-color="#E4F7FF" stop-opacity="0.92"/>
<stop offset="1" stop-color="white"/>
</radialGradient>
<linearGradient id="paint2_linear_2460_2155" x1="104" y1="344" x2="160" y2="271" gradientUnits="userSpaceOnUse">
<stop stop-color="#B0B8FF"/>
<stop offset="1" stop-color="#808CFF" stop-opacity="0.5"/>
</linearGradient>
</defs>
</svg>
